M48
;DRILL file {KiCad (5.0.1)-3} date 11/29/19 17:19:00
;FORMAT={-:-/ absolute / inch / decimal}
FMAT,2
INCH,TZ
T1C0.0150
T2C0.0197
%
G90
G05
M72
T1
X4.0217Y-4.1058
X4.05Y-4.0775
X4.8638Y-4.0663
X4.865Y-4.1675
X4.905Y-3.8175
X4.905Y-4.2675
X4.9426Y-3.9451
X4.985Y-4.5775
X5.Y-3.9775
X5.0229Y-4.0375
X5.0694Y-4.3069
X5.15Y-3.5625
X5.185Y-4.0429
X5.275Y-3.8775
X5.415Y-3.7695
X5.425Y-3.9775
X5.505Y-3.9375
X5.655Y-3.9675
T2
X4.7175Y-3.5825
X4.7569Y-3.5825
X4.7963Y-3.5825
X4.8356Y-3.5825
X4.875Y-3.5825
T0
M30
