G04 #@! TF.GenerationSoftware,KiCad,Pcbnew,(5.0.1)-3*
G04 #@! TF.CreationDate,2019-11-29T17:18:29+05:30*
G04 #@! TF.ProjectId,stm32f070-board,73746D3332663037302D626F6172642E,v1.0*
G04 #@! TF.SameCoordinates,Original*
G04 #@! TF.FileFunction,Soldermask,Top*
G04 #@! TF.FilePolarity,Negative*
%FSLAX46Y46*%
G04 Gerber Fmt 4.6, Leading zero omitted, Abs format (unit mm)*
G04 Created by KiCad (PCBNEW (5.0.1)-3) date 11/29/19 17:18:29*
%MOMM*%
%LPD*%
G01*
G04 APERTURE LIST*
%ADD10C,0.100000*%
G04 APERTURE END LIST*
D10*
G36*
X129971293Y-115646880D02*
X130025337Y-115663274D01*
X130075133Y-115689890D01*
X130118785Y-115725715D01*
X130154610Y-115769367D01*
X130181226Y-115819163D01*
X130197620Y-115873207D01*
X130203400Y-115931892D01*
X130203400Y-116605108D01*
X130197620Y-116663793D01*
X130181226Y-116717837D01*
X130154610Y-116767633D01*
X130118785Y-116811285D01*
X130075133Y-116847110D01*
X130025337Y-116873726D01*
X129971293Y-116890120D01*
X129912608Y-116895900D01*
X129139392Y-116895900D01*
X129080707Y-116890120D01*
X129026663Y-116873726D01*
X128976867Y-116847110D01*
X128933215Y-116811285D01*
X128897390Y-116767633D01*
X128870774Y-116717837D01*
X128854380Y-116663793D01*
X128848600Y-116605108D01*
X128848600Y-115931892D01*
X128854380Y-115873207D01*
X128870774Y-115819163D01*
X128897390Y-115769367D01*
X128933215Y-115725715D01*
X128976867Y-115689890D01*
X129026663Y-115663274D01*
X129080707Y-115646880D01*
X129139392Y-115641100D01*
X129912608Y-115641100D01*
X129971293Y-115646880D01*
X129971293Y-115646880D01*
G37*
G36*
X128221293Y-115646880D02*
X128275337Y-115663274D01*
X128325133Y-115689890D01*
X128368785Y-115725715D01*
X128404610Y-115769367D01*
X128431226Y-115819163D01*
X128447620Y-115873207D01*
X128453400Y-115931892D01*
X128453400Y-116605108D01*
X128447620Y-116663793D01*
X128431226Y-116717837D01*
X128404610Y-116767633D01*
X128368785Y-116811285D01*
X128325133Y-116847110D01*
X128275337Y-116873726D01*
X128221293Y-116890120D01*
X128162608Y-116895900D01*
X127389392Y-116895900D01*
X127330707Y-116890120D01*
X127276663Y-116873726D01*
X127226867Y-116847110D01*
X127183215Y-116811285D01*
X127147390Y-116767633D01*
X127120774Y-116717837D01*
X127104380Y-116663793D01*
X127098600Y-116605108D01*
X127098600Y-115931892D01*
X127104380Y-115873207D01*
X127120774Y-115819163D01*
X127147390Y-115769367D01*
X127183215Y-115725715D01*
X127226867Y-115689890D01*
X127276663Y-115663274D01*
X127330707Y-115646880D01*
X127389392Y-115641100D01*
X128162608Y-115641100D01*
X128221293Y-115646880D01*
X128221293Y-115646880D01*
G37*
G36*
X129611961Y-111693523D02*
X129618279Y-111701221D01*
X129625977Y-111707539D01*
X129634760Y-111712233D01*
X129644289Y-111715124D01*
X129654200Y-111716100D01*
X130678400Y-111716100D01*
X130678400Y-112470900D01*
X129654200Y-112470900D01*
X129644289Y-112471876D01*
X129634760Y-112474767D01*
X129625977Y-112479461D01*
X129618279Y-112485779D01*
X129611961Y-112493477D01*
X129607267Y-112502260D01*
X129604376Y-112511789D01*
X129603400Y-112521700D01*
X129603400Y-112665300D01*
X129604376Y-112675211D01*
X129607267Y-112684740D01*
X129611961Y-112693523D01*
X129618279Y-112701221D01*
X129625977Y-112707539D01*
X129634760Y-112712233D01*
X129644289Y-112715124D01*
X129654200Y-112716100D01*
X130678400Y-112716100D01*
X130678400Y-113470900D01*
X129654200Y-113470900D01*
X129644289Y-113471876D01*
X129634760Y-113474767D01*
X129625977Y-113479461D01*
X129618279Y-113485779D01*
X129611961Y-113493477D01*
X129607267Y-113502260D01*
X129604376Y-113511789D01*
X129603400Y-113521700D01*
X129603400Y-113665300D01*
X129604376Y-113675211D01*
X129607267Y-113684740D01*
X129611961Y-113693523D01*
X129618279Y-113701221D01*
X129625977Y-113707539D01*
X129634760Y-113712233D01*
X129644289Y-113715124D01*
X129654200Y-113716100D01*
X130678400Y-113716100D01*
X130678400Y-114470900D01*
X129654200Y-114470900D01*
X129644289Y-114471876D01*
X129634760Y-114474767D01*
X129625977Y-114479461D01*
X129618279Y-114485779D01*
X129611961Y-114493477D01*
X129610666Y-114495900D01*
X127691334Y-114495900D01*
X127690039Y-114493477D01*
X127683721Y-114485779D01*
X127676023Y-114479461D01*
X127667240Y-114474767D01*
X127657711Y-114471876D01*
X127647800Y-114470900D01*
X126623600Y-114470900D01*
X126623600Y-113716100D01*
X127647800Y-113716100D01*
X127657711Y-113715124D01*
X127667240Y-113712233D01*
X127676023Y-113707539D01*
X127683721Y-113701221D01*
X127690039Y-113693523D01*
X127694733Y-113684740D01*
X127697624Y-113675211D01*
X127698600Y-113665300D01*
X127698600Y-113521700D01*
X127697624Y-113511789D01*
X127694733Y-113502260D01*
X127690039Y-113493477D01*
X127683721Y-113485779D01*
X127676023Y-113479461D01*
X127667240Y-113474767D01*
X127657711Y-113471876D01*
X127647800Y-113470900D01*
X126623600Y-113470900D01*
X126623600Y-112716100D01*
X127647800Y-112716100D01*
X127657711Y-112715124D01*
X127667240Y-112712233D01*
X127676023Y-112707539D01*
X127683721Y-112701221D01*
X127690039Y-112693523D01*
X127694733Y-112684740D01*
X127697624Y-112675211D01*
X127698600Y-112665300D01*
X127698600Y-112521700D01*
X127697624Y-112511789D01*
X127694733Y-112502260D01*
X127690039Y-112493477D01*
X127683721Y-112485779D01*
X127676023Y-112479461D01*
X127667240Y-112474767D01*
X127657711Y-112471876D01*
X127647800Y-112470900D01*
X126623600Y-112470900D01*
X126623600Y-111716100D01*
X127647800Y-111716100D01*
X127657711Y-111715124D01*
X127667240Y-111712233D01*
X127676023Y-111707539D01*
X127683721Y-111701221D01*
X127690039Y-111693523D01*
X127691334Y-111691100D01*
X129610666Y-111691100D01*
X129611961Y-111693523D01*
X129611961Y-111693523D01*
G37*
G36*
X149275293Y-112852880D02*
X149329337Y-112869274D01*
X149379133Y-112895890D01*
X149422785Y-112931715D01*
X149458610Y-112975367D01*
X149485226Y-113025163D01*
X149501620Y-113079207D01*
X149507400Y-113137892D01*
X149507400Y-113811108D01*
X149501620Y-113869793D01*
X149485226Y-113923837D01*
X149458610Y-113973633D01*
X149422785Y-114017285D01*
X149379133Y-114053110D01*
X149329337Y-114079726D01*
X149275293Y-114096120D01*
X149216608Y-114101900D01*
X148443392Y-114101900D01*
X148384707Y-114096120D01*
X148330663Y-114079726D01*
X148280867Y-114053110D01*
X148237215Y-114017285D01*
X148201390Y-113973633D01*
X148174774Y-113923837D01*
X148158380Y-113869793D01*
X148152600Y-113811108D01*
X148152600Y-113137892D01*
X148158380Y-113079207D01*
X148174774Y-113025163D01*
X148201390Y-112975367D01*
X148237215Y-112931715D01*
X148280867Y-112895890D01*
X148330663Y-112869274D01*
X148384707Y-112852880D01*
X148443392Y-112847100D01*
X149216608Y-112847100D01*
X149275293Y-112852880D01*
X149275293Y-112852880D01*
G37*
G36*
X147525293Y-112852880D02*
X147579337Y-112869274D01*
X147629133Y-112895890D01*
X147672785Y-112931715D01*
X147708610Y-112975367D01*
X147735226Y-113025163D01*
X147751620Y-113079207D01*
X147757400Y-113137892D01*
X147757400Y-113811108D01*
X147751620Y-113869793D01*
X147735226Y-113923837D01*
X147708610Y-113973633D01*
X147672785Y-114017285D01*
X147629133Y-114053110D01*
X147579337Y-114079726D01*
X147525293Y-114096120D01*
X147466608Y-114101900D01*
X146693392Y-114101900D01*
X146634707Y-114096120D01*
X146580663Y-114079726D01*
X146530867Y-114053110D01*
X146487215Y-114017285D01*
X146451390Y-113973633D01*
X146424774Y-113923837D01*
X146408380Y-113869793D01*
X146402600Y-113811108D01*
X146402600Y-113137892D01*
X146408380Y-113079207D01*
X146424774Y-113025163D01*
X146451390Y-112975367D01*
X146487215Y-112931715D01*
X146530867Y-112895890D01*
X146580663Y-112869274D01*
X146634707Y-112852880D01*
X146693392Y-112847100D01*
X147466608Y-112847100D01*
X147525293Y-112852880D01*
X147525293Y-112852880D01*
G37*
G36*
X157403293Y-112852880D02*
X157457337Y-112869274D01*
X157507133Y-112895890D01*
X157550785Y-112931715D01*
X157586610Y-112975367D01*
X157613226Y-113025163D01*
X157629620Y-113079207D01*
X157635400Y-113137892D01*
X157635400Y-113811108D01*
X157629620Y-113869793D01*
X157613226Y-113923837D01*
X157586610Y-113973633D01*
X157550785Y-114017285D01*
X157507133Y-114053110D01*
X157457337Y-114079726D01*
X157403293Y-114096120D01*
X157344608Y-114101900D01*
X156571392Y-114101900D01*
X156512707Y-114096120D01*
X156458663Y-114079726D01*
X156408867Y-114053110D01*
X156365215Y-114017285D01*
X156329390Y-113973633D01*
X156302774Y-113923837D01*
X156286380Y-113869793D01*
X156280600Y-113811108D01*
X156280600Y-113137892D01*
X156286380Y-113079207D01*
X156302774Y-113025163D01*
X156329390Y-112975367D01*
X156365215Y-112931715D01*
X156408867Y-112895890D01*
X156458663Y-112869274D01*
X156512707Y-112852880D01*
X156571392Y-112847100D01*
X157344608Y-112847100D01*
X157403293Y-112852880D01*
X157403293Y-112852880D01*
G37*
G36*
X155653293Y-112852880D02*
X155707337Y-112869274D01*
X155757133Y-112895890D01*
X155800785Y-112931715D01*
X155836610Y-112975367D01*
X155863226Y-113025163D01*
X155879620Y-113079207D01*
X155885400Y-113137892D01*
X155885400Y-113811108D01*
X155879620Y-113869793D01*
X155863226Y-113923837D01*
X155836610Y-113973633D01*
X155800785Y-114017285D01*
X155757133Y-114053110D01*
X155707337Y-114079726D01*
X155653293Y-114096120D01*
X155594608Y-114101900D01*
X154821392Y-114101900D01*
X154762707Y-114096120D01*
X154708663Y-114079726D01*
X154658867Y-114053110D01*
X154615215Y-114017285D01*
X154579390Y-113973633D01*
X154552774Y-113923837D01*
X154536380Y-113869793D01*
X154530600Y-113811108D01*
X154530600Y-113137892D01*
X154536380Y-113079207D01*
X154552774Y-113025163D01*
X154579390Y-112975367D01*
X154615215Y-112931715D01*
X154658867Y-112895890D01*
X154708663Y-112869274D01*
X154762707Y-112852880D01*
X154821392Y-112847100D01*
X155594608Y-112847100D01*
X155653293Y-112852880D01*
X155653293Y-112852880D01*
G37*
G36*
X111937293Y-112852880D02*
X111991337Y-112869274D01*
X112041133Y-112895890D01*
X112084785Y-112931715D01*
X112120610Y-112975367D01*
X112147226Y-113025163D01*
X112163620Y-113079207D01*
X112169400Y-113137892D01*
X112169400Y-113811108D01*
X112163620Y-113869793D01*
X112147226Y-113923837D01*
X112120610Y-113973633D01*
X112084785Y-114017285D01*
X112041133Y-114053110D01*
X111991337Y-114079726D01*
X111937293Y-114096120D01*
X111878608Y-114101900D01*
X111105392Y-114101900D01*
X111046707Y-114096120D01*
X110992663Y-114079726D01*
X110942867Y-114053110D01*
X110899215Y-114017285D01*
X110863390Y-113973633D01*
X110836774Y-113923837D01*
X110820380Y-113869793D01*
X110814600Y-113811108D01*
X110814600Y-113137892D01*
X110820380Y-113079207D01*
X110836774Y-113025163D01*
X110863390Y-112975367D01*
X110899215Y-112931715D01*
X110942867Y-112895890D01*
X110992663Y-112869274D01*
X111046707Y-112852880D01*
X111105392Y-112847100D01*
X111878608Y-112847100D01*
X111937293Y-112852880D01*
X111937293Y-112852880D01*
G37*
G36*
X110187293Y-112852880D02*
X110241337Y-112869274D01*
X110291133Y-112895890D01*
X110334785Y-112931715D01*
X110370610Y-112975367D01*
X110397226Y-113025163D01*
X110413620Y-113079207D01*
X110419400Y-113137892D01*
X110419400Y-113811108D01*
X110413620Y-113869793D01*
X110397226Y-113923837D01*
X110370610Y-113973633D01*
X110334785Y-114017285D01*
X110291133Y-114053110D01*
X110241337Y-114079726D01*
X110187293Y-114096120D01*
X110128608Y-114101900D01*
X109355392Y-114101900D01*
X109296707Y-114096120D01*
X109242663Y-114079726D01*
X109192867Y-114053110D01*
X109149215Y-114017285D01*
X109113390Y-113973633D01*
X109086774Y-113923837D01*
X109070380Y-113869793D01*
X109064600Y-113811108D01*
X109064600Y-113137892D01*
X109070380Y-113079207D01*
X109086774Y-113025163D01*
X109113390Y-112975367D01*
X109149215Y-112931715D01*
X109192867Y-112895890D01*
X109242663Y-112869274D01*
X109296707Y-112852880D01*
X109355392Y-112847100D01*
X110128608Y-112847100D01*
X110187293Y-112852880D01*
X110187293Y-112852880D01*
G37*
G36*
X138889293Y-112852880D02*
X138943337Y-112869274D01*
X138993133Y-112895890D01*
X139036785Y-112931715D01*
X139072610Y-112975367D01*
X139099226Y-113025163D01*
X139115620Y-113079207D01*
X139121400Y-113137892D01*
X139121400Y-113811108D01*
X139115620Y-113869793D01*
X139099226Y-113923837D01*
X139072610Y-113973633D01*
X139036785Y-114017285D01*
X138993133Y-114053110D01*
X138943337Y-114079726D01*
X138889293Y-114096120D01*
X138830608Y-114101900D01*
X138057392Y-114101900D01*
X137998707Y-114096120D01*
X137944663Y-114079726D01*
X137894867Y-114053110D01*
X137851215Y-114017285D01*
X137815390Y-113973633D01*
X137788774Y-113923837D01*
X137772380Y-113869793D01*
X137766600Y-113811108D01*
X137766600Y-113137892D01*
X137772380Y-113079207D01*
X137788774Y-113025163D01*
X137815390Y-112975367D01*
X137851215Y-112931715D01*
X137894867Y-112895890D01*
X137944663Y-112869274D01*
X137998707Y-112852880D01*
X138057392Y-112847100D01*
X138830608Y-112847100D01*
X138889293Y-112852880D01*
X138889293Y-112852880D01*
G37*
G36*
X140639293Y-112852880D02*
X140693337Y-112869274D01*
X140743133Y-112895890D01*
X140786785Y-112931715D01*
X140822610Y-112975367D01*
X140849226Y-113025163D01*
X140865620Y-113079207D01*
X140871400Y-113137892D01*
X140871400Y-113811108D01*
X140865620Y-113869793D01*
X140849226Y-113923837D01*
X140822610Y-113973633D01*
X140786785Y-114017285D01*
X140743133Y-114053110D01*
X140693337Y-114079726D01*
X140639293Y-114096120D01*
X140580608Y-114101900D01*
X139807392Y-114101900D01*
X139748707Y-114096120D01*
X139694663Y-114079726D01*
X139644867Y-114053110D01*
X139601215Y-114017285D01*
X139565390Y-113973633D01*
X139538774Y-113923837D01*
X139522380Y-113869793D01*
X139516600Y-113811108D01*
X139516600Y-113137892D01*
X139522380Y-113079207D01*
X139538774Y-113025163D01*
X139565390Y-112975367D01*
X139601215Y-112931715D01*
X139644867Y-112895890D01*
X139694663Y-112869274D01*
X139748707Y-112852880D01*
X139807392Y-112847100D01*
X140580608Y-112847100D01*
X140639293Y-112852880D01*
X140639293Y-112852880D01*
G37*
G36*
X132094293Y-112661880D02*
X132148337Y-112678274D01*
X132198133Y-112704890D01*
X132241785Y-112740715D01*
X132277610Y-112784367D01*
X132304226Y-112834163D01*
X132320620Y-112888207D01*
X132326400Y-112946892D01*
X132326400Y-113720108D01*
X132320620Y-113778793D01*
X132304226Y-113832837D01*
X132277610Y-113882633D01*
X132241785Y-113926285D01*
X132198133Y-113962110D01*
X132148337Y-113988726D01*
X132094293Y-114005120D01*
X132035608Y-114010900D01*
X131362392Y-114010900D01*
X131303707Y-114005120D01*
X131249663Y-113988726D01*
X131199867Y-113962110D01*
X131156215Y-113926285D01*
X131120390Y-113882633D01*
X131093774Y-113832837D01*
X131077380Y-113778793D01*
X131071600Y-113720108D01*
X131071600Y-112946892D01*
X131077380Y-112888207D01*
X131093774Y-112834163D01*
X131120390Y-112784367D01*
X131156215Y-112740715D01*
X131199867Y-112704890D01*
X131249663Y-112678274D01*
X131303707Y-112661880D01*
X131362392Y-112656100D01*
X132035608Y-112656100D01*
X132094293Y-112661880D01*
X132094293Y-112661880D01*
G37*
G36*
X125236293Y-112661880D02*
X125290337Y-112678274D01*
X125340133Y-112704890D01*
X125383785Y-112740715D01*
X125419610Y-112784367D01*
X125446226Y-112834163D01*
X125462620Y-112888207D01*
X125468400Y-112946892D01*
X125468400Y-113720108D01*
X125462620Y-113778793D01*
X125446226Y-113832837D01*
X125419610Y-113882633D01*
X125383785Y-113926285D01*
X125340133Y-113962110D01*
X125290337Y-113988726D01*
X125236293Y-114005120D01*
X125177608Y-114010900D01*
X124504392Y-114010900D01*
X124445707Y-114005120D01*
X124391663Y-113988726D01*
X124341867Y-113962110D01*
X124298215Y-113926285D01*
X124262390Y-113882633D01*
X124235774Y-113832837D01*
X124219380Y-113778793D01*
X124213600Y-113720108D01*
X124213600Y-112946892D01*
X124219380Y-112888207D01*
X124235774Y-112834163D01*
X124262390Y-112784367D01*
X124298215Y-112740715D01*
X124341867Y-112704890D01*
X124391663Y-112678274D01*
X124445707Y-112661880D01*
X124504392Y-112656100D01*
X125177608Y-112656100D01*
X125236293Y-112661880D01*
X125236293Y-112661880D01*
G37*
G36*
X122151400Y-113086900D02*
X120846600Y-113086900D01*
X120846600Y-111182100D01*
X122151400Y-111182100D01*
X122151400Y-113086900D01*
X122151400Y-113086900D01*
G37*
G36*
X117151400Y-113086900D02*
X115846600Y-113086900D01*
X115846600Y-111182100D01*
X117151400Y-111182100D01*
X117151400Y-113086900D01*
X117151400Y-113086900D01*
G37*
G36*
X119651400Y-113086900D02*
X118346600Y-113086900D01*
X118346600Y-111182100D01*
X119651400Y-111182100D01*
X119651400Y-113086900D01*
X119651400Y-113086900D01*
G37*
G36*
X140639293Y-111074880D02*
X140693337Y-111091274D01*
X140743133Y-111117890D01*
X140786785Y-111153715D01*
X140822610Y-111197367D01*
X140849226Y-111247163D01*
X140865620Y-111301207D01*
X140871400Y-111359892D01*
X140871400Y-112033108D01*
X140865620Y-112091793D01*
X140849226Y-112145837D01*
X140822610Y-112195633D01*
X140786785Y-112239285D01*
X140743133Y-112275110D01*
X140693337Y-112301726D01*
X140639293Y-112318120D01*
X140580608Y-112323900D01*
X139807392Y-112323900D01*
X139748707Y-112318120D01*
X139694663Y-112301726D01*
X139644867Y-112275110D01*
X139601215Y-112239285D01*
X139565390Y-112195633D01*
X139538774Y-112145837D01*
X139522380Y-112091793D01*
X139516600Y-112033108D01*
X139516600Y-111359892D01*
X139522380Y-111301207D01*
X139538774Y-111247163D01*
X139565390Y-111197367D01*
X139601215Y-111153715D01*
X139644867Y-111117890D01*
X139694663Y-111091274D01*
X139748707Y-111074880D01*
X139807392Y-111069100D01*
X140580608Y-111069100D01*
X140639293Y-111074880D01*
X140639293Y-111074880D01*
G37*
G36*
X138889293Y-111074880D02*
X138943337Y-111091274D01*
X138993133Y-111117890D01*
X139036785Y-111153715D01*
X139072610Y-111197367D01*
X139099226Y-111247163D01*
X139115620Y-111301207D01*
X139121400Y-111359892D01*
X139121400Y-112033108D01*
X139115620Y-112091793D01*
X139099226Y-112145837D01*
X139072610Y-112195633D01*
X139036785Y-112239285D01*
X138993133Y-112275110D01*
X138943337Y-112301726D01*
X138889293Y-112318120D01*
X138830608Y-112323900D01*
X138057392Y-112323900D01*
X137998707Y-112318120D01*
X137944663Y-112301726D01*
X137894867Y-112275110D01*
X137851215Y-112239285D01*
X137815390Y-112195633D01*
X137788774Y-112145837D01*
X137772380Y-112091793D01*
X137766600Y-112033108D01*
X137766600Y-111359892D01*
X137772380Y-111301207D01*
X137788774Y-111247163D01*
X137815390Y-111197367D01*
X137851215Y-111153715D01*
X137894867Y-111117890D01*
X137944663Y-111091274D01*
X137998707Y-111074880D01*
X138057392Y-111069100D01*
X138830608Y-111069100D01*
X138889293Y-111074880D01*
X138889293Y-111074880D01*
G37*
G36*
X132094293Y-110911880D02*
X132148337Y-110928274D01*
X132198133Y-110954890D01*
X132241785Y-110990715D01*
X132277610Y-111034367D01*
X132304226Y-111084163D01*
X132320620Y-111138207D01*
X132326400Y-111196892D01*
X132326400Y-111970108D01*
X132320620Y-112028793D01*
X132304226Y-112082837D01*
X132277610Y-112132633D01*
X132241785Y-112176285D01*
X132198133Y-112212110D01*
X132148337Y-112238726D01*
X132094293Y-112255120D01*
X132035608Y-112260900D01*
X131362392Y-112260900D01*
X131303707Y-112255120D01*
X131249663Y-112238726D01*
X131199867Y-112212110D01*
X131156215Y-112176285D01*
X131120390Y-112132633D01*
X131093774Y-112082837D01*
X131077380Y-112028793D01*
X131071600Y-111970108D01*
X131071600Y-111196892D01*
X131077380Y-111138207D01*
X131093774Y-111084163D01*
X131120390Y-111034367D01*
X131156215Y-110990715D01*
X131199867Y-110954890D01*
X131249663Y-110928274D01*
X131303707Y-110911880D01*
X131362392Y-110906100D01*
X132035608Y-110906100D01*
X132094293Y-110911880D01*
X132094293Y-110911880D01*
G37*
G36*
X125236293Y-110911880D02*
X125290337Y-110928274D01*
X125340133Y-110954890D01*
X125383785Y-110990715D01*
X125419610Y-111034367D01*
X125446226Y-111084163D01*
X125462620Y-111138207D01*
X125468400Y-111196892D01*
X125468400Y-111970108D01*
X125462620Y-112028793D01*
X125446226Y-112082837D01*
X125419610Y-112132633D01*
X125383785Y-112176285D01*
X125340133Y-112212110D01*
X125290337Y-112238726D01*
X125236293Y-112255120D01*
X125177608Y-112260900D01*
X124504392Y-112260900D01*
X124445707Y-112255120D01*
X124391663Y-112238726D01*
X124341867Y-112212110D01*
X124298215Y-112176285D01*
X124262390Y-112132633D01*
X124235774Y-112082837D01*
X124219380Y-112028793D01*
X124213600Y-111970108D01*
X124213600Y-111196892D01*
X124219380Y-111138207D01*
X124235774Y-111084163D01*
X124262390Y-111034367D01*
X124298215Y-110990715D01*
X124341867Y-110954890D01*
X124391663Y-110928274D01*
X124445707Y-110911880D01*
X124504392Y-110906100D01*
X125177608Y-110906100D01*
X125236293Y-110911880D01*
X125236293Y-110911880D01*
G37*
G36*
X150221400Y-111374900D02*
X144316600Y-111374900D01*
X144316600Y-108970100D01*
X150221400Y-108970100D01*
X150221400Y-111374900D01*
X150221400Y-111374900D01*
G37*
G36*
X159721400Y-111374900D02*
X153816600Y-111374900D01*
X153816600Y-108970100D01*
X159721400Y-108970100D01*
X159721400Y-111374900D01*
X159721400Y-111374900D01*
G37*
G36*
X107365293Y-109931880D02*
X107419337Y-109948274D01*
X107469133Y-109974890D01*
X107512785Y-110010715D01*
X107548610Y-110054367D01*
X107575226Y-110104163D01*
X107591620Y-110158207D01*
X107597400Y-110216892D01*
X107597400Y-110890108D01*
X107591620Y-110948793D01*
X107575226Y-111002837D01*
X107548610Y-111052633D01*
X107512785Y-111096285D01*
X107469133Y-111132110D01*
X107419337Y-111158726D01*
X107365293Y-111175120D01*
X107306608Y-111180900D01*
X106533392Y-111180900D01*
X106474707Y-111175120D01*
X106420663Y-111158726D01*
X106370867Y-111132110D01*
X106327215Y-111096285D01*
X106291390Y-111052633D01*
X106264774Y-111002837D01*
X106248380Y-110948793D01*
X106242600Y-110890108D01*
X106242600Y-110216892D01*
X106248380Y-110158207D01*
X106264774Y-110104163D01*
X106291390Y-110054367D01*
X106327215Y-110010715D01*
X106370867Y-109974890D01*
X106420663Y-109948274D01*
X106474707Y-109931880D01*
X106533392Y-109926100D01*
X107306608Y-109926100D01*
X107365293Y-109931880D01*
X107365293Y-109931880D01*
G37*
G36*
X105615293Y-109931880D02*
X105669337Y-109948274D01*
X105719133Y-109974890D01*
X105762785Y-110010715D01*
X105798610Y-110054367D01*
X105825226Y-110104163D01*
X105841620Y-110158207D01*
X105847400Y-110216892D01*
X105847400Y-110890108D01*
X105841620Y-110948793D01*
X105825226Y-111002837D01*
X105798610Y-111052633D01*
X105762785Y-111096285D01*
X105719133Y-111132110D01*
X105669337Y-111158726D01*
X105615293Y-111175120D01*
X105556608Y-111180900D01*
X104783392Y-111180900D01*
X104724707Y-111175120D01*
X104670663Y-111158726D01*
X104620867Y-111132110D01*
X104577215Y-111096285D01*
X104541390Y-111052633D01*
X104514774Y-111002837D01*
X104498380Y-110948793D01*
X104492600Y-110890108D01*
X104492600Y-110216892D01*
X104498380Y-110158207D01*
X104514774Y-110104163D01*
X104541390Y-110054367D01*
X104577215Y-110010715D01*
X104620867Y-109974890D01*
X104670663Y-109948274D01*
X104724707Y-109931880D01*
X104783392Y-109926100D01*
X105556608Y-109926100D01*
X105615293Y-109931880D01*
X105615293Y-109931880D01*
G37*
G36*
X110217400Y-111105900D02*
X109312600Y-111105900D01*
X109312600Y-110001100D01*
X110217400Y-110001100D01*
X110217400Y-111105900D01*
X110217400Y-111105900D01*
G37*
G36*
X111667400Y-111105900D02*
X110762600Y-111105900D01*
X110762600Y-110001100D01*
X111667400Y-110001100D01*
X111667400Y-111105900D01*
X111667400Y-111105900D01*
G37*
G36*
X122151400Y-110686900D02*
X120846600Y-110686900D01*
X120846600Y-108782100D01*
X122151400Y-108782100D01*
X122151400Y-110686900D01*
X122151400Y-110686900D01*
G37*
G36*
X119651400Y-110686900D02*
X118346600Y-110686900D01*
X118346600Y-108782100D01*
X119651400Y-108782100D01*
X119651400Y-110686900D01*
X119651400Y-110686900D01*
G37*
G36*
X117151400Y-110686900D02*
X115846600Y-110686900D01*
X115846600Y-108782100D01*
X117151400Y-108782100D01*
X117151400Y-110686900D01*
X117151400Y-110686900D01*
G37*
G36*
X134452400Y-109600900D02*
X132037600Y-109600900D01*
X132037600Y-107696100D01*
X134452400Y-107696100D01*
X134452400Y-109600900D01*
X134452400Y-109600900D01*
G37*
G36*
X143552400Y-109600900D02*
X141137600Y-109600900D01*
X141137600Y-107696100D01*
X143552400Y-107696100D01*
X143552400Y-109600900D01*
X143552400Y-109600900D01*
G37*
G36*
X129209293Y-107518880D02*
X129263337Y-107535274D01*
X129313133Y-107561890D01*
X129356785Y-107597715D01*
X129392610Y-107641367D01*
X129419226Y-107691163D01*
X129435620Y-107745207D01*
X129441400Y-107803892D01*
X129441400Y-108477108D01*
X129435620Y-108535793D01*
X129419226Y-108589837D01*
X129392610Y-108639633D01*
X129356785Y-108683285D01*
X129313133Y-108719110D01*
X129263337Y-108745726D01*
X129209293Y-108762120D01*
X129150608Y-108767900D01*
X128377392Y-108767900D01*
X128318707Y-108762120D01*
X128264663Y-108745726D01*
X128214867Y-108719110D01*
X128171215Y-108683285D01*
X128135390Y-108639633D01*
X128108774Y-108589837D01*
X128092380Y-108535793D01*
X128086600Y-108477108D01*
X128086600Y-107803892D01*
X128092380Y-107745207D01*
X128108774Y-107691163D01*
X128135390Y-107641367D01*
X128171215Y-107597715D01*
X128214867Y-107561890D01*
X128264663Y-107535274D01*
X128318707Y-107518880D01*
X128377392Y-107513100D01*
X129150608Y-107513100D01*
X129209293Y-107518880D01*
X129209293Y-107518880D01*
G37*
G36*
X127459293Y-107518880D02*
X127513337Y-107535274D01*
X127563133Y-107561890D01*
X127606785Y-107597715D01*
X127642610Y-107641367D01*
X127669226Y-107691163D01*
X127685620Y-107745207D01*
X127691400Y-107803892D01*
X127691400Y-108477108D01*
X127685620Y-108535793D01*
X127669226Y-108589837D01*
X127642610Y-108639633D01*
X127606785Y-108683285D01*
X127563133Y-108719110D01*
X127513337Y-108745726D01*
X127459293Y-108762120D01*
X127400608Y-108767900D01*
X126627392Y-108767900D01*
X126568707Y-108762120D01*
X126514663Y-108745726D01*
X126464867Y-108719110D01*
X126421215Y-108683285D01*
X126385390Y-108639633D01*
X126358774Y-108589837D01*
X126342380Y-108535793D01*
X126336600Y-108477108D01*
X126336600Y-107803892D01*
X126342380Y-107745207D01*
X126358774Y-107691163D01*
X126385390Y-107641367D01*
X126421215Y-107597715D01*
X126464867Y-107561890D01*
X126514663Y-107535274D01*
X126568707Y-107518880D01*
X126627392Y-107513100D01*
X127400608Y-107513100D01*
X127459293Y-107518880D01*
X127459293Y-107518880D01*
G37*
G36*
X108155293Y-106756880D02*
X108209337Y-106773274D01*
X108259133Y-106799890D01*
X108302785Y-106835715D01*
X108338610Y-106879367D01*
X108365226Y-106929163D01*
X108381620Y-106983207D01*
X108387400Y-107041892D01*
X108387400Y-107715108D01*
X108381620Y-107773793D01*
X108365226Y-107827837D01*
X108338610Y-107877633D01*
X108302785Y-107921285D01*
X108259133Y-107957110D01*
X108209337Y-107983726D01*
X108155293Y-108000120D01*
X108096608Y-108005900D01*
X107323392Y-108005900D01*
X107264707Y-108000120D01*
X107210663Y-107983726D01*
X107160867Y-107957110D01*
X107117215Y-107921285D01*
X107081390Y-107877633D01*
X107054774Y-107827837D01*
X107038380Y-107773793D01*
X107032600Y-107715108D01*
X107032600Y-107041892D01*
X107038380Y-106983207D01*
X107054774Y-106929163D01*
X107081390Y-106879367D01*
X107117215Y-106835715D01*
X107160867Y-106799890D01*
X107210663Y-106773274D01*
X107264707Y-106756880D01*
X107323392Y-106751100D01*
X108096608Y-106751100D01*
X108155293Y-106756880D01*
X108155293Y-106756880D01*
G37*
G36*
X109905293Y-106756880D02*
X109959337Y-106773274D01*
X110009133Y-106799890D01*
X110052785Y-106835715D01*
X110088610Y-106879367D01*
X110115226Y-106929163D01*
X110131620Y-106983207D01*
X110137400Y-107041892D01*
X110137400Y-107715108D01*
X110131620Y-107773793D01*
X110115226Y-107827837D01*
X110088610Y-107877633D01*
X110052785Y-107921285D01*
X110009133Y-107957110D01*
X109959337Y-107983726D01*
X109905293Y-108000120D01*
X109846608Y-108005900D01*
X109073392Y-108005900D01*
X109014707Y-108000120D01*
X108960663Y-107983726D01*
X108910867Y-107957110D01*
X108867215Y-107921285D01*
X108831390Y-107877633D01*
X108804774Y-107827837D01*
X108788380Y-107773793D01*
X108782600Y-107715108D01*
X108782600Y-107041892D01*
X108788380Y-106983207D01*
X108804774Y-106929163D01*
X108831390Y-106879367D01*
X108867215Y-106835715D01*
X108910867Y-106799890D01*
X108960663Y-106773274D01*
X109014707Y-106756880D01*
X109073392Y-106751100D01*
X109846608Y-106751100D01*
X109905293Y-106756880D01*
X109905293Y-106756880D01*
G37*
G36*
X99137400Y-100175300D02*
X99138376Y-100185211D01*
X99141267Y-100194740D01*
X99145961Y-100203523D01*
X99152279Y-100211221D01*
X99159977Y-100217539D01*
X99168760Y-100222233D01*
X99178289Y-100225124D01*
X99188200Y-100226100D01*
X101537400Y-100226100D01*
X101537400Y-106910900D01*
X99188200Y-106910900D01*
X99178289Y-106911876D01*
X99168760Y-106914767D01*
X99159977Y-106919461D01*
X99152279Y-106925779D01*
X99145961Y-106933477D01*
X99141267Y-106942260D01*
X99138376Y-106951789D01*
X99137400Y-106961700D01*
X99137400Y-107820900D01*
X96932600Y-107820900D01*
X96932600Y-103666100D01*
X99137400Y-103666100D01*
X99137400Y-105080300D01*
X99138376Y-105090211D01*
X99141267Y-105099740D01*
X99145961Y-105108523D01*
X99152279Y-105116221D01*
X99159977Y-105122539D01*
X99168760Y-105127233D01*
X99178289Y-105130124D01*
X99188200Y-105131100D01*
X99801800Y-105131100D01*
X99811711Y-105130124D01*
X99821240Y-105127233D01*
X99830023Y-105122539D01*
X99837721Y-105116221D01*
X99844039Y-105108523D01*
X99848733Y-105099740D01*
X99851624Y-105090211D01*
X99852600Y-105080300D01*
X99852600Y-102056700D01*
X99851624Y-102046789D01*
X99848733Y-102037260D01*
X99844039Y-102028477D01*
X99837721Y-102020779D01*
X99830023Y-102014461D01*
X99821240Y-102009767D01*
X99811711Y-102006876D01*
X99801800Y-102005900D01*
X99188200Y-102005900D01*
X99178289Y-102006876D01*
X99168760Y-102009767D01*
X99159977Y-102014461D01*
X99152279Y-102020779D01*
X99145961Y-102028477D01*
X99141267Y-102037260D01*
X99138376Y-102046789D01*
X99137400Y-102056700D01*
X99137400Y-103470900D01*
X96932600Y-103470900D01*
X96932600Y-99316100D01*
X99137400Y-99316100D01*
X99137400Y-100175300D01*
X99137400Y-100175300D01*
G37*
G36*
X119811293Y-105994880D02*
X119865337Y-106011274D01*
X119915133Y-106037890D01*
X119958785Y-106073715D01*
X119994610Y-106117367D01*
X120021226Y-106167163D01*
X120037620Y-106221207D01*
X120043400Y-106279892D01*
X120043400Y-106953108D01*
X120037620Y-107011793D01*
X120021226Y-107065837D01*
X119994610Y-107115633D01*
X119958785Y-107159285D01*
X119915133Y-107195110D01*
X119865337Y-107221726D01*
X119811293Y-107238120D01*
X119752608Y-107243900D01*
X118979392Y-107243900D01*
X118920707Y-107238120D01*
X118866663Y-107221726D01*
X118816867Y-107195110D01*
X118773215Y-107159285D01*
X118737390Y-107115633D01*
X118710774Y-107065837D01*
X118694380Y-107011793D01*
X118688600Y-106953108D01*
X118688600Y-106279892D01*
X118694380Y-106221207D01*
X118710774Y-106167163D01*
X118737390Y-106117367D01*
X118773215Y-106073715D01*
X118816867Y-106037890D01*
X118866663Y-106011274D01*
X118920707Y-105994880D01*
X118979392Y-105989100D01*
X119752608Y-105989100D01*
X119811293Y-105994880D01*
X119811293Y-105994880D01*
G37*
G36*
X129209293Y-105994880D02*
X129263337Y-106011274D01*
X129313133Y-106037890D01*
X129356785Y-106073715D01*
X129392610Y-106117367D01*
X129419226Y-106167163D01*
X129435620Y-106221207D01*
X129441400Y-106279892D01*
X129441400Y-106953108D01*
X129435620Y-107011793D01*
X129419226Y-107065837D01*
X129392610Y-107115633D01*
X129356785Y-107159285D01*
X129313133Y-107195110D01*
X129263337Y-107221726D01*
X129209293Y-107238120D01*
X129150608Y-107243900D01*
X128377392Y-107243900D01*
X128318707Y-107238120D01*
X128264663Y-107221726D01*
X128214867Y-107195110D01*
X128171215Y-107159285D01*
X128135390Y-107115633D01*
X128108774Y-107065837D01*
X128092380Y-107011793D01*
X128086600Y-106953108D01*
X128086600Y-106279892D01*
X128092380Y-106221207D01*
X128108774Y-106167163D01*
X128135390Y-106117367D01*
X128171215Y-106073715D01*
X128214867Y-106037890D01*
X128264663Y-106011274D01*
X128318707Y-105994880D01*
X128377392Y-105989100D01*
X129150608Y-105989100D01*
X129209293Y-105994880D01*
X129209293Y-105994880D01*
G37*
G36*
X127459293Y-105994880D02*
X127513337Y-106011274D01*
X127563133Y-106037890D01*
X127606785Y-106073715D01*
X127642610Y-106117367D01*
X127669226Y-106167163D01*
X127685620Y-106221207D01*
X127691400Y-106279892D01*
X127691400Y-106953108D01*
X127685620Y-107011793D01*
X127669226Y-107065837D01*
X127642610Y-107115633D01*
X127606785Y-107159285D01*
X127563133Y-107195110D01*
X127513337Y-107221726D01*
X127459293Y-107238120D01*
X127400608Y-107243900D01*
X126627392Y-107243900D01*
X126568707Y-107238120D01*
X126514663Y-107221726D01*
X126464867Y-107195110D01*
X126421215Y-107159285D01*
X126385390Y-107115633D01*
X126358774Y-107065837D01*
X126342380Y-107011793D01*
X126336600Y-106953108D01*
X126336600Y-106279892D01*
X126342380Y-106221207D01*
X126358774Y-106167163D01*
X126385390Y-106117367D01*
X126421215Y-106073715D01*
X126464867Y-106037890D01*
X126514663Y-106011274D01*
X126568707Y-105994880D01*
X126627392Y-105989100D01*
X127400608Y-105989100D01*
X127459293Y-105994880D01*
X127459293Y-105994880D01*
G37*
G36*
X118061293Y-105994880D02*
X118115337Y-106011274D01*
X118165133Y-106037890D01*
X118208785Y-106073715D01*
X118244610Y-106117367D01*
X118271226Y-106167163D01*
X118287620Y-106221207D01*
X118293400Y-106279892D01*
X118293400Y-106953108D01*
X118287620Y-107011793D01*
X118271226Y-107065837D01*
X118244610Y-107115633D01*
X118208785Y-107159285D01*
X118165133Y-107195110D01*
X118115337Y-107221726D01*
X118061293Y-107238120D01*
X118002608Y-107243900D01*
X117229392Y-107243900D01*
X117170707Y-107238120D01*
X117116663Y-107221726D01*
X117066867Y-107195110D01*
X117023215Y-107159285D01*
X116987390Y-107115633D01*
X116960774Y-107065837D01*
X116944380Y-107011793D01*
X116938600Y-106953108D01*
X116938600Y-106279892D01*
X116944380Y-106221207D01*
X116960774Y-106167163D01*
X116987390Y-106117367D01*
X117023215Y-106073715D01*
X117066867Y-106037890D01*
X117116663Y-106011274D01*
X117170707Y-105994880D01*
X117229392Y-105989100D01*
X118002608Y-105989100D01*
X118061293Y-105994880D01*
X118061293Y-105994880D01*
G37*
G36*
X162147400Y-102200900D02*
X159942600Y-102200900D01*
X159942600Y-100786700D01*
X159941624Y-100776789D01*
X159938733Y-100767260D01*
X159934039Y-100758477D01*
X159927721Y-100750779D01*
X159920023Y-100744461D01*
X159911240Y-100739767D01*
X159901711Y-100736876D01*
X159891800Y-100735900D01*
X159278200Y-100735900D01*
X159268289Y-100736876D01*
X159258760Y-100739767D01*
X159249977Y-100744461D01*
X159242279Y-100750779D01*
X159235961Y-100758477D01*
X159231267Y-100767260D01*
X159228376Y-100776789D01*
X159227400Y-100786700D01*
X159227400Y-103810300D01*
X159228376Y-103820211D01*
X159231267Y-103829740D01*
X159235961Y-103838523D01*
X159242279Y-103846221D01*
X159249977Y-103852539D01*
X159258760Y-103857233D01*
X159268289Y-103860124D01*
X159278200Y-103861100D01*
X159891800Y-103861100D01*
X159901711Y-103860124D01*
X159911240Y-103857233D01*
X159920023Y-103852539D01*
X159927721Y-103846221D01*
X159934039Y-103838523D01*
X159938733Y-103829740D01*
X159941624Y-103820211D01*
X159942600Y-103810300D01*
X159942600Y-102396100D01*
X162147400Y-102396100D01*
X162147400Y-106550900D01*
X159942600Y-106550900D01*
X159942600Y-105691700D01*
X159941624Y-105681789D01*
X159938733Y-105672260D01*
X159934039Y-105663477D01*
X159927721Y-105655779D01*
X159920023Y-105649461D01*
X159911240Y-105644767D01*
X159901711Y-105641876D01*
X159891800Y-105640900D01*
X157542600Y-105640900D01*
X157542600Y-98956100D01*
X159891800Y-98956100D01*
X159901711Y-98955124D01*
X159911240Y-98952233D01*
X159920023Y-98947539D01*
X159927721Y-98941221D01*
X159934039Y-98933523D01*
X159938733Y-98924740D01*
X159941624Y-98915211D01*
X159942600Y-98905300D01*
X159942600Y-98046100D01*
X162147400Y-98046100D01*
X162147400Y-102200900D01*
X162147400Y-102200900D01*
G37*
G36*
X153589400Y-106433900D02*
X151784600Y-106433900D01*
X151784600Y-105529100D01*
X153589400Y-105529100D01*
X153589400Y-106433900D01*
X153589400Y-106433900D01*
G37*
G36*
X148189400Y-106433900D02*
X146384600Y-106433900D01*
X146384600Y-105529100D01*
X148189400Y-105529100D01*
X148189400Y-106433900D01*
X148189400Y-106433900D01*
G37*
G36*
X153589400Y-105163900D02*
X151784600Y-105163900D01*
X151784600Y-104259100D01*
X153589400Y-104259100D01*
X153589400Y-105163900D01*
X153589400Y-105163900D01*
G37*
G36*
X148189400Y-105163900D02*
X146384600Y-105163900D01*
X146384600Y-104259100D01*
X148189400Y-104259100D01*
X148189400Y-105163900D01*
X148189400Y-105163900D01*
G37*
G36*
X109553767Y-102234740D02*
X109558461Y-102243523D01*
X109564779Y-102251221D01*
X109572477Y-102257539D01*
X109581260Y-102262233D01*
X109590789Y-102265124D01*
X109600700Y-102266100D01*
X110592400Y-102266100D01*
X110592400Y-102970900D01*
X109600700Y-102970900D01*
X109590789Y-102971876D01*
X109581260Y-102974767D01*
X109572477Y-102979461D01*
X109564779Y-102985779D01*
X109558461Y-102993477D01*
X109553767Y-103002260D01*
X109550876Y-103011789D01*
X109549900Y-103021700D01*
X109549900Y-103165300D01*
X109550876Y-103175211D01*
X109553767Y-103184740D01*
X109558461Y-103193523D01*
X109564779Y-103201221D01*
X109572477Y-103207539D01*
X109581260Y-103212233D01*
X109590789Y-103215124D01*
X109600700Y-103216100D01*
X110592400Y-103216100D01*
X110592400Y-103920900D01*
X109600700Y-103920900D01*
X109590789Y-103921876D01*
X109581260Y-103924767D01*
X109572477Y-103929461D01*
X109564779Y-103935779D01*
X109558461Y-103943477D01*
X109553767Y-103952260D01*
X109550876Y-103961789D01*
X109549900Y-103971700D01*
X109549900Y-104115300D01*
X109550876Y-104125211D01*
X109553767Y-104134740D01*
X109558461Y-104143523D01*
X109564779Y-104151221D01*
X109572477Y-104157539D01*
X109581260Y-104162233D01*
X109590789Y-104165124D01*
X109600700Y-104166100D01*
X110592400Y-104166100D01*
X110592400Y-104870900D01*
X109600700Y-104870900D01*
X109590789Y-104871876D01*
X109581260Y-104874767D01*
X109572477Y-104879461D01*
X109564779Y-104885779D01*
X109558461Y-104893477D01*
X109553767Y-104902260D01*
X109553421Y-104903400D01*
X107616579Y-104903400D01*
X107616233Y-104902260D01*
X107611539Y-104893477D01*
X107605221Y-104885779D01*
X107597523Y-104879461D01*
X107588740Y-104874767D01*
X107579211Y-104871876D01*
X107569300Y-104870900D01*
X106577600Y-104870900D01*
X106577600Y-104166100D01*
X107569300Y-104166100D01*
X107579211Y-104165124D01*
X107588740Y-104162233D01*
X107597523Y-104157539D01*
X107605221Y-104151221D01*
X107611539Y-104143523D01*
X107616233Y-104134740D01*
X107619124Y-104125211D01*
X107620100Y-104115300D01*
X107620100Y-103971700D01*
X107619124Y-103961789D01*
X107616233Y-103952260D01*
X107611539Y-103943477D01*
X107605221Y-103935779D01*
X107597523Y-103929461D01*
X107588740Y-103924767D01*
X107579211Y-103921876D01*
X107569300Y-103920900D01*
X106577600Y-103920900D01*
X106577600Y-103216100D01*
X107569300Y-103216100D01*
X107579211Y-103215124D01*
X107588740Y-103212233D01*
X107597523Y-103207539D01*
X107605221Y-103201221D01*
X107611539Y-103193523D01*
X107616233Y-103184740D01*
X107619124Y-103175211D01*
X107620100Y-103165300D01*
X107620100Y-103021700D01*
X107619124Y-103011789D01*
X107616233Y-103002260D01*
X107611539Y-102993477D01*
X107605221Y-102985779D01*
X107597523Y-102979461D01*
X107588740Y-102974767D01*
X107579211Y-102971876D01*
X107569300Y-102970900D01*
X106577600Y-102970900D01*
X106577600Y-102266100D01*
X107569300Y-102266100D01*
X107579211Y-102265124D01*
X107588740Y-102262233D01*
X107597523Y-102257539D01*
X107605221Y-102251221D01*
X107611539Y-102243523D01*
X107616233Y-102234740D01*
X107616579Y-102233600D01*
X109553421Y-102233600D01*
X109553767Y-102234740D01*
X109553767Y-102234740D01*
G37*
G36*
X131151400Y-104603900D02*
X130700600Y-104603900D01*
X130700600Y-103203100D01*
X131151400Y-103203100D01*
X131151400Y-104603900D01*
X131151400Y-104603900D01*
G37*
G36*
X130501400Y-104603900D02*
X130050600Y-104603900D01*
X130050600Y-103203100D01*
X130501400Y-103203100D01*
X130501400Y-104603900D01*
X130501400Y-104603900D01*
G37*
G36*
X129851400Y-104603900D02*
X129400600Y-104603900D01*
X129400600Y-103203100D01*
X129851400Y-103203100D01*
X129851400Y-104603900D01*
X129851400Y-104603900D01*
G37*
G36*
X129201400Y-104603900D02*
X128750600Y-104603900D01*
X128750600Y-103203100D01*
X129201400Y-103203100D01*
X129201400Y-104603900D01*
X129201400Y-104603900D01*
G37*
G36*
X128551400Y-104603900D02*
X128100600Y-104603900D01*
X128100600Y-103203100D01*
X128551400Y-103203100D01*
X128551400Y-104603900D01*
X128551400Y-104603900D01*
G37*
G36*
X127901400Y-104603900D02*
X127450600Y-104603900D01*
X127450600Y-103203100D01*
X127901400Y-103203100D01*
X127901400Y-104603900D01*
X127901400Y-104603900D01*
G37*
G36*
X127251400Y-104603900D02*
X126800600Y-104603900D01*
X126800600Y-103203100D01*
X127251400Y-103203100D01*
X127251400Y-104603900D01*
X127251400Y-104603900D01*
G37*
G36*
X125951400Y-104603900D02*
X125500600Y-104603900D01*
X125500600Y-103203100D01*
X125951400Y-103203100D01*
X125951400Y-104603900D01*
X125951400Y-104603900D01*
G37*
G36*
X126601400Y-104603900D02*
X126150600Y-104603900D01*
X126150600Y-103203100D01*
X126601400Y-103203100D01*
X126601400Y-104603900D01*
X126601400Y-104603900D01*
G37*
G36*
X131801400Y-104603900D02*
X131350600Y-104603900D01*
X131350600Y-103203100D01*
X131801400Y-103203100D01*
X131801400Y-104603900D01*
X131801400Y-104603900D01*
G37*
G36*
X148189400Y-103893900D02*
X146384600Y-103893900D01*
X146384600Y-102989100D01*
X148189400Y-102989100D01*
X148189400Y-103893900D01*
X148189400Y-103893900D01*
G37*
G36*
X153589400Y-103893900D02*
X151784600Y-103893900D01*
X151784600Y-102989100D01*
X153589400Y-102989100D01*
X153589400Y-103893900D01*
X153589400Y-103893900D01*
G37*
G36*
X148189400Y-102623900D02*
X146384600Y-102623900D01*
X146384600Y-101719100D01*
X148189400Y-101719100D01*
X148189400Y-102623900D01*
X148189400Y-102623900D01*
G37*
G36*
X153589400Y-102623900D02*
X151784600Y-102623900D01*
X151784600Y-101719100D01*
X153589400Y-101719100D01*
X153589400Y-102623900D01*
X153589400Y-102623900D01*
G37*
G36*
X134857400Y-102530900D02*
X133652600Y-102530900D01*
X133652600Y-101426100D01*
X134857400Y-101426100D01*
X134857400Y-102530900D01*
X134857400Y-102530900D01*
G37*
G36*
X136857400Y-101580900D02*
X135652600Y-101580900D01*
X135652600Y-100476100D01*
X136857400Y-100476100D01*
X136857400Y-101580900D01*
X136857400Y-101580900D01*
G37*
G36*
X153589400Y-101353900D02*
X151784600Y-101353900D01*
X151784600Y-100449100D01*
X153589400Y-100449100D01*
X153589400Y-101353900D01*
X153589400Y-101353900D01*
G37*
G36*
X148189400Y-101353900D02*
X146384600Y-101353900D01*
X146384600Y-100449100D01*
X148189400Y-100449100D01*
X148189400Y-101353900D01*
X148189400Y-101353900D01*
G37*
G36*
X109905293Y-99771880D02*
X109959337Y-99788274D01*
X110009133Y-99814890D01*
X110052785Y-99850715D01*
X110088610Y-99894367D01*
X110115226Y-99944163D01*
X110131620Y-99998207D01*
X110137400Y-100056892D01*
X110137400Y-100730108D01*
X110131620Y-100788793D01*
X110115226Y-100842837D01*
X110088610Y-100892633D01*
X110052785Y-100936285D01*
X110009133Y-100972110D01*
X109959337Y-100998726D01*
X109905293Y-101015120D01*
X109846608Y-101020900D01*
X109073392Y-101020900D01*
X109014707Y-101015120D01*
X108960663Y-100998726D01*
X108910867Y-100972110D01*
X108867215Y-100936285D01*
X108831390Y-100892633D01*
X108804774Y-100842837D01*
X108788380Y-100788793D01*
X108782600Y-100730108D01*
X108782600Y-100056892D01*
X108788380Y-99998207D01*
X108804774Y-99944163D01*
X108831390Y-99894367D01*
X108867215Y-99850715D01*
X108910867Y-99814890D01*
X108960663Y-99788274D01*
X109014707Y-99771880D01*
X109073392Y-99766100D01*
X109846608Y-99766100D01*
X109905293Y-99771880D01*
X109905293Y-99771880D01*
G37*
G36*
X118795293Y-99771880D02*
X118849337Y-99788274D01*
X118899133Y-99814890D01*
X118942785Y-99850715D01*
X118978610Y-99894367D01*
X119005226Y-99944163D01*
X119021620Y-99998207D01*
X119027400Y-100056892D01*
X119027400Y-100730108D01*
X119021620Y-100788793D01*
X119005226Y-100842837D01*
X118978610Y-100892633D01*
X118942785Y-100936285D01*
X118899133Y-100972110D01*
X118849337Y-100998726D01*
X118795293Y-101015120D01*
X118736608Y-101020900D01*
X117963392Y-101020900D01*
X117904707Y-101015120D01*
X117850663Y-100998726D01*
X117800867Y-100972110D01*
X117757215Y-100936285D01*
X117721390Y-100892633D01*
X117694774Y-100842837D01*
X117678380Y-100788793D01*
X117672600Y-100730108D01*
X117672600Y-100056892D01*
X117678380Y-99998207D01*
X117694774Y-99944163D01*
X117721390Y-99894367D01*
X117757215Y-99850715D01*
X117800867Y-99814890D01*
X117850663Y-99788274D01*
X117904707Y-99771880D01*
X117963392Y-99766100D01*
X118736608Y-99766100D01*
X118795293Y-99771880D01*
X118795293Y-99771880D01*
G37*
G36*
X117045293Y-99771880D02*
X117099337Y-99788274D01*
X117149133Y-99814890D01*
X117192785Y-99850715D01*
X117228610Y-99894367D01*
X117255226Y-99944163D01*
X117271620Y-99998207D01*
X117277400Y-100056892D01*
X117277400Y-100730108D01*
X117271620Y-100788793D01*
X117255226Y-100842837D01*
X117228610Y-100892633D01*
X117192785Y-100936285D01*
X117149133Y-100972110D01*
X117099337Y-100998726D01*
X117045293Y-101015120D01*
X116986608Y-101020900D01*
X116213392Y-101020900D01*
X116154707Y-101015120D01*
X116100663Y-100998726D01*
X116050867Y-100972110D01*
X116007215Y-100936285D01*
X115971390Y-100892633D01*
X115944774Y-100842837D01*
X115928380Y-100788793D01*
X115922600Y-100730108D01*
X115922600Y-100056892D01*
X115928380Y-99998207D01*
X115944774Y-99944163D01*
X115971390Y-99894367D01*
X116007215Y-99850715D01*
X116050867Y-99814890D01*
X116100663Y-99788274D01*
X116154707Y-99771880D01*
X116213392Y-99766100D01*
X116986608Y-99766100D01*
X117045293Y-99771880D01*
X117045293Y-99771880D01*
G37*
G36*
X108155293Y-99771880D02*
X108209337Y-99788274D01*
X108259133Y-99814890D01*
X108302785Y-99850715D01*
X108338610Y-99894367D01*
X108365226Y-99944163D01*
X108381620Y-99998207D01*
X108387400Y-100056892D01*
X108387400Y-100730108D01*
X108381620Y-100788793D01*
X108365226Y-100842837D01*
X108338610Y-100892633D01*
X108302785Y-100936285D01*
X108259133Y-100972110D01*
X108209337Y-100998726D01*
X108155293Y-101015120D01*
X108096608Y-101020900D01*
X107323392Y-101020900D01*
X107264707Y-101015120D01*
X107210663Y-100998726D01*
X107160867Y-100972110D01*
X107117215Y-100936285D01*
X107081390Y-100892633D01*
X107054774Y-100842837D01*
X107038380Y-100788793D01*
X107032600Y-100730108D01*
X107032600Y-100056892D01*
X107038380Y-99998207D01*
X107054774Y-99944163D01*
X107081390Y-99894367D01*
X107117215Y-99850715D01*
X107160867Y-99814890D01*
X107210663Y-99788274D01*
X107264707Y-99771880D01*
X107323392Y-99766100D01*
X108096608Y-99766100D01*
X108155293Y-99771880D01*
X108155293Y-99771880D01*
G37*
G36*
X134857400Y-100630900D02*
X133652600Y-100630900D01*
X133652600Y-99526100D01*
X134857400Y-99526100D01*
X134857400Y-100630900D01*
X134857400Y-100630900D01*
G37*
G36*
X148189400Y-100083900D02*
X146384600Y-100083900D01*
X146384600Y-99179100D01*
X148189400Y-99179100D01*
X148189400Y-100083900D01*
X148189400Y-100083900D01*
G37*
G36*
X153589400Y-100083900D02*
X151784600Y-100083900D01*
X151784600Y-99179100D01*
X153589400Y-99179100D01*
X153589400Y-100083900D01*
X153589400Y-100083900D01*
G37*
G36*
X127251400Y-98853900D02*
X126800600Y-98853900D01*
X126800600Y-97453100D01*
X127251400Y-97453100D01*
X127251400Y-98853900D01*
X127251400Y-98853900D01*
G37*
G36*
X126601400Y-98853900D02*
X126150600Y-98853900D01*
X126150600Y-97453100D01*
X126601400Y-97453100D01*
X126601400Y-98853900D01*
X126601400Y-98853900D01*
G37*
G36*
X125951400Y-98853900D02*
X125500600Y-98853900D01*
X125500600Y-97453100D01*
X125951400Y-97453100D01*
X125951400Y-98853900D01*
X125951400Y-98853900D01*
G37*
G36*
X130501400Y-98853900D02*
X130050600Y-98853900D01*
X130050600Y-97453100D01*
X130501400Y-97453100D01*
X130501400Y-98853900D01*
X130501400Y-98853900D01*
G37*
G36*
X129851400Y-98853900D02*
X129400600Y-98853900D01*
X129400600Y-97453100D01*
X129851400Y-97453100D01*
X129851400Y-98853900D01*
X129851400Y-98853900D01*
G37*
G36*
X129201400Y-98853900D02*
X128750600Y-98853900D01*
X128750600Y-97453100D01*
X129201400Y-97453100D01*
X129201400Y-98853900D01*
X129201400Y-98853900D01*
G37*
G36*
X128551400Y-98853900D02*
X128100600Y-98853900D01*
X128100600Y-97453100D01*
X128551400Y-97453100D01*
X128551400Y-98853900D01*
X128551400Y-98853900D01*
G37*
G36*
X127901400Y-98853900D02*
X127450600Y-98853900D01*
X127450600Y-97453100D01*
X127901400Y-97453100D01*
X127901400Y-98853900D01*
X127901400Y-98853900D01*
G37*
G36*
X131801400Y-98853900D02*
X131350600Y-98853900D01*
X131350600Y-97453100D01*
X131801400Y-97453100D01*
X131801400Y-98853900D01*
X131801400Y-98853900D01*
G37*
G36*
X131151400Y-98853900D02*
X130700600Y-98853900D01*
X130700600Y-97453100D01*
X131151400Y-97453100D01*
X131151400Y-98853900D01*
X131151400Y-98853900D01*
G37*
G36*
X148189400Y-98813900D02*
X146384600Y-98813900D01*
X146384600Y-97909100D01*
X148189400Y-97909100D01*
X148189400Y-98813900D01*
X148189400Y-98813900D01*
G37*
G36*
X153589400Y-98813900D02*
X151784600Y-98813900D01*
X151784600Y-97909100D01*
X153589400Y-97909100D01*
X153589400Y-98813900D01*
X153589400Y-98813900D01*
G37*
G36*
X114132400Y-98170900D02*
X111717600Y-98170900D01*
X111717600Y-96266100D01*
X114132400Y-96266100D01*
X114132400Y-98170900D01*
X114132400Y-98170900D01*
G37*
G36*
X123232400Y-98170900D02*
X120817600Y-98170900D01*
X120817600Y-96266100D01*
X123232400Y-96266100D01*
X123232400Y-98170900D01*
X123232400Y-98170900D01*
G37*
G36*
X153589400Y-97543900D02*
X151784600Y-97543900D01*
X151784600Y-96639100D01*
X153589400Y-96639100D01*
X153589400Y-97543900D01*
X153589400Y-97543900D01*
G37*
G36*
X148189400Y-97543900D02*
X146384600Y-97543900D01*
X146384600Y-96639100D01*
X148189400Y-96639100D01*
X148189400Y-97543900D01*
X148189400Y-97543900D01*
G37*
G36*
X133267400Y-95855900D02*
X132162600Y-95855900D01*
X132162600Y-94951100D01*
X133267400Y-94951100D01*
X133267400Y-95855900D01*
X133267400Y-95855900D01*
G37*
G36*
X136061400Y-95855900D02*
X134956600Y-95855900D01*
X134956600Y-94951100D01*
X136061400Y-94951100D01*
X136061400Y-95855900D01*
X136061400Y-95855900D01*
G37*
G36*
X128221293Y-94310880D02*
X128275337Y-94327274D01*
X128325133Y-94353890D01*
X128368785Y-94389715D01*
X128404610Y-94433367D01*
X128431226Y-94483163D01*
X128447620Y-94537207D01*
X128453400Y-94595892D01*
X128453400Y-95269108D01*
X128447620Y-95327793D01*
X128431226Y-95381837D01*
X128404610Y-95431633D01*
X128368785Y-95475285D01*
X128325133Y-95511110D01*
X128275337Y-95537726D01*
X128221293Y-95554120D01*
X128162608Y-95559900D01*
X127389392Y-95559900D01*
X127330707Y-95554120D01*
X127276663Y-95537726D01*
X127226867Y-95511110D01*
X127183215Y-95475285D01*
X127147390Y-95431633D01*
X127120774Y-95381837D01*
X127104380Y-95327793D01*
X127098600Y-95269108D01*
X127098600Y-94595892D01*
X127104380Y-94537207D01*
X127120774Y-94483163D01*
X127147390Y-94433367D01*
X127183215Y-94389715D01*
X127226867Y-94353890D01*
X127276663Y-94327274D01*
X127330707Y-94310880D01*
X127389392Y-94305100D01*
X128162608Y-94305100D01*
X128221293Y-94310880D01*
X128221293Y-94310880D01*
G37*
G36*
X129971293Y-94310880D02*
X130025337Y-94327274D01*
X130075133Y-94353890D01*
X130118785Y-94389715D01*
X130154610Y-94433367D01*
X130181226Y-94483163D01*
X130197620Y-94537207D01*
X130203400Y-94595892D01*
X130203400Y-95269108D01*
X130197620Y-95327793D01*
X130181226Y-95381837D01*
X130154610Y-95431633D01*
X130118785Y-95475285D01*
X130075133Y-95511110D01*
X130025337Y-95537726D01*
X129971293Y-95554120D01*
X129912608Y-95559900D01*
X129139392Y-95559900D01*
X129080707Y-95554120D01*
X129026663Y-95537726D01*
X128976867Y-95511110D01*
X128933215Y-95475285D01*
X128897390Y-95431633D01*
X128870774Y-95381837D01*
X128854380Y-95327793D01*
X128848600Y-95269108D01*
X128848600Y-94595892D01*
X128854380Y-94537207D01*
X128870774Y-94483163D01*
X128897390Y-94433367D01*
X128933215Y-94389715D01*
X128976867Y-94353890D01*
X129026663Y-94327274D01*
X129080707Y-94310880D01*
X129139392Y-94305100D01*
X129912608Y-94305100D01*
X129971293Y-94310880D01*
X129971293Y-94310880D01*
G37*
G36*
X141655293Y-94056880D02*
X141709337Y-94073274D01*
X141759133Y-94099890D01*
X141802785Y-94135715D01*
X141838610Y-94179367D01*
X141865226Y-94229163D01*
X141881620Y-94283207D01*
X141887400Y-94341892D01*
X141887400Y-95015108D01*
X141881620Y-95073793D01*
X141865226Y-95127837D01*
X141838610Y-95177633D01*
X141802785Y-95221285D01*
X141759133Y-95257110D01*
X141709337Y-95283726D01*
X141655293Y-95300120D01*
X141596608Y-95305900D01*
X140823392Y-95305900D01*
X140764707Y-95300120D01*
X140710663Y-95283726D01*
X140660867Y-95257110D01*
X140617215Y-95221285D01*
X140581390Y-95177633D01*
X140554774Y-95127837D01*
X140538380Y-95073793D01*
X140532600Y-95015108D01*
X140532600Y-94341892D01*
X140538380Y-94283207D01*
X140554774Y-94229163D01*
X140581390Y-94179367D01*
X140617215Y-94135715D01*
X140660867Y-94099890D01*
X140710663Y-94073274D01*
X140764707Y-94056880D01*
X140823392Y-94051100D01*
X141596608Y-94051100D01*
X141655293Y-94056880D01*
X141655293Y-94056880D01*
G37*
G36*
X139905293Y-94056880D02*
X139959337Y-94073274D01*
X140009133Y-94099890D01*
X140052785Y-94135715D01*
X140088610Y-94179367D01*
X140115226Y-94229163D01*
X140131620Y-94283207D01*
X140137400Y-94341892D01*
X140137400Y-95015108D01*
X140131620Y-95073793D01*
X140115226Y-95127837D01*
X140088610Y-95177633D01*
X140052785Y-95221285D01*
X140009133Y-95257110D01*
X139959337Y-95283726D01*
X139905293Y-95300120D01*
X139846608Y-95305900D01*
X139073392Y-95305900D01*
X139014707Y-95300120D01*
X138960663Y-95283726D01*
X138910867Y-95257110D01*
X138867215Y-95221285D01*
X138831390Y-95177633D01*
X138804774Y-95127837D01*
X138788380Y-95073793D01*
X138782600Y-95015108D01*
X138782600Y-94341892D01*
X138788380Y-94283207D01*
X138804774Y-94229163D01*
X138831390Y-94179367D01*
X138867215Y-94135715D01*
X138910867Y-94099890D01*
X138960663Y-94073274D01*
X139014707Y-94056880D01*
X139073392Y-94051100D01*
X139846608Y-94051100D01*
X139905293Y-94056880D01*
X139905293Y-94056880D01*
G37*
G36*
X136061400Y-94405900D02*
X134956600Y-94405900D01*
X134956600Y-93501100D01*
X136061400Y-93501100D01*
X136061400Y-94405900D01*
X136061400Y-94405900D01*
G37*
G36*
X133267400Y-94405900D02*
X132162600Y-94405900D01*
X132162600Y-93501100D01*
X133267400Y-93501100D01*
X133267400Y-94405900D01*
X133267400Y-94405900D01*
G37*
G36*
X148829400Y-94198900D02*
X146924600Y-94198900D01*
X146924600Y-91094100D01*
X148829400Y-91094100D01*
X148829400Y-94198900D01*
X148829400Y-94198900D01*
G37*
G36*
X145429400Y-94198900D02*
X143524600Y-94198900D01*
X143524600Y-91094100D01*
X145429400Y-91094100D01*
X145429400Y-94198900D01*
X145429400Y-94198900D01*
G37*
G36*
X129971293Y-92786880D02*
X130025337Y-92803274D01*
X130075133Y-92829890D01*
X130118785Y-92865715D01*
X130154610Y-92909367D01*
X130181226Y-92959163D01*
X130197620Y-93013207D01*
X130203400Y-93071892D01*
X130203400Y-93745108D01*
X130197620Y-93803793D01*
X130181226Y-93857837D01*
X130154610Y-93907633D01*
X130118785Y-93951285D01*
X130075133Y-93987110D01*
X130025337Y-94013726D01*
X129971293Y-94030120D01*
X129912608Y-94035900D01*
X129139392Y-94035900D01*
X129080707Y-94030120D01*
X129026663Y-94013726D01*
X128976867Y-93987110D01*
X128933215Y-93951285D01*
X128897390Y-93907633D01*
X128870774Y-93857837D01*
X128854380Y-93803793D01*
X128848600Y-93745108D01*
X128848600Y-93071892D01*
X128854380Y-93013207D01*
X128870774Y-92959163D01*
X128897390Y-92909367D01*
X128933215Y-92865715D01*
X128976867Y-92829890D01*
X129026663Y-92803274D01*
X129080707Y-92786880D01*
X129139392Y-92781100D01*
X129912608Y-92781100D01*
X129971293Y-92786880D01*
X129971293Y-92786880D01*
G37*
G36*
X128221293Y-92786880D02*
X128275337Y-92803274D01*
X128325133Y-92829890D01*
X128368785Y-92865715D01*
X128404610Y-92909367D01*
X128431226Y-92959163D01*
X128447620Y-93013207D01*
X128453400Y-93071892D01*
X128453400Y-93745108D01*
X128447620Y-93803793D01*
X128431226Y-93857837D01*
X128404610Y-93907633D01*
X128368785Y-93951285D01*
X128325133Y-93987110D01*
X128275337Y-94013726D01*
X128221293Y-94030120D01*
X128162608Y-94035900D01*
X127389392Y-94035900D01*
X127330707Y-94030120D01*
X127276663Y-94013726D01*
X127226867Y-93987110D01*
X127183215Y-93951285D01*
X127147390Y-93907633D01*
X127120774Y-93857837D01*
X127104380Y-93803793D01*
X127098600Y-93745108D01*
X127098600Y-93071892D01*
X127104380Y-93013207D01*
X127120774Y-92959163D01*
X127147390Y-92909367D01*
X127183215Y-92865715D01*
X127226867Y-92829890D01*
X127276663Y-92803274D01*
X127330707Y-92786880D01*
X127389392Y-92781100D01*
X128162608Y-92781100D01*
X128221293Y-92786880D01*
X128221293Y-92786880D01*
G37*
G36*
X139905293Y-92405880D02*
X139959337Y-92422274D01*
X140009133Y-92448890D01*
X140052785Y-92484715D01*
X140088610Y-92528367D01*
X140115226Y-92578163D01*
X140131620Y-92632207D01*
X140137400Y-92690892D01*
X140137400Y-93364108D01*
X140131620Y-93422793D01*
X140115226Y-93476837D01*
X140088610Y-93526633D01*
X140052785Y-93570285D01*
X140009133Y-93606110D01*
X139959337Y-93632726D01*
X139905293Y-93649120D01*
X139846608Y-93654900D01*
X139073392Y-93654900D01*
X139014707Y-93649120D01*
X138960663Y-93632726D01*
X138910867Y-93606110D01*
X138867215Y-93570285D01*
X138831390Y-93526633D01*
X138804774Y-93476837D01*
X138788380Y-93422793D01*
X138782600Y-93364108D01*
X138782600Y-92690892D01*
X138788380Y-92632207D01*
X138804774Y-92578163D01*
X138831390Y-92528367D01*
X138867215Y-92484715D01*
X138910867Y-92448890D01*
X138960663Y-92422274D01*
X139014707Y-92405880D01*
X139073392Y-92400100D01*
X139846608Y-92400100D01*
X139905293Y-92405880D01*
X139905293Y-92405880D01*
G37*
G36*
X141655293Y-92405880D02*
X141709337Y-92422274D01*
X141759133Y-92448890D01*
X141802785Y-92484715D01*
X141838610Y-92528367D01*
X141865226Y-92578163D01*
X141881620Y-92632207D01*
X141887400Y-92690892D01*
X141887400Y-93364108D01*
X141881620Y-93422793D01*
X141865226Y-93476837D01*
X141838610Y-93526633D01*
X141802785Y-93570285D01*
X141759133Y-93606110D01*
X141709337Y-93632726D01*
X141655293Y-93649120D01*
X141596608Y-93654900D01*
X140823392Y-93654900D01*
X140764707Y-93649120D01*
X140710663Y-93632726D01*
X140660867Y-93606110D01*
X140617215Y-93570285D01*
X140581390Y-93526633D01*
X140554774Y-93476837D01*
X140538380Y-93422793D01*
X140532600Y-93364108D01*
X140532600Y-92690892D01*
X140538380Y-92632207D01*
X140554774Y-92578163D01*
X140581390Y-92528367D01*
X140617215Y-92484715D01*
X140660867Y-92448890D01*
X140710663Y-92422274D01*
X140764707Y-92405880D01*
X140823392Y-92400100D01*
X141596608Y-92400100D01*
X141655293Y-92405880D01*
X141655293Y-92405880D01*
G37*
G36*
X135904293Y-91579880D02*
X135958337Y-91596274D01*
X136008133Y-91622890D01*
X136051785Y-91658715D01*
X136087610Y-91702367D01*
X136114226Y-91752163D01*
X136130620Y-91806207D01*
X136136400Y-91864892D01*
X136136400Y-92638108D01*
X136130620Y-92696793D01*
X136114226Y-92750837D01*
X136087610Y-92800633D01*
X136051785Y-92844285D01*
X136008133Y-92880110D01*
X135958337Y-92906726D01*
X135904293Y-92923120D01*
X135845608Y-92928900D01*
X135172392Y-92928900D01*
X135113707Y-92923120D01*
X135059663Y-92906726D01*
X135009867Y-92880110D01*
X134966215Y-92844285D01*
X134930390Y-92800633D01*
X134903774Y-92750837D01*
X134887380Y-92696793D01*
X134881600Y-92638108D01*
X134881600Y-91864892D01*
X134887380Y-91806207D01*
X134903774Y-91752163D01*
X134930390Y-91702367D01*
X134966215Y-91658715D01*
X135009867Y-91622890D01*
X135059663Y-91596274D01*
X135113707Y-91579880D01*
X135172392Y-91574100D01*
X135845608Y-91574100D01*
X135904293Y-91579880D01*
X135904293Y-91579880D01*
G37*
G36*
X133110293Y-91579880D02*
X133164337Y-91596274D01*
X133214133Y-91622890D01*
X133257785Y-91658715D01*
X133293610Y-91702367D01*
X133320226Y-91752163D01*
X133336620Y-91806207D01*
X133342400Y-91864892D01*
X133342400Y-92638108D01*
X133336620Y-92696793D01*
X133320226Y-92750837D01*
X133293610Y-92800633D01*
X133257785Y-92844285D01*
X133214133Y-92880110D01*
X133164337Y-92906726D01*
X133110293Y-92923120D01*
X133051608Y-92928900D01*
X132378392Y-92928900D01*
X132319707Y-92923120D01*
X132265663Y-92906726D01*
X132215867Y-92880110D01*
X132172215Y-92844285D01*
X132136390Y-92800633D01*
X132109774Y-92750837D01*
X132093380Y-92696793D01*
X132087600Y-92638108D01*
X132087600Y-91864892D01*
X132093380Y-91806207D01*
X132109774Y-91752163D01*
X132136390Y-91702367D01*
X132172215Y-91658715D01*
X132215867Y-91622890D01*
X132265663Y-91596274D01*
X132319707Y-91579880D01*
X132378392Y-91574100D01*
X133051608Y-91574100D01*
X133110293Y-91579880D01*
X133110293Y-91579880D01*
G37*
G36*
X128221293Y-91262880D02*
X128275337Y-91279274D01*
X128325133Y-91305890D01*
X128368785Y-91341715D01*
X128404610Y-91385367D01*
X128431226Y-91435163D01*
X128447620Y-91489207D01*
X128453400Y-91547892D01*
X128453400Y-92221108D01*
X128447620Y-92279793D01*
X128431226Y-92333837D01*
X128404610Y-92383633D01*
X128368785Y-92427285D01*
X128325133Y-92463110D01*
X128275337Y-92489726D01*
X128221293Y-92506120D01*
X128162608Y-92511900D01*
X127389392Y-92511900D01*
X127330707Y-92506120D01*
X127276663Y-92489726D01*
X127226867Y-92463110D01*
X127183215Y-92427285D01*
X127147390Y-92383633D01*
X127120774Y-92333837D01*
X127104380Y-92279793D01*
X127098600Y-92221108D01*
X127098600Y-91547892D01*
X127104380Y-91489207D01*
X127120774Y-91435163D01*
X127147390Y-91385367D01*
X127183215Y-91341715D01*
X127226867Y-91305890D01*
X127276663Y-91279274D01*
X127330707Y-91262880D01*
X127389392Y-91257100D01*
X128162608Y-91257100D01*
X128221293Y-91262880D01*
X128221293Y-91262880D01*
G37*
G36*
X129971293Y-91262880D02*
X130025337Y-91279274D01*
X130075133Y-91305890D01*
X130118785Y-91341715D01*
X130154610Y-91385367D01*
X130181226Y-91435163D01*
X130197620Y-91489207D01*
X130203400Y-91547892D01*
X130203400Y-92221108D01*
X130197620Y-92279793D01*
X130181226Y-92333837D01*
X130154610Y-92383633D01*
X130118785Y-92427285D01*
X130075133Y-92463110D01*
X130025337Y-92489726D01*
X129971293Y-92506120D01*
X129912608Y-92511900D01*
X129139392Y-92511900D01*
X129080707Y-92506120D01*
X129026663Y-92489726D01*
X128976867Y-92463110D01*
X128933215Y-92427285D01*
X128897390Y-92383633D01*
X128870774Y-92333837D01*
X128854380Y-92279793D01*
X128848600Y-92221108D01*
X128848600Y-91547892D01*
X128854380Y-91489207D01*
X128870774Y-91435163D01*
X128897390Y-91385367D01*
X128933215Y-91341715D01*
X128976867Y-91305890D01*
X129026663Y-91279274D01*
X129080707Y-91262880D01*
X129139392Y-91257100D01*
X129912608Y-91257100D01*
X129971293Y-91262880D01*
X129971293Y-91262880D01*
G37*
G36*
X139905293Y-90627880D02*
X139959337Y-90644274D01*
X140009133Y-90670890D01*
X140052785Y-90706715D01*
X140088610Y-90750367D01*
X140115226Y-90800163D01*
X140131620Y-90854207D01*
X140137400Y-90912892D01*
X140137400Y-91586108D01*
X140131620Y-91644793D01*
X140115226Y-91698837D01*
X140088610Y-91748633D01*
X140052785Y-91792285D01*
X140009133Y-91828110D01*
X139959337Y-91854726D01*
X139905293Y-91871120D01*
X139846608Y-91876900D01*
X139073392Y-91876900D01*
X139014707Y-91871120D01*
X138960663Y-91854726D01*
X138910867Y-91828110D01*
X138867215Y-91792285D01*
X138831390Y-91748633D01*
X138804774Y-91698837D01*
X138788380Y-91644793D01*
X138782600Y-91586108D01*
X138782600Y-90912892D01*
X138788380Y-90854207D01*
X138804774Y-90800163D01*
X138831390Y-90750367D01*
X138867215Y-90706715D01*
X138910867Y-90670890D01*
X138960663Y-90644274D01*
X139014707Y-90627880D01*
X139073392Y-90622100D01*
X139846608Y-90622100D01*
X139905293Y-90627880D01*
X139905293Y-90627880D01*
G37*
G36*
X141655293Y-90627880D02*
X141709337Y-90644274D01*
X141759133Y-90670890D01*
X141802785Y-90706715D01*
X141838610Y-90750367D01*
X141865226Y-90800163D01*
X141881620Y-90854207D01*
X141887400Y-90912892D01*
X141887400Y-91586108D01*
X141881620Y-91644793D01*
X141865226Y-91698837D01*
X141838610Y-91748633D01*
X141802785Y-91792285D01*
X141759133Y-91828110D01*
X141709337Y-91854726D01*
X141655293Y-91871120D01*
X141596608Y-91876900D01*
X140823392Y-91876900D01*
X140764707Y-91871120D01*
X140710663Y-91854726D01*
X140660867Y-91828110D01*
X140617215Y-91792285D01*
X140581390Y-91748633D01*
X140554774Y-91698837D01*
X140538380Y-91644793D01*
X140532600Y-91586108D01*
X140532600Y-90912892D01*
X140538380Y-90854207D01*
X140554774Y-90800163D01*
X140581390Y-90750367D01*
X140617215Y-90706715D01*
X140660867Y-90670890D01*
X140710663Y-90644274D01*
X140764707Y-90627880D01*
X140823392Y-90622100D01*
X141596608Y-90622100D01*
X141655293Y-90627880D01*
X141655293Y-90627880D01*
G37*
G36*
X119938187Y-90426454D02*
X120047030Y-90459471D01*
X120147340Y-90513088D01*
X120235258Y-90585242D01*
X120285731Y-90646742D01*
X120292773Y-90653784D01*
X120301053Y-90659317D01*
X120310254Y-90663128D01*
X120320021Y-90665070D01*
X120329980Y-90665070D01*
X120339747Y-90663127D01*
X120348947Y-90659316D01*
X120357227Y-90653784D01*
X120364269Y-90646742D01*
X120414742Y-90585242D01*
X120502660Y-90513088D01*
X120602970Y-90459471D01*
X120711813Y-90426454D01*
X120796635Y-90418100D01*
X120853365Y-90418100D01*
X120938187Y-90426454D01*
X121047030Y-90459471D01*
X121147340Y-90513088D01*
X121235258Y-90585242D01*
X121285731Y-90646742D01*
X121292773Y-90653784D01*
X121301053Y-90659317D01*
X121310254Y-90663128D01*
X121320021Y-90665070D01*
X121329980Y-90665070D01*
X121339747Y-90663127D01*
X121348947Y-90659316D01*
X121357227Y-90653784D01*
X121364269Y-90646742D01*
X121414742Y-90585242D01*
X121502660Y-90513088D01*
X121602970Y-90459471D01*
X121711813Y-90426454D01*
X121796635Y-90418100D01*
X121853365Y-90418100D01*
X121938187Y-90426454D01*
X122047030Y-90459471D01*
X122147340Y-90513088D01*
X122235258Y-90585242D01*
X122285731Y-90646742D01*
X122292773Y-90653784D01*
X122301053Y-90659317D01*
X122310254Y-90663128D01*
X122320021Y-90665070D01*
X122329980Y-90665070D01*
X122339747Y-90663127D01*
X122348947Y-90659316D01*
X122357227Y-90653784D01*
X122364269Y-90646742D01*
X122414742Y-90585242D01*
X122502660Y-90513088D01*
X122602970Y-90459471D01*
X122711813Y-90426454D01*
X122796635Y-90418100D01*
X122853365Y-90418100D01*
X122938187Y-90426454D01*
X123047030Y-90459471D01*
X123147340Y-90513088D01*
X123164573Y-90527231D01*
X123172853Y-90532764D01*
X123182053Y-90536575D01*
X123191821Y-90538517D01*
X123201779Y-90538517D01*
X123211546Y-90536575D01*
X123220747Y-90532764D01*
X123229027Y-90527231D01*
X123236069Y-90520189D01*
X123241602Y-90511909D01*
X123245413Y-90502709D01*
X123247355Y-90492941D01*
X123247600Y-90487962D01*
X123247600Y-90418100D01*
X124402400Y-90418100D01*
X124402400Y-91572900D01*
X123247600Y-91572900D01*
X123247600Y-91503038D01*
X123246624Y-91493127D01*
X123243733Y-91483598D01*
X123239039Y-91474815D01*
X123232721Y-91467117D01*
X123225023Y-91460799D01*
X123216240Y-91456105D01*
X123206711Y-91453214D01*
X123196800Y-91452238D01*
X123186889Y-91453214D01*
X123177360Y-91456105D01*
X123168577Y-91460799D01*
X123164573Y-91463769D01*
X123147340Y-91477912D01*
X123047030Y-91531529D01*
X122938187Y-91564546D01*
X122853365Y-91572900D01*
X122796635Y-91572900D01*
X122711813Y-91564546D01*
X122602970Y-91531529D01*
X122502660Y-91477912D01*
X122414742Y-91405758D01*
X122364269Y-91344258D01*
X122357227Y-91337216D01*
X122348947Y-91331683D01*
X122339746Y-91327872D01*
X122329979Y-91325930D01*
X122320020Y-91325930D01*
X122310253Y-91327873D01*
X122301053Y-91331684D01*
X122292773Y-91337216D01*
X122285731Y-91344258D01*
X122235258Y-91405758D01*
X122147340Y-91477912D01*
X122047030Y-91531529D01*
X121938187Y-91564546D01*
X121853365Y-91572900D01*
X121796635Y-91572900D01*
X121711813Y-91564546D01*
X121602970Y-91531529D01*
X121502660Y-91477912D01*
X121414742Y-91405758D01*
X121364269Y-91344258D01*
X121357227Y-91337216D01*
X121348947Y-91331683D01*
X121339746Y-91327872D01*
X121329979Y-91325930D01*
X121320020Y-91325930D01*
X121310253Y-91327873D01*
X121301053Y-91331684D01*
X121292773Y-91337216D01*
X121285731Y-91344258D01*
X121235258Y-91405758D01*
X121147340Y-91477912D01*
X121047030Y-91531529D01*
X120938187Y-91564546D01*
X120853365Y-91572900D01*
X120796635Y-91572900D01*
X120711813Y-91564546D01*
X120602970Y-91531529D01*
X120502660Y-91477912D01*
X120414742Y-91405758D01*
X120364269Y-91344258D01*
X120357227Y-91337216D01*
X120348947Y-91331683D01*
X120339746Y-91327872D01*
X120329979Y-91325930D01*
X120320020Y-91325930D01*
X120310253Y-91327873D01*
X120301053Y-91331684D01*
X120292773Y-91337216D01*
X120285731Y-91344258D01*
X120235258Y-91405758D01*
X120147340Y-91477912D01*
X120047030Y-91531529D01*
X119938187Y-91564546D01*
X119853365Y-91572900D01*
X119796635Y-91572900D01*
X119711813Y-91564546D01*
X119602970Y-91531529D01*
X119502660Y-91477912D01*
X119414742Y-91405758D01*
X119342588Y-91317840D01*
X119288971Y-91217530D01*
X119255954Y-91108687D01*
X119244806Y-90995500D01*
X119255954Y-90882313D01*
X119288971Y-90773470D01*
X119342588Y-90673160D01*
X119414742Y-90585242D01*
X119502660Y-90513088D01*
X119602970Y-90459471D01*
X119711813Y-90426454D01*
X119796635Y-90418100D01*
X119853365Y-90418100D01*
X119938187Y-90426454D01*
X119938187Y-90426454D01*
G37*
G36*
X135904293Y-89829880D02*
X135958337Y-89846274D01*
X136008133Y-89872890D01*
X136051785Y-89908715D01*
X136087610Y-89952367D01*
X136114226Y-90002163D01*
X136130620Y-90056207D01*
X136136400Y-90114892D01*
X136136400Y-90888108D01*
X136130620Y-90946793D01*
X136114226Y-91000837D01*
X136087610Y-91050633D01*
X136051785Y-91094285D01*
X136008133Y-91130110D01*
X135958337Y-91156726D01*
X135904293Y-91173120D01*
X135845608Y-91178900D01*
X135172392Y-91178900D01*
X135113707Y-91173120D01*
X135059663Y-91156726D01*
X135009867Y-91130110D01*
X134966215Y-91094285D01*
X134930390Y-91050633D01*
X134903774Y-91000837D01*
X134887380Y-90946793D01*
X134881600Y-90888108D01*
X134881600Y-90114892D01*
X134887380Y-90056207D01*
X134903774Y-90002163D01*
X134930390Y-89952367D01*
X134966215Y-89908715D01*
X135009867Y-89872890D01*
X135059663Y-89846274D01*
X135113707Y-89829880D01*
X135172392Y-89824100D01*
X135845608Y-89824100D01*
X135904293Y-89829880D01*
X135904293Y-89829880D01*
G37*
G36*
X133110293Y-89829880D02*
X133164337Y-89846274D01*
X133214133Y-89872890D01*
X133257785Y-89908715D01*
X133293610Y-89952367D01*
X133320226Y-90002163D01*
X133336620Y-90056207D01*
X133342400Y-90114892D01*
X133342400Y-90888108D01*
X133336620Y-90946793D01*
X133320226Y-91000837D01*
X133293610Y-91050633D01*
X133257785Y-91094285D01*
X133214133Y-91130110D01*
X133164337Y-91156726D01*
X133110293Y-91173120D01*
X133051608Y-91178900D01*
X132378392Y-91178900D01*
X132319707Y-91173120D01*
X132265663Y-91156726D01*
X132215867Y-91130110D01*
X132172215Y-91094285D01*
X132136390Y-91050633D01*
X132109774Y-91000837D01*
X132093380Y-90946793D01*
X132087600Y-90888108D01*
X132087600Y-90114892D01*
X132093380Y-90056207D01*
X132109774Y-90002163D01*
X132136390Y-89952367D01*
X132172215Y-89908715D01*
X132215867Y-89872890D01*
X132265663Y-89846274D01*
X132319707Y-89829880D01*
X132378392Y-89824100D01*
X133051608Y-89824100D01*
X133110293Y-89829880D01*
X133110293Y-89829880D01*
G37*
M02*
