G04 #@! TF.GenerationSoftware,KiCad,Pcbnew,(5.0.1)-3*
G04 #@! TF.CreationDate,2019-11-29T17:35:16+05:30*
G04 #@! TF.ProjectId,stm32f070-board,73746D3332663037302D626F6172642E,v1.0*
G04 #@! TF.SameCoordinates,Original*
G04 #@! TF.FileFunction,Soldermask,Bot*
G04 #@! TF.FilePolarity,Negative*
%FSLAX46Y46*%
G04 Gerber Fmt 4.6, Leading zero omitted, Abs format (unit mm)*
G04 Created by KiCad (PCBNEW (5.0.1)-3) date 11/29/19 17:35:16*
%MOMM*%
%LPD*%
G01*
G04 APERTURE LIST*
%ADD10C,0.100000*%
G04 APERTURE END LIST*
D10*
G36*
X119938187Y-90426454D02*
X120047030Y-90459471D01*
X120147340Y-90513088D01*
X120235258Y-90585242D01*
X120285731Y-90646742D01*
X120292773Y-90653784D01*
X120301053Y-90659317D01*
X120310254Y-90663128D01*
X120320021Y-90665070D01*
X120329980Y-90665070D01*
X120339747Y-90663127D01*
X120348947Y-90659316D01*
X120357227Y-90653784D01*
X120364269Y-90646742D01*
X120414742Y-90585242D01*
X120502660Y-90513088D01*
X120602970Y-90459471D01*
X120711813Y-90426454D01*
X120796635Y-90418100D01*
X120853365Y-90418100D01*
X120938187Y-90426454D01*
X121047030Y-90459471D01*
X121147340Y-90513088D01*
X121235258Y-90585242D01*
X121285731Y-90646742D01*
X121292773Y-90653784D01*
X121301053Y-90659317D01*
X121310254Y-90663128D01*
X121320021Y-90665070D01*
X121329980Y-90665070D01*
X121339747Y-90663127D01*
X121348947Y-90659316D01*
X121357227Y-90653784D01*
X121364269Y-90646742D01*
X121414742Y-90585242D01*
X121502660Y-90513088D01*
X121602970Y-90459471D01*
X121711813Y-90426454D01*
X121796635Y-90418100D01*
X121853365Y-90418100D01*
X121938187Y-90426454D01*
X122047030Y-90459471D01*
X122147340Y-90513088D01*
X122235258Y-90585242D01*
X122285731Y-90646742D01*
X122292773Y-90653784D01*
X122301053Y-90659317D01*
X122310254Y-90663128D01*
X122320021Y-90665070D01*
X122329980Y-90665070D01*
X122339747Y-90663127D01*
X122348947Y-90659316D01*
X122357227Y-90653784D01*
X122364269Y-90646742D01*
X122414742Y-90585242D01*
X122502660Y-90513088D01*
X122602970Y-90459471D01*
X122711813Y-90426454D01*
X122796635Y-90418100D01*
X122853365Y-90418100D01*
X122938187Y-90426454D01*
X123047030Y-90459471D01*
X123147340Y-90513088D01*
X123164573Y-90527231D01*
X123172853Y-90532764D01*
X123182053Y-90536575D01*
X123191821Y-90538517D01*
X123201779Y-90538517D01*
X123211546Y-90536575D01*
X123220747Y-90532764D01*
X123229027Y-90527231D01*
X123236069Y-90520189D01*
X123241602Y-90511909D01*
X123245413Y-90502709D01*
X123247355Y-90492941D01*
X123247600Y-90487962D01*
X123247600Y-90418100D01*
X124402400Y-90418100D01*
X124402400Y-91572900D01*
X123247600Y-91572900D01*
X123247600Y-91503038D01*
X123246624Y-91493127D01*
X123243733Y-91483598D01*
X123239039Y-91474815D01*
X123232721Y-91467117D01*
X123225023Y-91460799D01*
X123216240Y-91456105D01*
X123206711Y-91453214D01*
X123196800Y-91452238D01*
X123186889Y-91453214D01*
X123177360Y-91456105D01*
X123168577Y-91460799D01*
X123164573Y-91463769D01*
X123147340Y-91477912D01*
X123047030Y-91531529D01*
X122938187Y-91564546D01*
X122853365Y-91572900D01*
X122796635Y-91572900D01*
X122711813Y-91564546D01*
X122602970Y-91531529D01*
X122502660Y-91477912D01*
X122414742Y-91405758D01*
X122364269Y-91344258D01*
X122357227Y-91337216D01*
X122348947Y-91331683D01*
X122339746Y-91327872D01*
X122329979Y-91325930D01*
X122320020Y-91325930D01*
X122310253Y-91327873D01*
X122301053Y-91331684D01*
X122292773Y-91337216D01*
X122285731Y-91344258D01*
X122235258Y-91405758D01*
X122147340Y-91477912D01*
X122047030Y-91531529D01*
X121938187Y-91564546D01*
X121853365Y-91572900D01*
X121796635Y-91572900D01*
X121711813Y-91564546D01*
X121602970Y-91531529D01*
X121502660Y-91477912D01*
X121414742Y-91405758D01*
X121364269Y-91344258D01*
X121357227Y-91337216D01*
X121348947Y-91331683D01*
X121339746Y-91327872D01*
X121329979Y-91325930D01*
X121320020Y-91325930D01*
X121310253Y-91327873D01*
X121301053Y-91331684D01*
X121292773Y-91337216D01*
X121285731Y-91344258D01*
X121235258Y-91405758D01*
X121147340Y-91477912D01*
X121047030Y-91531529D01*
X120938187Y-91564546D01*
X120853365Y-91572900D01*
X120796635Y-91572900D01*
X120711813Y-91564546D01*
X120602970Y-91531529D01*
X120502660Y-91477912D01*
X120414742Y-91405758D01*
X120364269Y-91344258D01*
X120357227Y-91337216D01*
X120348947Y-91331683D01*
X120339746Y-91327872D01*
X120329979Y-91325930D01*
X120320020Y-91325930D01*
X120310253Y-91327873D01*
X120301053Y-91331684D01*
X120292773Y-91337216D01*
X120285731Y-91344258D01*
X120235258Y-91405758D01*
X120147340Y-91477912D01*
X120047030Y-91531529D01*
X119938187Y-91564546D01*
X119853365Y-91572900D01*
X119796635Y-91572900D01*
X119711813Y-91564546D01*
X119602970Y-91531529D01*
X119502660Y-91477912D01*
X119414742Y-91405758D01*
X119342588Y-91317840D01*
X119288971Y-91217530D01*
X119255954Y-91108687D01*
X119244806Y-90995500D01*
X119255954Y-90882313D01*
X119288971Y-90773470D01*
X119342588Y-90673160D01*
X119414742Y-90585242D01*
X119502660Y-90513088D01*
X119602970Y-90459471D01*
X119711813Y-90426454D01*
X119796635Y-90418100D01*
X119853365Y-90418100D01*
X119938187Y-90426454D01*
X119938187Y-90426454D01*
G37*
M02*
