G04 #@! TF.GenerationSoftware,KiCad,Pcbnew,(5.0.1)-3*
G04 #@! TF.CreationDate,2019-11-29T17:18:29+05:30*
G04 #@! TF.ProjectId,stm32f070-board,73746D3332663037302D626F6172642E,v1.0*
G04 #@! TF.SameCoordinates,Original*
G04 #@! TF.FileFunction,Legend,Bot*
G04 #@! TF.FilePolarity,Positive*
%FSLAX46Y46*%
G04 Gerber Fmt 4.6, Leading zero omitted, Abs format (unit mm)*
G04 Created by KiCad (PCBNEW (5.0.1)-3) date 11/29/19 17:18:29*
%MOMM*%
%LPD*%
G01*
G04 APERTURE LIST*
%ADD10C,0.300000*%
G04 APERTURE END LIST*
D10*
X152863428Y-91534142D02*
X152649142Y-91605571D01*
X152291999Y-91605571D01*
X152149142Y-91534142D01*
X152077714Y-91462714D01*
X152006285Y-91319857D01*
X152006285Y-91177000D01*
X152077714Y-91034142D01*
X152149142Y-90962714D01*
X152291999Y-90891285D01*
X152577714Y-90819857D01*
X152720571Y-90748428D01*
X152791999Y-90677000D01*
X152863428Y-90534142D01*
X152863428Y-90391285D01*
X152791999Y-90248428D01*
X152720571Y-90177000D01*
X152577714Y-90105571D01*
X152220571Y-90105571D01*
X152006285Y-90177000D01*
X150720571Y-90605571D02*
X150720571Y-91605571D01*
X151363428Y-90605571D02*
X151363428Y-91391285D01*
X151291999Y-91534142D01*
X151149142Y-91605571D01*
X150934857Y-91605571D01*
X150791999Y-91534142D01*
X150720571Y-91462714D01*
X150149142Y-90605571D02*
X149791999Y-91605571D01*
X149434857Y-90605571D02*
X149791999Y-91605571D01*
X149934857Y-91962714D01*
X150006285Y-92034142D01*
X150149142Y-92105571D01*
X148220571Y-91605571D02*
X148220571Y-90819857D01*
X148291999Y-90677000D01*
X148434857Y-90605571D01*
X148720571Y-90605571D01*
X148863428Y-90677000D01*
X148220571Y-91534142D02*
X148363428Y-91605571D01*
X148720571Y-91605571D01*
X148863428Y-91534142D01*
X148934857Y-91391285D01*
X148934857Y-91248428D01*
X148863428Y-91105571D01*
X148720571Y-91034142D01*
X148363428Y-91034142D01*
X148220571Y-90962714D01*
X147577714Y-91534142D02*
X147434857Y-91605571D01*
X147149142Y-91605571D01*
X147006285Y-91534142D01*
X146934857Y-91391285D01*
X146934857Y-91319857D01*
X147006285Y-91177000D01*
X147149142Y-91105571D01*
X147363428Y-91105571D01*
X147506285Y-91034142D01*
X147577714Y-90891285D01*
X147577714Y-90819857D01*
X147506285Y-90677000D01*
X147363428Y-90605571D01*
X147149142Y-90605571D01*
X147006285Y-90677000D01*
X146291999Y-91605571D02*
X146291999Y-90105571D01*
X145649142Y-91605571D02*
X145649142Y-90819857D01*
X145720571Y-90677000D01*
X145863428Y-90605571D01*
X146077714Y-90605571D01*
X146220571Y-90677000D01*
X146291999Y-90748428D01*
X143863428Y-91534142D02*
X143649142Y-91605571D01*
X143291999Y-91605571D01*
X143149142Y-91534142D01*
X143077714Y-91462714D01*
X143006285Y-91319857D01*
X143006285Y-91177000D01*
X143077714Y-91034142D01*
X143149142Y-90962714D01*
X143291999Y-90891285D01*
X143577714Y-90819857D01*
X143720571Y-90748428D01*
X143791999Y-90677000D01*
X143863428Y-90534142D01*
X143863428Y-90391285D01*
X143791999Y-90248428D01*
X143720571Y-90177000D01*
X143577714Y-90105571D01*
X143220571Y-90105571D01*
X143006285Y-90177000D01*
X142363428Y-91605571D02*
X142363428Y-90605571D01*
X142363428Y-90105571D02*
X142434857Y-90177000D01*
X142363428Y-90248428D01*
X142291999Y-90177000D01*
X142363428Y-90105571D01*
X142363428Y-90248428D01*
X141649142Y-90605571D02*
X141649142Y-91605571D01*
X141649142Y-90748428D02*
X141577714Y-90677000D01*
X141434857Y-90605571D01*
X141220571Y-90605571D01*
X141077714Y-90677000D01*
X141006285Y-90819857D01*
X141006285Y-91605571D01*
X139649142Y-90605571D02*
X139649142Y-91819857D01*
X139720571Y-91962714D01*
X139791999Y-92034142D01*
X139934857Y-92105571D01*
X140149142Y-92105571D01*
X140291999Y-92034142D01*
X139649142Y-91534142D02*
X139791999Y-91605571D01*
X140077714Y-91605571D01*
X140220571Y-91534142D01*
X140291999Y-91462714D01*
X140363428Y-91319857D01*
X140363428Y-90891285D01*
X140291999Y-90748428D01*
X140220571Y-90677000D01*
X140077714Y-90605571D01*
X139791999Y-90605571D01*
X139649142Y-90677000D01*
X138934857Y-91605571D02*
X138934857Y-90105571D01*
X138291999Y-91605571D02*
X138291999Y-90819857D01*
X138363428Y-90677000D01*
X138506285Y-90605571D01*
X138720571Y-90605571D01*
X138863428Y-90677000D01*
X138934857Y-90748428D01*
X162791999Y-94155571D02*
X162791999Y-92655571D01*
X162149142Y-94155571D02*
X162149142Y-93369857D01*
X162220571Y-93227000D01*
X162363428Y-93155571D01*
X162577714Y-93155571D01*
X162720571Y-93227000D01*
X162791999Y-93298428D01*
X161649142Y-93155571D02*
X161077714Y-93155571D01*
X161434857Y-92655571D02*
X161434857Y-93941285D01*
X161363428Y-94084142D01*
X161220571Y-94155571D01*
X161077714Y-94155571D01*
X160791999Y-93155571D02*
X160220571Y-93155571D01*
X160577714Y-92655571D02*
X160577714Y-93941285D01*
X160506285Y-94084142D01*
X160363428Y-94155571D01*
X160220571Y-94155571D01*
X159720571Y-93155571D02*
X159720571Y-94655571D01*
X159720571Y-93227000D02*
X159577714Y-93155571D01*
X159291999Y-93155571D01*
X159149142Y-93227000D01*
X159077714Y-93298428D01*
X159006285Y-93441285D01*
X159006285Y-93869857D01*
X159077714Y-94012714D01*
X159149142Y-94084142D01*
X159291999Y-94155571D01*
X159577714Y-94155571D01*
X159720571Y-94084142D01*
X158434857Y-94084142D02*
X158291999Y-94155571D01*
X158006285Y-94155571D01*
X157863428Y-94084142D01*
X157791999Y-93941285D01*
X157791999Y-93869857D01*
X157863428Y-93727000D01*
X158006285Y-93655571D01*
X158220571Y-93655571D01*
X158363428Y-93584142D01*
X158434857Y-93441285D01*
X158434857Y-93369857D01*
X158363428Y-93227000D01*
X158220571Y-93155571D01*
X158006285Y-93155571D01*
X157863428Y-93227000D01*
X157149142Y-94012714D02*
X157077714Y-94084142D01*
X157149142Y-94155571D01*
X157220571Y-94084142D01*
X157149142Y-94012714D01*
X157149142Y-94155571D01*
X157149142Y-93227000D02*
X157077714Y-93298428D01*
X157149142Y-93369857D01*
X157220571Y-93298428D01*
X157149142Y-93227000D01*
X157149142Y-93369857D01*
X155363428Y-92584142D02*
X156649142Y-94512714D01*
X153791999Y-92584142D02*
X155077714Y-94512714D01*
X153363428Y-94084142D02*
X153220571Y-94155571D01*
X152934857Y-94155571D01*
X152791999Y-94084142D01*
X152720571Y-93941285D01*
X152720571Y-93869857D01*
X152791999Y-93727000D01*
X152934857Y-93655571D01*
X153149142Y-93655571D01*
X153291999Y-93584142D01*
X153363428Y-93441285D01*
X153363428Y-93369857D01*
X153291999Y-93227000D01*
X153149142Y-93155571D01*
X152934857Y-93155571D01*
X152791999Y-93227000D01*
X151434857Y-93155571D02*
X151434857Y-94155571D01*
X152077714Y-93155571D02*
X152077714Y-93941285D01*
X152006285Y-94084142D01*
X151863428Y-94155571D01*
X151649142Y-94155571D01*
X151506285Y-94084142D01*
X151434857Y-94012714D01*
X150863428Y-93155571D02*
X150506285Y-94155571D01*
X150149142Y-93155571D02*
X150506285Y-94155571D01*
X150649142Y-94512714D01*
X150720571Y-94584142D01*
X150863428Y-94655571D01*
X148934857Y-94155571D02*
X148934857Y-93369857D01*
X149006285Y-93227000D01*
X149149142Y-93155571D01*
X149434857Y-93155571D01*
X149577714Y-93227000D01*
X148934857Y-94084142D02*
X149077714Y-94155571D01*
X149434857Y-94155571D01*
X149577714Y-94084142D01*
X149649142Y-93941285D01*
X149649142Y-93798428D01*
X149577714Y-93655571D01*
X149434857Y-93584142D01*
X149077714Y-93584142D01*
X148934857Y-93512714D01*
X148291999Y-94084142D02*
X148149142Y-94155571D01*
X147863428Y-94155571D01*
X147720571Y-94084142D01*
X147649142Y-93941285D01*
X147649142Y-93869857D01*
X147720571Y-93727000D01*
X147863428Y-93655571D01*
X148077714Y-93655571D01*
X148220571Y-93584142D01*
X148291999Y-93441285D01*
X148291999Y-93369857D01*
X148220571Y-93227000D01*
X148077714Y-93155571D01*
X147863428Y-93155571D01*
X147720571Y-93227000D01*
X147006285Y-94155571D02*
X147006285Y-92655571D01*
X146363428Y-94155571D02*
X146363428Y-93369857D01*
X146434857Y-93227000D01*
X146577714Y-93155571D01*
X146791999Y-93155571D01*
X146934857Y-93227000D01*
X147006285Y-93298428D01*
X145720571Y-94084142D02*
X145577714Y-94155571D01*
X145291999Y-94155571D01*
X145149142Y-94084142D01*
X145077714Y-93941285D01*
X145077714Y-93869857D01*
X145149142Y-93727000D01*
X145291999Y-93655571D01*
X145506285Y-93655571D01*
X145649142Y-93584142D01*
X145720571Y-93441285D01*
X145720571Y-93369857D01*
X145649142Y-93227000D01*
X145506285Y-93155571D01*
X145291999Y-93155571D01*
X145149142Y-93227000D01*
X144434857Y-94155571D02*
X144434857Y-93155571D01*
X144434857Y-92655571D02*
X144506285Y-92727000D01*
X144434857Y-92798428D01*
X144363428Y-92727000D01*
X144434857Y-92655571D01*
X144434857Y-92798428D01*
X143720571Y-93155571D02*
X143720571Y-94155571D01*
X143720571Y-93298428D02*
X143649142Y-93227000D01*
X143506285Y-93155571D01*
X143291999Y-93155571D01*
X143149142Y-93227000D01*
X143077714Y-93369857D01*
X143077714Y-94155571D01*
X141720571Y-93155571D02*
X141720571Y-94369857D01*
X141791999Y-94512714D01*
X141863428Y-94584142D01*
X142006285Y-94655571D01*
X142220571Y-94655571D01*
X142363428Y-94584142D01*
X141720571Y-94084142D02*
X141863428Y-94155571D01*
X142149142Y-94155571D01*
X142291999Y-94084142D01*
X142363428Y-94012714D01*
X142434857Y-93869857D01*
X142434857Y-93441285D01*
X142363428Y-93298428D01*
X142291999Y-93227000D01*
X142149142Y-93155571D01*
X141863428Y-93155571D01*
X141720571Y-93227000D01*
X141006285Y-94155571D02*
X141006285Y-92655571D01*
X140363428Y-94155571D02*
X140363428Y-93369857D01*
X140434857Y-93227000D01*
X140577714Y-93155571D01*
X140791999Y-93155571D01*
X140934857Y-93227000D01*
X141006285Y-93298428D01*
X139649142Y-94012714D02*
X139577714Y-94084142D01*
X139649142Y-94155571D01*
X139720571Y-94084142D01*
X139649142Y-94012714D01*
X139649142Y-94155571D01*
X138291999Y-93155571D02*
X138291999Y-94369857D01*
X138363428Y-94512714D01*
X138434857Y-94584142D01*
X138577714Y-94655571D01*
X138791999Y-94655571D01*
X138934857Y-94584142D01*
X138291999Y-94084142D02*
X138434857Y-94155571D01*
X138720571Y-94155571D01*
X138863428Y-94084142D01*
X138934857Y-94012714D01*
X139006285Y-93869857D01*
X139006285Y-93441285D01*
X138934857Y-93298428D01*
X138863428Y-93227000D01*
X138720571Y-93155571D01*
X138434857Y-93155571D01*
X138291999Y-93227000D01*
X137577714Y-94155571D02*
X137577714Y-93155571D01*
X137577714Y-92655571D02*
X137649142Y-92727000D01*
X137577714Y-92798428D01*
X137506285Y-92727000D01*
X137577714Y-92655571D01*
X137577714Y-92798428D01*
X137077714Y-93155571D02*
X136506285Y-93155571D01*
X136863428Y-92655571D02*
X136863428Y-93941285D01*
X136791999Y-94084142D01*
X136649142Y-94155571D01*
X136506285Y-94155571D01*
X136006285Y-94155571D02*
X136006285Y-92655571D01*
X135363428Y-94155571D02*
X135363428Y-93369857D01*
X135434857Y-93227000D01*
X135577714Y-93155571D01*
X135791999Y-93155571D01*
X135934857Y-93227000D01*
X136006285Y-93298428D01*
X134006285Y-93155571D02*
X134006285Y-94155571D01*
X134649142Y-93155571D02*
X134649142Y-93941285D01*
X134577714Y-94084142D01*
X134434857Y-94155571D01*
X134220571Y-94155571D01*
X134077714Y-94084142D01*
X134006285Y-94012714D01*
X133291999Y-94155571D02*
X133291999Y-92655571D01*
X133291999Y-93227000D02*
X133149142Y-93155571D01*
X132863428Y-93155571D01*
X132720571Y-93227000D01*
X132649142Y-93298428D01*
X132577714Y-93441285D01*
X132577714Y-93869857D01*
X132649142Y-94012714D01*
X132720571Y-94084142D01*
X132863428Y-94155571D01*
X133149142Y-94155571D01*
X133291999Y-94084142D01*
X131934857Y-94012714D02*
X131863428Y-94084142D01*
X131934857Y-94155571D01*
X132006285Y-94084142D01*
X131934857Y-94012714D01*
X131934857Y-94155571D01*
X131220571Y-94155571D02*
X131220571Y-93155571D01*
X131220571Y-92655571D02*
X131291999Y-92727000D01*
X131220571Y-92798428D01*
X131149142Y-92727000D01*
X131220571Y-92655571D01*
X131220571Y-92798428D01*
X130291999Y-94155571D02*
X130434857Y-94084142D01*
X130506285Y-94012714D01*
X130577714Y-93869857D01*
X130577714Y-93441285D01*
X130506285Y-93298428D01*
X130434857Y-93227000D01*
X130291999Y-93155571D01*
X130077714Y-93155571D01*
X129934857Y-93227000D01*
X129863428Y-93298428D01*
X129791999Y-93441285D01*
X129791999Y-93869857D01*
X129863428Y-94012714D01*
X129934857Y-94084142D01*
X130077714Y-94155571D01*
X130291999Y-94155571D01*
X128077714Y-92584142D02*
X129363428Y-94512714D01*
M02*
