G04 #@! TF.GenerationSoftware,KiCad,Pcbnew,(5.0.1)-3*
G04 #@! TF.CreationDate,2019-11-29T17:43:28+05:30*
G04 #@! TF.ProjectId,stm32f070-board,73746D3332663037302D626F6172642E,v1.0*
G04 #@! TF.SameCoordinates,Original*
G04 #@! TF.FileFunction,Paste,Top*
G04 #@! TF.FilePolarity,Positive*
%FSLAX46Y46*%
G04 Gerber Fmt 4.6, Leading zero omitted, Abs format (unit mm)*
G04 Created by KiCad (PCBNEW (5.0.1)-3) date 11/29/19 17:43:28*
%MOMM*%
%LPD*%
G01*
G04 APERTURE LIST*
%ADD10C,0.100000*%
%ADD11R,1.500000X0.600000*%
%ADD12R,0.900000X0.800000*%
%ADD13C,0.950000*%
%ADD14R,0.600000X0.800000*%
%ADD15R,0.800000X0.600000*%
%ADD16R,1.600000X0.700000*%
%ADD17R,1.900000X2.375000*%
%ADD18R,1.900000X1.175000*%
%ADD19R,2.100000X1.475000*%
%ADD20R,1.380000X0.450000*%
%ADD21R,1.000000X1.600000*%
%ADD22R,2.110000X1.600000*%
%ADD23R,0.400000X1.350000*%
%ADD24R,0.850000X0.450000*%
%ADD25R,1.600000X2.500000*%
%ADD26R,1.625000X2.365000*%
%ADD27R,0.840000X0.400000*%
%ADD28R,5.600000X2.100000*%
G04 APERTURE END LIST*
D10*
G04 #@! TO.C,VR1*
G36*
X108015000Y-102738500D02*
X109155000Y-102738500D01*
X109155000Y-104398500D01*
X108015000Y-104398500D01*
X108015000Y-102738500D01*
G37*
G04 #@! TD*
D11*
G04 #@! TO.C,U1*
X147287000Y-97091500D03*
X147287000Y-98361500D03*
X147287000Y-99631500D03*
X147287000Y-100901500D03*
X147287000Y-102171500D03*
X147287000Y-103441500D03*
X147287000Y-104711500D03*
X147287000Y-105981500D03*
X152687000Y-105981500D03*
X152687000Y-104711500D03*
X152687000Y-103441500D03*
X152687000Y-102171500D03*
X152687000Y-100901500D03*
X152687000Y-99631500D03*
X152687000Y-98361500D03*
X152687000Y-97091500D03*
G04 #@! TD*
D12*
G04 #@! TO.C,U3*
X134255000Y-100078500D03*
X134255000Y-101978500D03*
X136255000Y-101028500D03*
G04 #@! TD*
D10*
G04 #@! TO.C,C1*
G36*
X128086779Y-92934644D02*
X128109834Y-92938063D01*
X128132443Y-92943727D01*
X128154387Y-92951579D01*
X128175457Y-92961544D01*
X128195448Y-92973526D01*
X128214168Y-92987410D01*
X128231438Y-93003062D01*
X128247090Y-93020332D01*
X128260974Y-93039052D01*
X128272956Y-93059043D01*
X128282921Y-93080113D01*
X128290773Y-93102057D01*
X128296437Y-93124666D01*
X128299856Y-93147721D01*
X128301000Y-93171000D01*
X128301000Y-93646000D01*
X128299856Y-93669279D01*
X128296437Y-93692334D01*
X128290773Y-93714943D01*
X128282921Y-93736887D01*
X128272956Y-93757957D01*
X128260974Y-93777948D01*
X128247090Y-93796668D01*
X128231438Y-93813938D01*
X128214168Y-93829590D01*
X128195448Y-93843474D01*
X128175457Y-93855456D01*
X128154387Y-93865421D01*
X128132443Y-93873273D01*
X128109834Y-93878937D01*
X128086779Y-93882356D01*
X128063500Y-93883500D01*
X127488500Y-93883500D01*
X127465221Y-93882356D01*
X127442166Y-93878937D01*
X127419557Y-93873273D01*
X127397613Y-93865421D01*
X127376543Y-93855456D01*
X127356552Y-93843474D01*
X127337832Y-93829590D01*
X127320562Y-93813938D01*
X127304910Y-93796668D01*
X127291026Y-93777948D01*
X127279044Y-93757957D01*
X127269079Y-93736887D01*
X127261227Y-93714943D01*
X127255563Y-93692334D01*
X127252144Y-93669279D01*
X127251000Y-93646000D01*
X127251000Y-93171000D01*
X127252144Y-93147721D01*
X127255563Y-93124666D01*
X127261227Y-93102057D01*
X127269079Y-93080113D01*
X127279044Y-93059043D01*
X127291026Y-93039052D01*
X127304910Y-93020332D01*
X127320562Y-93003062D01*
X127337832Y-92987410D01*
X127356552Y-92973526D01*
X127376543Y-92961544D01*
X127397613Y-92951579D01*
X127419557Y-92943727D01*
X127442166Y-92938063D01*
X127465221Y-92934644D01*
X127488500Y-92933500D01*
X128063500Y-92933500D01*
X128086779Y-92934644D01*
X128086779Y-92934644D01*
G37*
D13*
X127776000Y-93408500D03*
D10*
G36*
X129836779Y-92934644D02*
X129859834Y-92938063D01*
X129882443Y-92943727D01*
X129904387Y-92951579D01*
X129925457Y-92961544D01*
X129945448Y-92973526D01*
X129964168Y-92987410D01*
X129981438Y-93003062D01*
X129997090Y-93020332D01*
X130010974Y-93039052D01*
X130022956Y-93059043D01*
X130032921Y-93080113D01*
X130040773Y-93102057D01*
X130046437Y-93124666D01*
X130049856Y-93147721D01*
X130051000Y-93171000D01*
X130051000Y-93646000D01*
X130049856Y-93669279D01*
X130046437Y-93692334D01*
X130040773Y-93714943D01*
X130032921Y-93736887D01*
X130022956Y-93757957D01*
X130010974Y-93777948D01*
X129997090Y-93796668D01*
X129981438Y-93813938D01*
X129964168Y-93829590D01*
X129945448Y-93843474D01*
X129925457Y-93855456D01*
X129904387Y-93865421D01*
X129882443Y-93873273D01*
X129859834Y-93878937D01*
X129836779Y-93882356D01*
X129813500Y-93883500D01*
X129238500Y-93883500D01*
X129215221Y-93882356D01*
X129192166Y-93878937D01*
X129169557Y-93873273D01*
X129147613Y-93865421D01*
X129126543Y-93855456D01*
X129106552Y-93843474D01*
X129087832Y-93829590D01*
X129070562Y-93813938D01*
X129054910Y-93796668D01*
X129041026Y-93777948D01*
X129029044Y-93757957D01*
X129019079Y-93736887D01*
X129011227Y-93714943D01*
X129005563Y-93692334D01*
X129002144Y-93669279D01*
X129001000Y-93646000D01*
X129001000Y-93171000D01*
X129002144Y-93147721D01*
X129005563Y-93124666D01*
X129011227Y-93102057D01*
X129019079Y-93080113D01*
X129029044Y-93059043D01*
X129041026Y-93039052D01*
X129054910Y-93020332D01*
X129070562Y-93003062D01*
X129087832Y-92987410D01*
X129106552Y-92973526D01*
X129126543Y-92961544D01*
X129147613Y-92951579D01*
X129169557Y-92943727D01*
X129192166Y-92938063D01*
X129215221Y-92934644D01*
X129238500Y-92933500D01*
X129813500Y-92933500D01*
X129836779Y-92934644D01*
X129836779Y-92934644D01*
G37*
D13*
X129526000Y-93408500D03*
G04 #@! TD*
D10*
G04 #@! TO.C,C2*
G36*
X127324779Y-106142644D02*
X127347834Y-106146063D01*
X127370443Y-106151727D01*
X127392387Y-106159579D01*
X127413457Y-106169544D01*
X127433448Y-106181526D01*
X127452168Y-106195410D01*
X127469438Y-106211062D01*
X127485090Y-106228332D01*
X127498974Y-106247052D01*
X127510956Y-106267043D01*
X127520921Y-106288113D01*
X127528773Y-106310057D01*
X127534437Y-106332666D01*
X127537856Y-106355721D01*
X127539000Y-106379000D01*
X127539000Y-106854000D01*
X127537856Y-106877279D01*
X127534437Y-106900334D01*
X127528773Y-106922943D01*
X127520921Y-106944887D01*
X127510956Y-106965957D01*
X127498974Y-106985948D01*
X127485090Y-107004668D01*
X127469438Y-107021938D01*
X127452168Y-107037590D01*
X127433448Y-107051474D01*
X127413457Y-107063456D01*
X127392387Y-107073421D01*
X127370443Y-107081273D01*
X127347834Y-107086937D01*
X127324779Y-107090356D01*
X127301500Y-107091500D01*
X126726500Y-107091500D01*
X126703221Y-107090356D01*
X126680166Y-107086937D01*
X126657557Y-107081273D01*
X126635613Y-107073421D01*
X126614543Y-107063456D01*
X126594552Y-107051474D01*
X126575832Y-107037590D01*
X126558562Y-107021938D01*
X126542910Y-107004668D01*
X126529026Y-106985948D01*
X126517044Y-106965957D01*
X126507079Y-106944887D01*
X126499227Y-106922943D01*
X126493563Y-106900334D01*
X126490144Y-106877279D01*
X126489000Y-106854000D01*
X126489000Y-106379000D01*
X126490144Y-106355721D01*
X126493563Y-106332666D01*
X126499227Y-106310057D01*
X126507079Y-106288113D01*
X126517044Y-106267043D01*
X126529026Y-106247052D01*
X126542910Y-106228332D01*
X126558562Y-106211062D01*
X126575832Y-106195410D01*
X126594552Y-106181526D01*
X126614543Y-106169544D01*
X126635613Y-106159579D01*
X126657557Y-106151727D01*
X126680166Y-106146063D01*
X126703221Y-106142644D01*
X126726500Y-106141500D01*
X127301500Y-106141500D01*
X127324779Y-106142644D01*
X127324779Y-106142644D01*
G37*
D13*
X127014000Y-106616500D03*
D10*
G36*
X129074779Y-106142644D02*
X129097834Y-106146063D01*
X129120443Y-106151727D01*
X129142387Y-106159579D01*
X129163457Y-106169544D01*
X129183448Y-106181526D01*
X129202168Y-106195410D01*
X129219438Y-106211062D01*
X129235090Y-106228332D01*
X129248974Y-106247052D01*
X129260956Y-106267043D01*
X129270921Y-106288113D01*
X129278773Y-106310057D01*
X129284437Y-106332666D01*
X129287856Y-106355721D01*
X129289000Y-106379000D01*
X129289000Y-106854000D01*
X129287856Y-106877279D01*
X129284437Y-106900334D01*
X129278773Y-106922943D01*
X129270921Y-106944887D01*
X129260956Y-106965957D01*
X129248974Y-106985948D01*
X129235090Y-107004668D01*
X129219438Y-107021938D01*
X129202168Y-107037590D01*
X129183448Y-107051474D01*
X129163457Y-107063456D01*
X129142387Y-107073421D01*
X129120443Y-107081273D01*
X129097834Y-107086937D01*
X129074779Y-107090356D01*
X129051500Y-107091500D01*
X128476500Y-107091500D01*
X128453221Y-107090356D01*
X128430166Y-107086937D01*
X128407557Y-107081273D01*
X128385613Y-107073421D01*
X128364543Y-107063456D01*
X128344552Y-107051474D01*
X128325832Y-107037590D01*
X128308562Y-107021938D01*
X128292910Y-107004668D01*
X128279026Y-106985948D01*
X128267044Y-106965957D01*
X128257079Y-106944887D01*
X128249227Y-106922943D01*
X128243563Y-106900334D01*
X128240144Y-106877279D01*
X128239000Y-106854000D01*
X128239000Y-106379000D01*
X128240144Y-106355721D01*
X128243563Y-106332666D01*
X128249227Y-106310057D01*
X128257079Y-106288113D01*
X128267044Y-106267043D01*
X128279026Y-106247052D01*
X128292910Y-106228332D01*
X128308562Y-106211062D01*
X128325832Y-106195410D01*
X128344552Y-106181526D01*
X128364543Y-106169544D01*
X128385613Y-106159579D01*
X128407557Y-106151727D01*
X128430166Y-106146063D01*
X128453221Y-106142644D01*
X128476500Y-106141500D01*
X129051500Y-106141500D01*
X129074779Y-106142644D01*
X129074779Y-106142644D01*
G37*
D13*
X128764000Y-106616500D03*
G04 #@! TD*
D10*
G04 #@! TO.C,C3*
G36*
X129836779Y-91410644D02*
X129859834Y-91414063D01*
X129882443Y-91419727D01*
X129904387Y-91427579D01*
X129925457Y-91437544D01*
X129945448Y-91449526D01*
X129964168Y-91463410D01*
X129981438Y-91479062D01*
X129997090Y-91496332D01*
X130010974Y-91515052D01*
X130022956Y-91535043D01*
X130032921Y-91556113D01*
X130040773Y-91578057D01*
X130046437Y-91600666D01*
X130049856Y-91623721D01*
X130051000Y-91647000D01*
X130051000Y-92122000D01*
X130049856Y-92145279D01*
X130046437Y-92168334D01*
X130040773Y-92190943D01*
X130032921Y-92212887D01*
X130022956Y-92233957D01*
X130010974Y-92253948D01*
X129997090Y-92272668D01*
X129981438Y-92289938D01*
X129964168Y-92305590D01*
X129945448Y-92319474D01*
X129925457Y-92331456D01*
X129904387Y-92341421D01*
X129882443Y-92349273D01*
X129859834Y-92354937D01*
X129836779Y-92358356D01*
X129813500Y-92359500D01*
X129238500Y-92359500D01*
X129215221Y-92358356D01*
X129192166Y-92354937D01*
X129169557Y-92349273D01*
X129147613Y-92341421D01*
X129126543Y-92331456D01*
X129106552Y-92319474D01*
X129087832Y-92305590D01*
X129070562Y-92289938D01*
X129054910Y-92272668D01*
X129041026Y-92253948D01*
X129029044Y-92233957D01*
X129019079Y-92212887D01*
X129011227Y-92190943D01*
X129005563Y-92168334D01*
X129002144Y-92145279D01*
X129001000Y-92122000D01*
X129001000Y-91647000D01*
X129002144Y-91623721D01*
X129005563Y-91600666D01*
X129011227Y-91578057D01*
X129019079Y-91556113D01*
X129029044Y-91535043D01*
X129041026Y-91515052D01*
X129054910Y-91496332D01*
X129070562Y-91479062D01*
X129087832Y-91463410D01*
X129106552Y-91449526D01*
X129126543Y-91437544D01*
X129147613Y-91427579D01*
X129169557Y-91419727D01*
X129192166Y-91414063D01*
X129215221Y-91410644D01*
X129238500Y-91409500D01*
X129813500Y-91409500D01*
X129836779Y-91410644D01*
X129836779Y-91410644D01*
G37*
D13*
X129526000Y-91884500D03*
D10*
G36*
X128086779Y-91410644D02*
X128109834Y-91414063D01*
X128132443Y-91419727D01*
X128154387Y-91427579D01*
X128175457Y-91437544D01*
X128195448Y-91449526D01*
X128214168Y-91463410D01*
X128231438Y-91479062D01*
X128247090Y-91496332D01*
X128260974Y-91515052D01*
X128272956Y-91535043D01*
X128282921Y-91556113D01*
X128290773Y-91578057D01*
X128296437Y-91600666D01*
X128299856Y-91623721D01*
X128301000Y-91647000D01*
X128301000Y-92122000D01*
X128299856Y-92145279D01*
X128296437Y-92168334D01*
X128290773Y-92190943D01*
X128282921Y-92212887D01*
X128272956Y-92233957D01*
X128260974Y-92253948D01*
X128247090Y-92272668D01*
X128231438Y-92289938D01*
X128214168Y-92305590D01*
X128195448Y-92319474D01*
X128175457Y-92331456D01*
X128154387Y-92341421D01*
X128132443Y-92349273D01*
X128109834Y-92354937D01*
X128086779Y-92358356D01*
X128063500Y-92359500D01*
X127488500Y-92359500D01*
X127465221Y-92358356D01*
X127442166Y-92354937D01*
X127419557Y-92349273D01*
X127397613Y-92341421D01*
X127376543Y-92331456D01*
X127356552Y-92319474D01*
X127337832Y-92305590D01*
X127320562Y-92289938D01*
X127304910Y-92272668D01*
X127291026Y-92253948D01*
X127279044Y-92233957D01*
X127269079Y-92212887D01*
X127261227Y-92190943D01*
X127255563Y-92168334D01*
X127252144Y-92145279D01*
X127251000Y-92122000D01*
X127251000Y-91647000D01*
X127252144Y-91623721D01*
X127255563Y-91600666D01*
X127261227Y-91578057D01*
X127269079Y-91556113D01*
X127279044Y-91535043D01*
X127291026Y-91515052D01*
X127304910Y-91496332D01*
X127320562Y-91479062D01*
X127337832Y-91463410D01*
X127356552Y-91449526D01*
X127376543Y-91437544D01*
X127397613Y-91427579D01*
X127419557Y-91419727D01*
X127442166Y-91414063D01*
X127465221Y-91410644D01*
X127488500Y-91409500D01*
X128063500Y-91409500D01*
X128086779Y-91410644D01*
X128086779Y-91410644D01*
G37*
D13*
X127776000Y-91884500D03*
G04 #@! TD*
D10*
G04 #@! TO.C,C4*
G36*
X129074779Y-107666644D02*
X129097834Y-107670063D01*
X129120443Y-107675727D01*
X129142387Y-107683579D01*
X129163457Y-107693544D01*
X129183448Y-107705526D01*
X129202168Y-107719410D01*
X129219438Y-107735062D01*
X129235090Y-107752332D01*
X129248974Y-107771052D01*
X129260956Y-107791043D01*
X129270921Y-107812113D01*
X129278773Y-107834057D01*
X129284437Y-107856666D01*
X129287856Y-107879721D01*
X129289000Y-107903000D01*
X129289000Y-108378000D01*
X129287856Y-108401279D01*
X129284437Y-108424334D01*
X129278773Y-108446943D01*
X129270921Y-108468887D01*
X129260956Y-108489957D01*
X129248974Y-108509948D01*
X129235090Y-108528668D01*
X129219438Y-108545938D01*
X129202168Y-108561590D01*
X129183448Y-108575474D01*
X129163457Y-108587456D01*
X129142387Y-108597421D01*
X129120443Y-108605273D01*
X129097834Y-108610937D01*
X129074779Y-108614356D01*
X129051500Y-108615500D01*
X128476500Y-108615500D01*
X128453221Y-108614356D01*
X128430166Y-108610937D01*
X128407557Y-108605273D01*
X128385613Y-108597421D01*
X128364543Y-108587456D01*
X128344552Y-108575474D01*
X128325832Y-108561590D01*
X128308562Y-108545938D01*
X128292910Y-108528668D01*
X128279026Y-108509948D01*
X128267044Y-108489957D01*
X128257079Y-108468887D01*
X128249227Y-108446943D01*
X128243563Y-108424334D01*
X128240144Y-108401279D01*
X128239000Y-108378000D01*
X128239000Y-107903000D01*
X128240144Y-107879721D01*
X128243563Y-107856666D01*
X128249227Y-107834057D01*
X128257079Y-107812113D01*
X128267044Y-107791043D01*
X128279026Y-107771052D01*
X128292910Y-107752332D01*
X128308562Y-107735062D01*
X128325832Y-107719410D01*
X128344552Y-107705526D01*
X128364543Y-107693544D01*
X128385613Y-107683579D01*
X128407557Y-107675727D01*
X128430166Y-107670063D01*
X128453221Y-107666644D01*
X128476500Y-107665500D01*
X129051500Y-107665500D01*
X129074779Y-107666644D01*
X129074779Y-107666644D01*
G37*
D13*
X128764000Y-108140500D03*
D10*
G36*
X127324779Y-107666644D02*
X127347834Y-107670063D01*
X127370443Y-107675727D01*
X127392387Y-107683579D01*
X127413457Y-107693544D01*
X127433448Y-107705526D01*
X127452168Y-107719410D01*
X127469438Y-107735062D01*
X127485090Y-107752332D01*
X127498974Y-107771052D01*
X127510956Y-107791043D01*
X127520921Y-107812113D01*
X127528773Y-107834057D01*
X127534437Y-107856666D01*
X127537856Y-107879721D01*
X127539000Y-107903000D01*
X127539000Y-108378000D01*
X127537856Y-108401279D01*
X127534437Y-108424334D01*
X127528773Y-108446943D01*
X127520921Y-108468887D01*
X127510956Y-108489957D01*
X127498974Y-108509948D01*
X127485090Y-108528668D01*
X127469438Y-108545938D01*
X127452168Y-108561590D01*
X127433448Y-108575474D01*
X127413457Y-108587456D01*
X127392387Y-108597421D01*
X127370443Y-108605273D01*
X127347834Y-108610937D01*
X127324779Y-108614356D01*
X127301500Y-108615500D01*
X126726500Y-108615500D01*
X126703221Y-108614356D01*
X126680166Y-108610937D01*
X126657557Y-108605273D01*
X126635613Y-108597421D01*
X126614543Y-108587456D01*
X126594552Y-108575474D01*
X126575832Y-108561590D01*
X126558562Y-108545938D01*
X126542910Y-108528668D01*
X126529026Y-108509948D01*
X126517044Y-108489957D01*
X126507079Y-108468887D01*
X126499227Y-108446943D01*
X126493563Y-108424334D01*
X126490144Y-108401279D01*
X126489000Y-108378000D01*
X126489000Y-107903000D01*
X126490144Y-107879721D01*
X126493563Y-107856666D01*
X126499227Y-107834057D01*
X126507079Y-107812113D01*
X126517044Y-107791043D01*
X126529026Y-107771052D01*
X126542910Y-107752332D01*
X126558562Y-107735062D01*
X126575832Y-107719410D01*
X126594552Y-107705526D01*
X126614543Y-107693544D01*
X126635613Y-107683579D01*
X126657557Y-107675727D01*
X126680166Y-107670063D01*
X126703221Y-107666644D01*
X126726500Y-107665500D01*
X127301500Y-107665500D01*
X127324779Y-107666644D01*
X127324779Y-107666644D01*
G37*
D13*
X127014000Y-108140500D03*
G04 #@! TD*
D10*
G04 #@! TO.C,C5*
G36*
X128086779Y-94458644D02*
X128109834Y-94462063D01*
X128132443Y-94467727D01*
X128154387Y-94475579D01*
X128175457Y-94485544D01*
X128195448Y-94497526D01*
X128214168Y-94511410D01*
X128231438Y-94527062D01*
X128247090Y-94544332D01*
X128260974Y-94563052D01*
X128272956Y-94583043D01*
X128282921Y-94604113D01*
X128290773Y-94626057D01*
X128296437Y-94648666D01*
X128299856Y-94671721D01*
X128301000Y-94695000D01*
X128301000Y-95170000D01*
X128299856Y-95193279D01*
X128296437Y-95216334D01*
X128290773Y-95238943D01*
X128282921Y-95260887D01*
X128272956Y-95281957D01*
X128260974Y-95301948D01*
X128247090Y-95320668D01*
X128231438Y-95337938D01*
X128214168Y-95353590D01*
X128195448Y-95367474D01*
X128175457Y-95379456D01*
X128154387Y-95389421D01*
X128132443Y-95397273D01*
X128109834Y-95402937D01*
X128086779Y-95406356D01*
X128063500Y-95407500D01*
X127488500Y-95407500D01*
X127465221Y-95406356D01*
X127442166Y-95402937D01*
X127419557Y-95397273D01*
X127397613Y-95389421D01*
X127376543Y-95379456D01*
X127356552Y-95367474D01*
X127337832Y-95353590D01*
X127320562Y-95337938D01*
X127304910Y-95320668D01*
X127291026Y-95301948D01*
X127279044Y-95281957D01*
X127269079Y-95260887D01*
X127261227Y-95238943D01*
X127255563Y-95216334D01*
X127252144Y-95193279D01*
X127251000Y-95170000D01*
X127251000Y-94695000D01*
X127252144Y-94671721D01*
X127255563Y-94648666D01*
X127261227Y-94626057D01*
X127269079Y-94604113D01*
X127279044Y-94583043D01*
X127291026Y-94563052D01*
X127304910Y-94544332D01*
X127320562Y-94527062D01*
X127337832Y-94511410D01*
X127356552Y-94497526D01*
X127376543Y-94485544D01*
X127397613Y-94475579D01*
X127419557Y-94467727D01*
X127442166Y-94462063D01*
X127465221Y-94458644D01*
X127488500Y-94457500D01*
X128063500Y-94457500D01*
X128086779Y-94458644D01*
X128086779Y-94458644D01*
G37*
D13*
X127776000Y-94932500D03*
D10*
G36*
X129836779Y-94458644D02*
X129859834Y-94462063D01*
X129882443Y-94467727D01*
X129904387Y-94475579D01*
X129925457Y-94485544D01*
X129945448Y-94497526D01*
X129964168Y-94511410D01*
X129981438Y-94527062D01*
X129997090Y-94544332D01*
X130010974Y-94563052D01*
X130022956Y-94583043D01*
X130032921Y-94604113D01*
X130040773Y-94626057D01*
X130046437Y-94648666D01*
X130049856Y-94671721D01*
X130051000Y-94695000D01*
X130051000Y-95170000D01*
X130049856Y-95193279D01*
X130046437Y-95216334D01*
X130040773Y-95238943D01*
X130032921Y-95260887D01*
X130022956Y-95281957D01*
X130010974Y-95301948D01*
X129997090Y-95320668D01*
X129981438Y-95337938D01*
X129964168Y-95353590D01*
X129945448Y-95367474D01*
X129925457Y-95379456D01*
X129904387Y-95389421D01*
X129882443Y-95397273D01*
X129859834Y-95402937D01*
X129836779Y-95406356D01*
X129813500Y-95407500D01*
X129238500Y-95407500D01*
X129215221Y-95406356D01*
X129192166Y-95402937D01*
X129169557Y-95397273D01*
X129147613Y-95389421D01*
X129126543Y-95379456D01*
X129106552Y-95367474D01*
X129087832Y-95353590D01*
X129070562Y-95337938D01*
X129054910Y-95320668D01*
X129041026Y-95301948D01*
X129029044Y-95281957D01*
X129019079Y-95260887D01*
X129011227Y-95238943D01*
X129005563Y-95216334D01*
X129002144Y-95193279D01*
X129001000Y-95170000D01*
X129001000Y-94695000D01*
X129002144Y-94671721D01*
X129005563Y-94648666D01*
X129011227Y-94626057D01*
X129019079Y-94604113D01*
X129029044Y-94583043D01*
X129041026Y-94563052D01*
X129054910Y-94544332D01*
X129070562Y-94527062D01*
X129087832Y-94511410D01*
X129106552Y-94497526D01*
X129126543Y-94485544D01*
X129147613Y-94475579D01*
X129169557Y-94467727D01*
X129192166Y-94462063D01*
X129215221Y-94458644D01*
X129238500Y-94457500D01*
X129813500Y-94457500D01*
X129836779Y-94458644D01*
X129836779Y-94458644D01*
G37*
D13*
X129526000Y-94932500D03*
G04 #@! TD*
D10*
G04 #@! TO.C,C6*
G36*
X108020779Y-99919644D02*
X108043834Y-99923063D01*
X108066443Y-99928727D01*
X108088387Y-99936579D01*
X108109457Y-99946544D01*
X108129448Y-99958526D01*
X108148168Y-99972410D01*
X108165438Y-99988062D01*
X108181090Y-100005332D01*
X108194974Y-100024052D01*
X108206956Y-100044043D01*
X108216921Y-100065113D01*
X108224773Y-100087057D01*
X108230437Y-100109666D01*
X108233856Y-100132721D01*
X108235000Y-100156000D01*
X108235000Y-100631000D01*
X108233856Y-100654279D01*
X108230437Y-100677334D01*
X108224773Y-100699943D01*
X108216921Y-100721887D01*
X108206956Y-100742957D01*
X108194974Y-100762948D01*
X108181090Y-100781668D01*
X108165438Y-100798938D01*
X108148168Y-100814590D01*
X108129448Y-100828474D01*
X108109457Y-100840456D01*
X108088387Y-100850421D01*
X108066443Y-100858273D01*
X108043834Y-100863937D01*
X108020779Y-100867356D01*
X107997500Y-100868500D01*
X107422500Y-100868500D01*
X107399221Y-100867356D01*
X107376166Y-100863937D01*
X107353557Y-100858273D01*
X107331613Y-100850421D01*
X107310543Y-100840456D01*
X107290552Y-100828474D01*
X107271832Y-100814590D01*
X107254562Y-100798938D01*
X107238910Y-100781668D01*
X107225026Y-100762948D01*
X107213044Y-100742957D01*
X107203079Y-100721887D01*
X107195227Y-100699943D01*
X107189563Y-100677334D01*
X107186144Y-100654279D01*
X107185000Y-100631000D01*
X107185000Y-100156000D01*
X107186144Y-100132721D01*
X107189563Y-100109666D01*
X107195227Y-100087057D01*
X107203079Y-100065113D01*
X107213044Y-100044043D01*
X107225026Y-100024052D01*
X107238910Y-100005332D01*
X107254562Y-99988062D01*
X107271832Y-99972410D01*
X107290552Y-99958526D01*
X107310543Y-99946544D01*
X107331613Y-99936579D01*
X107353557Y-99928727D01*
X107376166Y-99923063D01*
X107399221Y-99919644D01*
X107422500Y-99918500D01*
X107997500Y-99918500D01*
X108020779Y-99919644D01*
X108020779Y-99919644D01*
G37*
D13*
X107710000Y-100393500D03*
D10*
G36*
X109770779Y-99919644D02*
X109793834Y-99923063D01*
X109816443Y-99928727D01*
X109838387Y-99936579D01*
X109859457Y-99946544D01*
X109879448Y-99958526D01*
X109898168Y-99972410D01*
X109915438Y-99988062D01*
X109931090Y-100005332D01*
X109944974Y-100024052D01*
X109956956Y-100044043D01*
X109966921Y-100065113D01*
X109974773Y-100087057D01*
X109980437Y-100109666D01*
X109983856Y-100132721D01*
X109985000Y-100156000D01*
X109985000Y-100631000D01*
X109983856Y-100654279D01*
X109980437Y-100677334D01*
X109974773Y-100699943D01*
X109966921Y-100721887D01*
X109956956Y-100742957D01*
X109944974Y-100762948D01*
X109931090Y-100781668D01*
X109915438Y-100798938D01*
X109898168Y-100814590D01*
X109879448Y-100828474D01*
X109859457Y-100840456D01*
X109838387Y-100850421D01*
X109816443Y-100858273D01*
X109793834Y-100863937D01*
X109770779Y-100867356D01*
X109747500Y-100868500D01*
X109172500Y-100868500D01*
X109149221Y-100867356D01*
X109126166Y-100863937D01*
X109103557Y-100858273D01*
X109081613Y-100850421D01*
X109060543Y-100840456D01*
X109040552Y-100828474D01*
X109021832Y-100814590D01*
X109004562Y-100798938D01*
X108988910Y-100781668D01*
X108975026Y-100762948D01*
X108963044Y-100742957D01*
X108953079Y-100721887D01*
X108945227Y-100699943D01*
X108939563Y-100677334D01*
X108936144Y-100654279D01*
X108935000Y-100631000D01*
X108935000Y-100156000D01*
X108936144Y-100132721D01*
X108939563Y-100109666D01*
X108945227Y-100087057D01*
X108953079Y-100065113D01*
X108963044Y-100044043D01*
X108975026Y-100024052D01*
X108988910Y-100005332D01*
X109004562Y-99988062D01*
X109021832Y-99972410D01*
X109040552Y-99958526D01*
X109060543Y-99946544D01*
X109081613Y-99936579D01*
X109103557Y-99928727D01*
X109126166Y-99923063D01*
X109149221Y-99919644D01*
X109172500Y-99918500D01*
X109747500Y-99918500D01*
X109770779Y-99919644D01*
X109770779Y-99919644D01*
G37*
D13*
X109460000Y-100393500D03*
G04 #@! TD*
D10*
G04 #@! TO.C,C7*
G36*
X149140779Y-113000644D02*
X149163834Y-113004063D01*
X149186443Y-113009727D01*
X149208387Y-113017579D01*
X149229457Y-113027544D01*
X149249448Y-113039526D01*
X149268168Y-113053410D01*
X149285438Y-113069062D01*
X149301090Y-113086332D01*
X149314974Y-113105052D01*
X149326956Y-113125043D01*
X149336921Y-113146113D01*
X149344773Y-113168057D01*
X149350437Y-113190666D01*
X149353856Y-113213721D01*
X149355000Y-113237000D01*
X149355000Y-113712000D01*
X149353856Y-113735279D01*
X149350437Y-113758334D01*
X149344773Y-113780943D01*
X149336921Y-113802887D01*
X149326956Y-113823957D01*
X149314974Y-113843948D01*
X149301090Y-113862668D01*
X149285438Y-113879938D01*
X149268168Y-113895590D01*
X149249448Y-113909474D01*
X149229457Y-113921456D01*
X149208387Y-113931421D01*
X149186443Y-113939273D01*
X149163834Y-113944937D01*
X149140779Y-113948356D01*
X149117500Y-113949500D01*
X148542500Y-113949500D01*
X148519221Y-113948356D01*
X148496166Y-113944937D01*
X148473557Y-113939273D01*
X148451613Y-113931421D01*
X148430543Y-113921456D01*
X148410552Y-113909474D01*
X148391832Y-113895590D01*
X148374562Y-113879938D01*
X148358910Y-113862668D01*
X148345026Y-113843948D01*
X148333044Y-113823957D01*
X148323079Y-113802887D01*
X148315227Y-113780943D01*
X148309563Y-113758334D01*
X148306144Y-113735279D01*
X148305000Y-113712000D01*
X148305000Y-113237000D01*
X148306144Y-113213721D01*
X148309563Y-113190666D01*
X148315227Y-113168057D01*
X148323079Y-113146113D01*
X148333044Y-113125043D01*
X148345026Y-113105052D01*
X148358910Y-113086332D01*
X148374562Y-113069062D01*
X148391832Y-113053410D01*
X148410552Y-113039526D01*
X148430543Y-113027544D01*
X148451613Y-113017579D01*
X148473557Y-113009727D01*
X148496166Y-113004063D01*
X148519221Y-113000644D01*
X148542500Y-112999500D01*
X149117500Y-112999500D01*
X149140779Y-113000644D01*
X149140779Y-113000644D01*
G37*
D13*
X148830000Y-113474500D03*
D10*
G36*
X147390779Y-113000644D02*
X147413834Y-113004063D01*
X147436443Y-113009727D01*
X147458387Y-113017579D01*
X147479457Y-113027544D01*
X147499448Y-113039526D01*
X147518168Y-113053410D01*
X147535438Y-113069062D01*
X147551090Y-113086332D01*
X147564974Y-113105052D01*
X147576956Y-113125043D01*
X147586921Y-113146113D01*
X147594773Y-113168057D01*
X147600437Y-113190666D01*
X147603856Y-113213721D01*
X147605000Y-113237000D01*
X147605000Y-113712000D01*
X147603856Y-113735279D01*
X147600437Y-113758334D01*
X147594773Y-113780943D01*
X147586921Y-113802887D01*
X147576956Y-113823957D01*
X147564974Y-113843948D01*
X147551090Y-113862668D01*
X147535438Y-113879938D01*
X147518168Y-113895590D01*
X147499448Y-113909474D01*
X147479457Y-113921456D01*
X147458387Y-113931421D01*
X147436443Y-113939273D01*
X147413834Y-113944937D01*
X147390779Y-113948356D01*
X147367500Y-113949500D01*
X146792500Y-113949500D01*
X146769221Y-113948356D01*
X146746166Y-113944937D01*
X146723557Y-113939273D01*
X146701613Y-113931421D01*
X146680543Y-113921456D01*
X146660552Y-113909474D01*
X146641832Y-113895590D01*
X146624562Y-113879938D01*
X146608910Y-113862668D01*
X146595026Y-113843948D01*
X146583044Y-113823957D01*
X146573079Y-113802887D01*
X146565227Y-113780943D01*
X146559563Y-113758334D01*
X146556144Y-113735279D01*
X146555000Y-113712000D01*
X146555000Y-113237000D01*
X146556144Y-113213721D01*
X146559563Y-113190666D01*
X146565227Y-113168057D01*
X146573079Y-113146113D01*
X146583044Y-113125043D01*
X146595026Y-113105052D01*
X146608910Y-113086332D01*
X146624562Y-113069062D01*
X146641832Y-113053410D01*
X146660552Y-113039526D01*
X146680543Y-113027544D01*
X146701613Y-113017579D01*
X146723557Y-113009727D01*
X146746166Y-113004063D01*
X146769221Y-113000644D01*
X146792500Y-112999500D01*
X147367500Y-112999500D01*
X147390779Y-113000644D01*
X147390779Y-113000644D01*
G37*
D13*
X147080000Y-113474500D03*
G04 #@! TD*
D10*
G04 #@! TO.C,C8*
G36*
X116910779Y-99919644D02*
X116933834Y-99923063D01*
X116956443Y-99928727D01*
X116978387Y-99936579D01*
X116999457Y-99946544D01*
X117019448Y-99958526D01*
X117038168Y-99972410D01*
X117055438Y-99988062D01*
X117071090Y-100005332D01*
X117084974Y-100024052D01*
X117096956Y-100044043D01*
X117106921Y-100065113D01*
X117114773Y-100087057D01*
X117120437Y-100109666D01*
X117123856Y-100132721D01*
X117125000Y-100156000D01*
X117125000Y-100631000D01*
X117123856Y-100654279D01*
X117120437Y-100677334D01*
X117114773Y-100699943D01*
X117106921Y-100721887D01*
X117096956Y-100742957D01*
X117084974Y-100762948D01*
X117071090Y-100781668D01*
X117055438Y-100798938D01*
X117038168Y-100814590D01*
X117019448Y-100828474D01*
X116999457Y-100840456D01*
X116978387Y-100850421D01*
X116956443Y-100858273D01*
X116933834Y-100863937D01*
X116910779Y-100867356D01*
X116887500Y-100868500D01*
X116312500Y-100868500D01*
X116289221Y-100867356D01*
X116266166Y-100863937D01*
X116243557Y-100858273D01*
X116221613Y-100850421D01*
X116200543Y-100840456D01*
X116180552Y-100828474D01*
X116161832Y-100814590D01*
X116144562Y-100798938D01*
X116128910Y-100781668D01*
X116115026Y-100762948D01*
X116103044Y-100742957D01*
X116093079Y-100721887D01*
X116085227Y-100699943D01*
X116079563Y-100677334D01*
X116076144Y-100654279D01*
X116075000Y-100631000D01*
X116075000Y-100156000D01*
X116076144Y-100132721D01*
X116079563Y-100109666D01*
X116085227Y-100087057D01*
X116093079Y-100065113D01*
X116103044Y-100044043D01*
X116115026Y-100024052D01*
X116128910Y-100005332D01*
X116144562Y-99988062D01*
X116161832Y-99972410D01*
X116180552Y-99958526D01*
X116200543Y-99946544D01*
X116221613Y-99936579D01*
X116243557Y-99928727D01*
X116266166Y-99923063D01*
X116289221Y-99919644D01*
X116312500Y-99918500D01*
X116887500Y-99918500D01*
X116910779Y-99919644D01*
X116910779Y-99919644D01*
G37*
D13*
X116600000Y-100393500D03*
D10*
G36*
X118660779Y-99919644D02*
X118683834Y-99923063D01*
X118706443Y-99928727D01*
X118728387Y-99936579D01*
X118749457Y-99946544D01*
X118769448Y-99958526D01*
X118788168Y-99972410D01*
X118805438Y-99988062D01*
X118821090Y-100005332D01*
X118834974Y-100024052D01*
X118846956Y-100044043D01*
X118856921Y-100065113D01*
X118864773Y-100087057D01*
X118870437Y-100109666D01*
X118873856Y-100132721D01*
X118875000Y-100156000D01*
X118875000Y-100631000D01*
X118873856Y-100654279D01*
X118870437Y-100677334D01*
X118864773Y-100699943D01*
X118856921Y-100721887D01*
X118846956Y-100742957D01*
X118834974Y-100762948D01*
X118821090Y-100781668D01*
X118805438Y-100798938D01*
X118788168Y-100814590D01*
X118769448Y-100828474D01*
X118749457Y-100840456D01*
X118728387Y-100850421D01*
X118706443Y-100858273D01*
X118683834Y-100863937D01*
X118660779Y-100867356D01*
X118637500Y-100868500D01*
X118062500Y-100868500D01*
X118039221Y-100867356D01*
X118016166Y-100863937D01*
X117993557Y-100858273D01*
X117971613Y-100850421D01*
X117950543Y-100840456D01*
X117930552Y-100828474D01*
X117911832Y-100814590D01*
X117894562Y-100798938D01*
X117878910Y-100781668D01*
X117865026Y-100762948D01*
X117853044Y-100742957D01*
X117843079Y-100721887D01*
X117835227Y-100699943D01*
X117829563Y-100677334D01*
X117826144Y-100654279D01*
X117825000Y-100631000D01*
X117825000Y-100156000D01*
X117826144Y-100132721D01*
X117829563Y-100109666D01*
X117835227Y-100087057D01*
X117843079Y-100065113D01*
X117853044Y-100044043D01*
X117865026Y-100024052D01*
X117878910Y-100005332D01*
X117894562Y-99988062D01*
X117911832Y-99972410D01*
X117930552Y-99958526D01*
X117950543Y-99946544D01*
X117971613Y-99936579D01*
X117993557Y-99928727D01*
X118016166Y-99923063D01*
X118039221Y-99919644D01*
X118062500Y-99918500D01*
X118637500Y-99918500D01*
X118660779Y-99919644D01*
X118660779Y-99919644D01*
G37*
D13*
X118350000Y-100393500D03*
G04 #@! TD*
D10*
G04 #@! TO.C,C9*
G36*
X157268779Y-113000644D02*
X157291834Y-113004063D01*
X157314443Y-113009727D01*
X157336387Y-113017579D01*
X157357457Y-113027544D01*
X157377448Y-113039526D01*
X157396168Y-113053410D01*
X157413438Y-113069062D01*
X157429090Y-113086332D01*
X157442974Y-113105052D01*
X157454956Y-113125043D01*
X157464921Y-113146113D01*
X157472773Y-113168057D01*
X157478437Y-113190666D01*
X157481856Y-113213721D01*
X157483000Y-113237000D01*
X157483000Y-113712000D01*
X157481856Y-113735279D01*
X157478437Y-113758334D01*
X157472773Y-113780943D01*
X157464921Y-113802887D01*
X157454956Y-113823957D01*
X157442974Y-113843948D01*
X157429090Y-113862668D01*
X157413438Y-113879938D01*
X157396168Y-113895590D01*
X157377448Y-113909474D01*
X157357457Y-113921456D01*
X157336387Y-113931421D01*
X157314443Y-113939273D01*
X157291834Y-113944937D01*
X157268779Y-113948356D01*
X157245500Y-113949500D01*
X156670500Y-113949500D01*
X156647221Y-113948356D01*
X156624166Y-113944937D01*
X156601557Y-113939273D01*
X156579613Y-113931421D01*
X156558543Y-113921456D01*
X156538552Y-113909474D01*
X156519832Y-113895590D01*
X156502562Y-113879938D01*
X156486910Y-113862668D01*
X156473026Y-113843948D01*
X156461044Y-113823957D01*
X156451079Y-113802887D01*
X156443227Y-113780943D01*
X156437563Y-113758334D01*
X156434144Y-113735279D01*
X156433000Y-113712000D01*
X156433000Y-113237000D01*
X156434144Y-113213721D01*
X156437563Y-113190666D01*
X156443227Y-113168057D01*
X156451079Y-113146113D01*
X156461044Y-113125043D01*
X156473026Y-113105052D01*
X156486910Y-113086332D01*
X156502562Y-113069062D01*
X156519832Y-113053410D01*
X156538552Y-113039526D01*
X156558543Y-113027544D01*
X156579613Y-113017579D01*
X156601557Y-113009727D01*
X156624166Y-113004063D01*
X156647221Y-113000644D01*
X156670500Y-112999500D01*
X157245500Y-112999500D01*
X157268779Y-113000644D01*
X157268779Y-113000644D01*
G37*
D13*
X156958000Y-113474500D03*
D10*
G36*
X155518779Y-113000644D02*
X155541834Y-113004063D01*
X155564443Y-113009727D01*
X155586387Y-113017579D01*
X155607457Y-113027544D01*
X155627448Y-113039526D01*
X155646168Y-113053410D01*
X155663438Y-113069062D01*
X155679090Y-113086332D01*
X155692974Y-113105052D01*
X155704956Y-113125043D01*
X155714921Y-113146113D01*
X155722773Y-113168057D01*
X155728437Y-113190666D01*
X155731856Y-113213721D01*
X155733000Y-113237000D01*
X155733000Y-113712000D01*
X155731856Y-113735279D01*
X155728437Y-113758334D01*
X155722773Y-113780943D01*
X155714921Y-113802887D01*
X155704956Y-113823957D01*
X155692974Y-113843948D01*
X155679090Y-113862668D01*
X155663438Y-113879938D01*
X155646168Y-113895590D01*
X155627448Y-113909474D01*
X155607457Y-113921456D01*
X155586387Y-113931421D01*
X155564443Y-113939273D01*
X155541834Y-113944937D01*
X155518779Y-113948356D01*
X155495500Y-113949500D01*
X154920500Y-113949500D01*
X154897221Y-113948356D01*
X154874166Y-113944937D01*
X154851557Y-113939273D01*
X154829613Y-113931421D01*
X154808543Y-113921456D01*
X154788552Y-113909474D01*
X154769832Y-113895590D01*
X154752562Y-113879938D01*
X154736910Y-113862668D01*
X154723026Y-113843948D01*
X154711044Y-113823957D01*
X154701079Y-113802887D01*
X154693227Y-113780943D01*
X154687563Y-113758334D01*
X154684144Y-113735279D01*
X154683000Y-113712000D01*
X154683000Y-113237000D01*
X154684144Y-113213721D01*
X154687563Y-113190666D01*
X154693227Y-113168057D01*
X154701079Y-113146113D01*
X154711044Y-113125043D01*
X154723026Y-113105052D01*
X154736910Y-113086332D01*
X154752562Y-113069062D01*
X154769832Y-113053410D01*
X154788552Y-113039526D01*
X154808543Y-113027544D01*
X154829613Y-113017579D01*
X154851557Y-113009727D01*
X154874166Y-113004063D01*
X154897221Y-113000644D01*
X154920500Y-112999500D01*
X155495500Y-112999500D01*
X155518779Y-113000644D01*
X155518779Y-113000644D01*
G37*
D13*
X155208000Y-113474500D03*
G04 #@! TD*
D10*
G04 #@! TO.C,C10*
G36*
X108020779Y-106904644D02*
X108043834Y-106908063D01*
X108066443Y-106913727D01*
X108088387Y-106921579D01*
X108109457Y-106931544D01*
X108129448Y-106943526D01*
X108148168Y-106957410D01*
X108165438Y-106973062D01*
X108181090Y-106990332D01*
X108194974Y-107009052D01*
X108206956Y-107029043D01*
X108216921Y-107050113D01*
X108224773Y-107072057D01*
X108230437Y-107094666D01*
X108233856Y-107117721D01*
X108235000Y-107141000D01*
X108235000Y-107616000D01*
X108233856Y-107639279D01*
X108230437Y-107662334D01*
X108224773Y-107684943D01*
X108216921Y-107706887D01*
X108206956Y-107727957D01*
X108194974Y-107747948D01*
X108181090Y-107766668D01*
X108165438Y-107783938D01*
X108148168Y-107799590D01*
X108129448Y-107813474D01*
X108109457Y-107825456D01*
X108088387Y-107835421D01*
X108066443Y-107843273D01*
X108043834Y-107848937D01*
X108020779Y-107852356D01*
X107997500Y-107853500D01*
X107422500Y-107853500D01*
X107399221Y-107852356D01*
X107376166Y-107848937D01*
X107353557Y-107843273D01*
X107331613Y-107835421D01*
X107310543Y-107825456D01*
X107290552Y-107813474D01*
X107271832Y-107799590D01*
X107254562Y-107783938D01*
X107238910Y-107766668D01*
X107225026Y-107747948D01*
X107213044Y-107727957D01*
X107203079Y-107706887D01*
X107195227Y-107684943D01*
X107189563Y-107662334D01*
X107186144Y-107639279D01*
X107185000Y-107616000D01*
X107185000Y-107141000D01*
X107186144Y-107117721D01*
X107189563Y-107094666D01*
X107195227Y-107072057D01*
X107203079Y-107050113D01*
X107213044Y-107029043D01*
X107225026Y-107009052D01*
X107238910Y-106990332D01*
X107254562Y-106973062D01*
X107271832Y-106957410D01*
X107290552Y-106943526D01*
X107310543Y-106931544D01*
X107331613Y-106921579D01*
X107353557Y-106913727D01*
X107376166Y-106908063D01*
X107399221Y-106904644D01*
X107422500Y-106903500D01*
X107997500Y-106903500D01*
X108020779Y-106904644D01*
X108020779Y-106904644D01*
G37*
D13*
X107710000Y-107378500D03*
D10*
G36*
X109770779Y-106904644D02*
X109793834Y-106908063D01*
X109816443Y-106913727D01*
X109838387Y-106921579D01*
X109859457Y-106931544D01*
X109879448Y-106943526D01*
X109898168Y-106957410D01*
X109915438Y-106973062D01*
X109931090Y-106990332D01*
X109944974Y-107009052D01*
X109956956Y-107029043D01*
X109966921Y-107050113D01*
X109974773Y-107072057D01*
X109980437Y-107094666D01*
X109983856Y-107117721D01*
X109985000Y-107141000D01*
X109985000Y-107616000D01*
X109983856Y-107639279D01*
X109980437Y-107662334D01*
X109974773Y-107684943D01*
X109966921Y-107706887D01*
X109956956Y-107727957D01*
X109944974Y-107747948D01*
X109931090Y-107766668D01*
X109915438Y-107783938D01*
X109898168Y-107799590D01*
X109879448Y-107813474D01*
X109859457Y-107825456D01*
X109838387Y-107835421D01*
X109816443Y-107843273D01*
X109793834Y-107848937D01*
X109770779Y-107852356D01*
X109747500Y-107853500D01*
X109172500Y-107853500D01*
X109149221Y-107852356D01*
X109126166Y-107848937D01*
X109103557Y-107843273D01*
X109081613Y-107835421D01*
X109060543Y-107825456D01*
X109040552Y-107813474D01*
X109021832Y-107799590D01*
X109004562Y-107783938D01*
X108988910Y-107766668D01*
X108975026Y-107747948D01*
X108963044Y-107727957D01*
X108953079Y-107706887D01*
X108945227Y-107684943D01*
X108939563Y-107662334D01*
X108936144Y-107639279D01*
X108935000Y-107616000D01*
X108935000Y-107141000D01*
X108936144Y-107117721D01*
X108939563Y-107094666D01*
X108945227Y-107072057D01*
X108953079Y-107050113D01*
X108963044Y-107029043D01*
X108975026Y-107009052D01*
X108988910Y-106990332D01*
X109004562Y-106973062D01*
X109021832Y-106957410D01*
X109040552Y-106943526D01*
X109060543Y-106931544D01*
X109081613Y-106921579D01*
X109103557Y-106913727D01*
X109126166Y-106908063D01*
X109149221Y-106904644D01*
X109172500Y-106903500D01*
X109747500Y-106903500D01*
X109770779Y-106904644D01*
X109770779Y-106904644D01*
G37*
D13*
X109460000Y-107378500D03*
G04 #@! TD*
D10*
G04 #@! TO.C,C11*
G36*
X128086779Y-115794644D02*
X128109834Y-115798063D01*
X128132443Y-115803727D01*
X128154387Y-115811579D01*
X128175457Y-115821544D01*
X128195448Y-115833526D01*
X128214168Y-115847410D01*
X128231438Y-115863062D01*
X128247090Y-115880332D01*
X128260974Y-115899052D01*
X128272956Y-115919043D01*
X128282921Y-115940113D01*
X128290773Y-115962057D01*
X128296437Y-115984666D01*
X128299856Y-116007721D01*
X128301000Y-116031000D01*
X128301000Y-116506000D01*
X128299856Y-116529279D01*
X128296437Y-116552334D01*
X128290773Y-116574943D01*
X128282921Y-116596887D01*
X128272956Y-116617957D01*
X128260974Y-116637948D01*
X128247090Y-116656668D01*
X128231438Y-116673938D01*
X128214168Y-116689590D01*
X128195448Y-116703474D01*
X128175457Y-116715456D01*
X128154387Y-116725421D01*
X128132443Y-116733273D01*
X128109834Y-116738937D01*
X128086779Y-116742356D01*
X128063500Y-116743500D01*
X127488500Y-116743500D01*
X127465221Y-116742356D01*
X127442166Y-116738937D01*
X127419557Y-116733273D01*
X127397613Y-116725421D01*
X127376543Y-116715456D01*
X127356552Y-116703474D01*
X127337832Y-116689590D01*
X127320562Y-116673938D01*
X127304910Y-116656668D01*
X127291026Y-116637948D01*
X127279044Y-116617957D01*
X127269079Y-116596887D01*
X127261227Y-116574943D01*
X127255563Y-116552334D01*
X127252144Y-116529279D01*
X127251000Y-116506000D01*
X127251000Y-116031000D01*
X127252144Y-116007721D01*
X127255563Y-115984666D01*
X127261227Y-115962057D01*
X127269079Y-115940113D01*
X127279044Y-115919043D01*
X127291026Y-115899052D01*
X127304910Y-115880332D01*
X127320562Y-115863062D01*
X127337832Y-115847410D01*
X127356552Y-115833526D01*
X127376543Y-115821544D01*
X127397613Y-115811579D01*
X127419557Y-115803727D01*
X127442166Y-115798063D01*
X127465221Y-115794644D01*
X127488500Y-115793500D01*
X128063500Y-115793500D01*
X128086779Y-115794644D01*
X128086779Y-115794644D01*
G37*
D13*
X127776000Y-116268500D03*
D10*
G36*
X129836779Y-115794644D02*
X129859834Y-115798063D01*
X129882443Y-115803727D01*
X129904387Y-115811579D01*
X129925457Y-115821544D01*
X129945448Y-115833526D01*
X129964168Y-115847410D01*
X129981438Y-115863062D01*
X129997090Y-115880332D01*
X130010974Y-115899052D01*
X130022956Y-115919043D01*
X130032921Y-115940113D01*
X130040773Y-115962057D01*
X130046437Y-115984666D01*
X130049856Y-116007721D01*
X130051000Y-116031000D01*
X130051000Y-116506000D01*
X130049856Y-116529279D01*
X130046437Y-116552334D01*
X130040773Y-116574943D01*
X130032921Y-116596887D01*
X130022956Y-116617957D01*
X130010974Y-116637948D01*
X129997090Y-116656668D01*
X129981438Y-116673938D01*
X129964168Y-116689590D01*
X129945448Y-116703474D01*
X129925457Y-116715456D01*
X129904387Y-116725421D01*
X129882443Y-116733273D01*
X129859834Y-116738937D01*
X129836779Y-116742356D01*
X129813500Y-116743500D01*
X129238500Y-116743500D01*
X129215221Y-116742356D01*
X129192166Y-116738937D01*
X129169557Y-116733273D01*
X129147613Y-116725421D01*
X129126543Y-116715456D01*
X129106552Y-116703474D01*
X129087832Y-116689590D01*
X129070562Y-116673938D01*
X129054910Y-116656668D01*
X129041026Y-116637948D01*
X129029044Y-116617957D01*
X129019079Y-116596887D01*
X129011227Y-116574943D01*
X129005563Y-116552334D01*
X129002144Y-116529279D01*
X129001000Y-116506000D01*
X129001000Y-116031000D01*
X129002144Y-116007721D01*
X129005563Y-115984666D01*
X129011227Y-115962057D01*
X129019079Y-115940113D01*
X129029044Y-115919043D01*
X129041026Y-115899052D01*
X129054910Y-115880332D01*
X129070562Y-115863062D01*
X129087832Y-115847410D01*
X129106552Y-115833526D01*
X129126543Y-115821544D01*
X129147613Y-115811579D01*
X129169557Y-115803727D01*
X129192166Y-115798063D01*
X129215221Y-115794644D01*
X129238500Y-115793500D01*
X129813500Y-115793500D01*
X129836779Y-115794644D01*
X129836779Y-115794644D01*
G37*
D13*
X129526000Y-116268500D03*
G04 #@! TD*
D14*
G04 #@! TO.C,D1*
X109765000Y-110553500D03*
X111215000Y-110553500D03*
G04 #@! TD*
D15*
G04 #@! TO.C,D2*
X132715000Y-93953500D03*
X132715000Y-95403500D03*
G04 #@! TD*
D16*
G04 #@! TO.C,D3*
X144477000Y-91596500D03*
X144477000Y-92646500D03*
X144477000Y-93696500D03*
X147877000Y-93696500D03*
X147877000Y-92646500D03*
X147877000Y-91596500D03*
G04 #@! TD*
D15*
G04 #@! TO.C,D4*
X135509000Y-95403500D03*
X135509000Y-93953500D03*
G04 #@! TD*
D17*
G04 #@! TO.C,J1*
X98035000Y-106481000D03*
X98035000Y-100656000D03*
D18*
X98035000Y-104406000D03*
X98035000Y-102731000D03*
D19*
X100335000Y-101116000D03*
X100335000Y-106021000D03*
D20*
X100695000Y-104868500D03*
X100695000Y-104218500D03*
X100695000Y-103568500D03*
X100695000Y-102918500D03*
X100695000Y-102268500D03*
G04 #@! TD*
D17*
G04 #@! TO.C,J2*
X161045000Y-99386000D03*
X161045000Y-105211000D03*
D18*
X161045000Y-101461000D03*
X161045000Y-103136000D03*
D19*
X158745000Y-104751000D03*
X158745000Y-99846000D03*
D20*
X158385000Y-100998500D03*
X158385000Y-101648500D03*
X158385000Y-102298500D03*
X158385000Y-102948500D03*
X158385000Y-103598500D03*
G04 #@! TD*
D10*
G04 #@! TO.C,R1*
G36*
X111802779Y-113000644D02*
X111825834Y-113004063D01*
X111848443Y-113009727D01*
X111870387Y-113017579D01*
X111891457Y-113027544D01*
X111911448Y-113039526D01*
X111930168Y-113053410D01*
X111947438Y-113069062D01*
X111963090Y-113086332D01*
X111976974Y-113105052D01*
X111988956Y-113125043D01*
X111998921Y-113146113D01*
X112006773Y-113168057D01*
X112012437Y-113190666D01*
X112015856Y-113213721D01*
X112017000Y-113237000D01*
X112017000Y-113712000D01*
X112015856Y-113735279D01*
X112012437Y-113758334D01*
X112006773Y-113780943D01*
X111998921Y-113802887D01*
X111988956Y-113823957D01*
X111976974Y-113843948D01*
X111963090Y-113862668D01*
X111947438Y-113879938D01*
X111930168Y-113895590D01*
X111911448Y-113909474D01*
X111891457Y-113921456D01*
X111870387Y-113931421D01*
X111848443Y-113939273D01*
X111825834Y-113944937D01*
X111802779Y-113948356D01*
X111779500Y-113949500D01*
X111204500Y-113949500D01*
X111181221Y-113948356D01*
X111158166Y-113944937D01*
X111135557Y-113939273D01*
X111113613Y-113931421D01*
X111092543Y-113921456D01*
X111072552Y-113909474D01*
X111053832Y-113895590D01*
X111036562Y-113879938D01*
X111020910Y-113862668D01*
X111007026Y-113843948D01*
X110995044Y-113823957D01*
X110985079Y-113802887D01*
X110977227Y-113780943D01*
X110971563Y-113758334D01*
X110968144Y-113735279D01*
X110967000Y-113712000D01*
X110967000Y-113237000D01*
X110968144Y-113213721D01*
X110971563Y-113190666D01*
X110977227Y-113168057D01*
X110985079Y-113146113D01*
X110995044Y-113125043D01*
X111007026Y-113105052D01*
X111020910Y-113086332D01*
X111036562Y-113069062D01*
X111053832Y-113053410D01*
X111072552Y-113039526D01*
X111092543Y-113027544D01*
X111113613Y-113017579D01*
X111135557Y-113009727D01*
X111158166Y-113004063D01*
X111181221Y-113000644D01*
X111204500Y-112999500D01*
X111779500Y-112999500D01*
X111802779Y-113000644D01*
X111802779Y-113000644D01*
G37*
D13*
X111492000Y-113474500D03*
D10*
G36*
X110052779Y-113000644D02*
X110075834Y-113004063D01*
X110098443Y-113009727D01*
X110120387Y-113017579D01*
X110141457Y-113027544D01*
X110161448Y-113039526D01*
X110180168Y-113053410D01*
X110197438Y-113069062D01*
X110213090Y-113086332D01*
X110226974Y-113105052D01*
X110238956Y-113125043D01*
X110248921Y-113146113D01*
X110256773Y-113168057D01*
X110262437Y-113190666D01*
X110265856Y-113213721D01*
X110267000Y-113237000D01*
X110267000Y-113712000D01*
X110265856Y-113735279D01*
X110262437Y-113758334D01*
X110256773Y-113780943D01*
X110248921Y-113802887D01*
X110238956Y-113823957D01*
X110226974Y-113843948D01*
X110213090Y-113862668D01*
X110197438Y-113879938D01*
X110180168Y-113895590D01*
X110161448Y-113909474D01*
X110141457Y-113921456D01*
X110120387Y-113931421D01*
X110098443Y-113939273D01*
X110075834Y-113944937D01*
X110052779Y-113948356D01*
X110029500Y-113949500D01*
X109454500Y-113949500D01*
X109431221Y-113948356D01*
X109408166Y-113944937D01*
X109385557Y-113939273D01*
X109363613Y-113931421D01*
X109342543Y-113921456D01*
X109322552Y-113909474D01*
X109303832Y-113895590D01*
X109286562Y-113879938D01*
X109270910Y-113862668D01*
X109257026Y-113843948D01*
X109245044Y-113823957D01*
X109235079Y-113802887D01*
X109227227Y-113780943D01*
X109221563Y-113758334D01*
X109218144Y-113735279D01*
X109217000Y-113712000D01*
X109217000Y-113237000D01*
X109218144Y-113213721D01*
X109221563Y-113190666D01*
X109227227Y-113168057D01*
X109235079Y-113146113D01*
X109245044Y-113125043D01*
X109257026Y-113105052D01*
X109270910Y-113086332D01*
X109286562Y-113069062D01*
X109303832Y-113053410D01*
X109322552Y-113039526D01*
X109342543Y-113027544D01*
X109363613Y-113017579D01*
X109385557Y-113009727D01*
X109408166Y-113004063D01*
X109431221Y-113000644D01*
X109454500Y-112999500D01*
X110029500Y-112999500D01*
X110052779Y-113000644D01*
X110052779Y-113000644D01*
G37*
D13*
X109742000Y-113474500D03*
G04 #@! TD*
D10*
G04 #@! TO.C,R2*
G36*
X105480779Y-110079644D02*
X105503834Y-110083063D01*
X105526443Y-110088727D01*
X105548387Y-110096579D01*
X105569457Y-110106544D01*
X105589448Y-110118526D01*
X105608168Y-110132410D01*
X105625438Y-110148062D01*
X105641090Y-110165332D01*
X105654974Y-110184052D01*
X105666956Y-110204043D01*
X105676921Y-110225113D01*
X105684773Y-110247057D01*
X105690437Y-110269666D01*
X105693856Y-110292721D01*
X105695000Y-110316000D01*
X105695000Y-110791000D01*
X105693856Y-110814279D01*
X105690437Y-110837334D01*
X105684773Y-110859943D01*
X105676921Y-110881887D01*
X105666956Y-110902957D01*
X105654974Y-110922948D01*
X105641090Y-110941668D01*
X105625438Y-110958938D01*
X105608168Y-110974590D01*
X105589448Y-110988474D01*
X105569457Y-111000456D01*
X105548387Y-111010421D01*
X105526443Y-111018273D01*
X105503834Y-111023937D01*
X105480779Y-111027356D01*
X105457500Y-111028500D01*
X104882500Y-111028500D01*
X104859221Y-111027356D01*
X104836166Y-111023937D01*
X104813557Y-111018273D01*
X104791613Y-111010421D01*
X104770543Y-111000456D01*
X104750552Y-110988474D01*
X104731832Y-110974590D01*
X104714562Y-110958938D01*
X104698910Y-110941668D01*
X104685026Y-110922948D01*
X104673044Y-110902957D01*
X104663079Y-110881887D01*
X104655227Y-110859943D01*
X104649563Y-110837334D01*
X104646144Y-110814279D01*
X104645000Y-110791000D01*
X104645000Y-110316000D01*
X104646144Y-110292721D01*
X104649563Y-110269666D01*
X104655227Y-110247057D01*
X104663079Y-110225113D01*
X104673044Y-110204043D01*
X104685026Y-110184052D01*
X104698910Y-110165332D01*
X104714562Y-110148062D01*
X104731832Y-110132410D01*
X104750552Y-110118526D01*
X104770543Y-110106544D01*
X104791613Y-110096579D01*
X104813557Y-110088727D01*
X104836166Y-110083063D01*
X104859221Y-110079644D01*
X104882500Y-110078500D01*
X105457500Y-110078500D01*
X105480779Y-110079644D01*
X105480779Y-110079644D01*
G37*
D13*
X105170000Y-110553500D03*
D10*
G36*
X107230779Y-110079644D02*
X107253834Y-110083063D01*
X107276443Y-110088727D01*
X107298387Y-110096579D01*
X107319457Y-110106544D01*
X107339448Y-110118526D01*
X107358168Y-110132410D01*
X107375438Y-110148062D01*
X107391090Y-110165332D01*
X107404974Y-110184052D01*
X107416956Y-110204043D01*
X107426921Y-110225113D01*
X107434773Y-110247057D01*
X107440437Y-110269666D01*
X107443856Y-110292721D01*
X107445000Y-110316000D01*
X107445000Y-110791000D01*
X107443856Y-110814279D01*
X107440437Y-110837334D01*
X107434773Y-110859943D01*
X107426921Y-110881887D01*
X107416956Y-110902957D01*
X107404974Y-110922948D01*
X107391090Y-110941668D01*
X107375438Y-110958938D01*
X107358168Y-110974590D01*
X107339448Y-110988474D01*
X107319457Y-111000456D01*
X107298387Y-111010421D01*
X107276443Y-111018273D01*
X107253834Y-111023937D01*
X107230779Y-111027356D01*
X107207500Y-111028500D01*
X106632500Y-111028500D01*
X106609221Y-111027356D01*
X106586166Y-111023937D01*
X106563557Y-111018273D01*
X106541613Y-111010421D01*
X106520543Y-111000456D01*
X106500552Y-110988474D01*
X106481832Y-110974590D01*
X106464562Y-110958938D01*
X106448910Y-110941668D01*
X106435026Y-110922948D01*
X106423044Y-110902957D01*
X106413079Y-110881887D01*
X106405227Y-110859943D01*
X106399563Y-110837334D01*
X106396144Y-110814279D01*
X106395000Y-110791000D01*
X106395000Y-110316000D01*
X106396144Y-110292721D01*
X106399563Y-110269666D01*
X106405227Y-110247057D01*
X106413079Y-110225113D01*
X106423044Y-110204043D01*
X106435026Y-110184052D01*
X106448910Y-110165332D01*
X106464562Y-110148062D01*
X106481832Y-110132410D01*
X106500552Y-110118526D01*
X106520543Y-110106544D01*
X106541613Y-110096579D01*
X106563557Y-110088727D01*
X106586166Y-110083063D01*
X106609221Y-110079644D01*
X106632500Y-110078500D01*
X107207500Y-110078500D01*
X107230779Y-110079644D01*
X107230779Y-110079644D01*
G37*
D13*
X106920000Y-110553500D03*
G04 #@! TD*
D10*
G04 #@! TO.C,R3*
G36*
X117926779Y-106142644D02*
X117949834Y-106146063D01*
X117972443Y-106151727D01*
X117994387Y-106159579D01*
X118015457Y-106169544D01*
X118035448Y-106181526D01*
X118054168Y-106195410D01*
X118071438Y-106211062D01*
X118087090Y-106228332D01*
X118100974Y-106247052D01*
X118112956Y-106267043D01*
X118122921Y-106288113D01*
X118130773Y-106310057D01*
X118136437Y-106332666D01*
X118139856Y-106355721D01*
X118141000Y-106379000D01*
X118141000Y-106854000D01*
X118139856Y-106877279D01*
X118136437Y-106900334D01*
X118130773Y-106922943D01*
X118122921Y-106944887D01*
X118112956Y-106965957D01*
X118100974Y-106985948D01*
X118087090Y-107004668D01*
X118071438Y-107021938D01*
X118054168Y-107037590D01*
X118035448Y-107051474D01*
X118015457Y-107063456D01*
X117994387Y-107073421D01*
X117972443Y-107081273D01*
X117949834Y-107086937D01*
X117926779Y-107090356D01*
X117903500Y-107091500D01*
X117328500Y-107091500D01*
X117305221Y-107090356D01*
X117282166Y-107086937D01*
X117259557Y-107081273D01*
X117237613Y-107073421D01*
X117216543Y-107063456D01*
X117196552Y-107051474D01*
X117177832Y-107037590D01*
X117160562Y-107021938D01*
X117144910Y-107004668D01*
X117131026Y-106985948D01*
X117119044Y-106965957D01*
X117109079Y-106944887D01*
X117101227Y-106922943D01*
X117095563Y-106900334D01*
X117092144Y-106877279D01*
X117091000Y-106854000D01*
X117091000Y-106379000D01*
X117092144Y-106355721D01*
X117095563Y-106332666D01*
X117101227Y-106310057D01*
X117109079Y-106288113D01*
X117119044Y-106267043D01*
X117131026Y-106247052D01*
X117144910Y-106228332D01*
X117160562Y-106211062D01*
X117177832Y-106195410D01*
X117196552Y-106181526D01*
X117216543Y-106169544D01*
X117237613Y-106159579D01*
X117259557Y-106151727D01*
X117282166Y-106146063D01*
X117305221Y-106142644D01*
X117328500Y-106141500D01*
X117903500Y-106141500D01*
X117926779Y-106142644D01*
X117926779Y-106142644D01*
G37*
D13*
X117616000Y-106616500D03*
D10*
G36*
X119676779Y-106142644D02*
X119699834Y-106146063D01*
X119722443Y-106151727D01*
X119744387Y-106159579D01*
X119765457Y-106169544D01*
X119785448Y-106181526D01*
X119804168Y-106195410D01*
X119821438Y-106211062D01*
X119837090Y-106228332D01*
X119850974Y-106247052D01*
X119862956Y-106267043D01*
X119872921Y-106288113D01*
X119880773Y-106310057D01*
X119886437Y-106332666D01*
X119889856Y-106355721D01*
X119891000Y-106379000D01*
X119891000Y-106854000D01*
X119889856Y-106877279D01*
X119886437Y-106900334D01*
X119880773Y-106922943D01*
X119872921Y-106944887D01*
X119862956Y-106965957D01*
X119850974Y-106985948D01*
X119837090Y-107004668D01*
X119821438Y-107021938D01*
X119804168Y-107037590D01*
X119785448Y-107051474D01*
X119765457Y-107063456D01*
X119744387Y-107073421D01*
X119722443Y-107081273D01*
X119699834Y-107086937D01*
X119676779Y-107090356D01*
X119653500Y-107091500D01*
X119078500Y-107091500D01*
X119055221Y-107090356D01*
X119032166Y-107086937D01*
X119009557Y-107081273D01*
X118987613Y-107073421D01*
X118966543Y-107063456D01*
X118946552Y-107051474D01*
X118927832Y-107037590D01*
X118910562Y-107021938D01*
X118894910Y-107004668D01*
X118881026Y-106985948D01*
X118869044Y-106965957D01*
X118859079Y-106944887D01*
X118851227Y-106922943D01*
X118845563Y-106900334D01*
X118842144Y-106877279D01*
X118841000Y-106854000D01*
X118841000Y-106379000D01*
X118842144Y-106355721D01*
X118845563Y-106332666D01*
X118851227Y-106310057D01*
X118859079Y-106288113D01*
X118869044Y-106267043D01*
X118881026Y-106247052D01*
X118894910Y-106228332D01*
X118910562Y-106211062D01*
X118927832Y-106195410D01*
X118946552Y-106181526D01*
X118966543Y-106169544D01*
X118987613Y-106159579D01*
X119009557Y-106151727D01*
X119032166Y-106146063D01*
X119055221Y-106142644D01*
X119078500Y-106141500D01*
X119653500Y-106141500D01*
X119676779Y-106142644D01*
X119676779Y-106142644D01*
G37*
D13*
X119366000Y-106616500D03*
G04 #@! TD*
D10*
G04 #@! TO.C,R4*
G36*
X132975779Y-91727644D02*
X132998834Y-91731063D01*
X133021443Y-91736727D01*
X133043387Y-91744579D01*
X133064457Y-91754544D01*
X133084448Y-91766526D01*
X133103168Y-91780410D01*
X133120438Y-91796062D01*
X133136090Y-91813332D01*
X133149974Y-91832052D01*
X133161956Y-91852043D01*
X133171921Y-91873113D01*
X133179773Y-91895057D01*
X133185437Y-91917666D01*
X133188856Y-91940721D01*
X133190000Y-91964000D01*
X133190000Y-92539000D01*
X133188856Y-92562279D01*
X133185437Y-92585334D01*
X133179773Y-92607943D01*
X133171921Y-92629887D01*
X133161956Y-92650957D01*
X133149974Y-92670948D01*
X133136090Y-92689668D01*
X133120438Y-92706938D01*
X133103168Y-92722590D01*
X133084448Y-92736474D01*
X133064457Y-92748456D01*
X133043387Y-92758421D01*
X133021443Y-92766273D01*
X132998834Y-92771937D01*
X132975779Y-92775356D01*
X132952500Y-92776500D01*
X132477500Y-92776500D01*
X132454221Y-92775356D01*
X132431166Y-92771937D01*
X132408557Y-92766273D01*
X132386613Y-92758421D01*
X132365543Y-92748456D01*
X132345552Y-92736474D01*
X132326832Y-92722590D01*
X132309562Y-92706938D01*
X132293910Y-92689668D01*
X132280026Y-92670948D01*
X132268044Y-92650957D01*
X132258079Y-92629887D01*
X132250227Y-92607943D01*
X132244563Y-92585334D01*
X132241144Y-92562279D01*
X132240000Y-92539000D01*
X132240000Y-91964000D01*
X132241144Y-91940721D01*
X132244563Y-91917666D01*
X132250227Y-91895057D01*
X132258079Y-91873113D01*
X132268044Y-91852043D01*
X132280026Y-91832052D01*
X132293910Y-91813332D01*
X132309562Y-91796062D01*
X132326832Y-91780410D01*
X132345552Y-91766526D01*
X132365543Y-91754544D01*
X132386613Y-91744579D01*
X132408557Y-91736727D01*
X132431166Y-91731063D01*
X132454221Y-91727644D01*
X132477500Y-91726500D01*
X132952500Y-91726500D01*
X132975779Y-91727644D01*
X132975779Y-91727644D01*
G37*
D13*
X132715000Y-92251500D03*
D10*
G36*
X132975779Y-89977644D02*
X132998834Y-89981063D01*
X133021443Y-89986727D01*
X133043387Y-89994579D01*
X133064457Y-90004544D01*
X133084448Y-90016526D01*
X133103168Y-90030410D01*
X133120438Y-90046062D01*
X133136090Y-90063332D01*
X133149974Y-90082052D01*
X133161956Y-90102043D01*
X133171921Y-90123113D01*
X133179773Y-90145057D01*
X133185437Y-90167666D01*
X133188856Y-90190721D01*
X133190000Y-90214000D01*
X133190000Y-90789000D01*
X133188856Y-90812279D01*
X133185437Y-90835334D01*
X133179773Y-90857943D01*
X133171921Y-90879887D01*
X133161956Y-90900957D01*
X133149974Y-90920948D01*
X133136090Y-90939668D01*
X133120438Y-90956938D01*
X133103168Y-90972590D01*
X133084448Y-90986474D01*
X133064457Y-90998456D01*
X133043387Y-91008421D01*
X133021443Y-91016273D01*
X132998834Y-91021937D01*
X132975779Y-91025356D01*
X132952500Y-91026500D01*
X132477500Y-91026500D01*
X132454221Y-91025356D01*
X132431166Y-91021937D01*
X132408557Y-91016273D01*
X132386613Y-91008421D01*
X132365543Y-90998456D01*
X132345552Y-90986474D01*
X132326832Y-90972590D01*
X132309562Y-90956938D01*
X132293910Y-90939668D01*
X132280026Y-90920948D01*
X132268044Y-90900957D01*
X132258079Y-90879887D01*
X132250227Y-90857943D01*
X132244563Y-90835334D01*
X132241144Y-90812279D01*
X132240000Y-90789000D01*
X132240000Y-90214000D01*
X132241144Y-90190721D01*
X132244563Y-90167666D01*
X132250227Y-90145057D01*
X132258079Y-90123113D01*
X132268044Y-90102043D01*
X132280026Y-90082052D01*
X132293910Y-90063332D01*
X132309562Y-90046062D01*
X132326832Y-90030410D01*
X132345552Y-90016526D01*
X132365543Y-90004544D01*
X132386613Y-89994579D01*
X132408557Y-89986727D01*
X132431166Y-89981063D01*
X132454221Y-89977644D01*
X132477500Y-89976500D01*
X132952500Y-89976500D01*
X132975779Y-89977644D01*
X132975779Y-89977644D01*
G37*
D13*
X132715000Y-90501500D03*
G04 #@! TD*
D10*
G04 #@! TO.C,R5*
G36*
X139770779Y-94204644D02*
X139793834Y-94208063D01*
X139816443Y-94213727D01*
X139838387Y-94221579D01*
X139859457Y-94231544D01*
X139879448Y-94243526D01*
X139898168Y-94257410D01*
X139915438Y-94273062D01*
X139931090Y-94290332D01*
X139944974Y-94309052D01*
X139956956Y-94329043D01*
X139966921Y-94350113D01*
X139974773Y-94372057D01*
X139980437Y-94394666D01*
X139983856Y-94417721D01*
X139985000Y-94441000D01*
X139985000Y-94916000D01*
X139983856Y-94939279D01*
X139980437Y-94962334D01*
X139974773Y-94984943D01*
X139966921Y-95006887D01*
X139956956Y-95027957D01*
X139944974Y-95047948D01*
X139931090Y-95066668D01*
X139915438Y-95083938D01*
X139898168Y-95099590D01*
X139879448Y-95113474D01*
X139859457Y-95125456D01*
X139838387Y-95135421D01*
X139816443Y-95143273D01*
X139793834Y-95148937D01*
X139770779Y-95152356D01*
X139747500Y-95153500D01*
X139172500Y-95153500D01*
X139149221Y-95152356D01*
X139126166Y-95148937D01*
X139103557Y-95143273D01*
X139081613Y-95135421D01*
X139060543Y-95125456D01*
X139040552Y-95113474D01*
X139021832Y-95099590D01*
X139004562Y-95083938D01*
X138988910Y-95066668D01*
X138975026Y-95047948D01*
X138963044Y-95027957D01*
X138953079Y-95006887D01*
X138945227Y-94984943D01*
X138939563Y-94962334D01*
X138936144Y-94939279D01*
X138935000Y-94916000D01*
X138935000Y-94441000D01*
X138936144Y-94417721D01*
X138939563Y-94394666D01*
X138945227Y-94372057D01*
X138953079Y-94350113D01*
X138963044Y-94329043D01*
X138975026Y-94309052D01*
X138988910Y-94290332D01*
X139004562Y-94273062D01*
X139021832Y-94257410D01*
X139040552Y-94243526D01*
X139060543Y-94231544D01*
X139081613Y-94221579D01*
X139103557Y-94213727D01*
X139126166Y-94208063D01*
X139149221Y-94204644D01*
X139172500Y-94203500D01*
X139747500Y-94203500D01*
X139770779Y-94204644D01*
X139770779Y-94204644D01*
G37*
D13*
X139460000Y-94678500D03*
D10*
G36*
X141520779Y-94204644D02*
X141543834Y-94208063D01*
X141566443Y-94213727D01*
X141588387Y-94221579D01*
X141609457Y-94231544D01*
X141629448Y-94243526D01*
X141648168Y-94257410D01*
X141665438Y-94273062D01*
X141681090Y-94290332D01*
X141694974Y-94309052D01*
X141706956Y-94329043D01*
X141716921Y-94350113D01*
X141724773Y-94372057D01*
X141730437Y-94394666D01*
X141733856Y-94417721D01*
X141735000Y-94441000D01*
X141735000Y-94916000D01*
X141733856Y-94939279D01*
X141730437Y-94962334D01*
X141724773Y-94984943D01*
X141716921Y-95006887D01*
X141706956Y-95027957D01*
X141694974Y-95047948D01*
X141681090Y-95066668D01*
X141665438Y-95083938D01*
X141648168Y-95099590D01*
X141629448Y-95113474D01*
X141609457Y-95125456D01*
X141588387Y-95135421D01*
X141566443Y-95143273D01*
X141543834Y-95148937D01*
X141520779Y-95152356D01*
X141497500Y-95153500D01*
X140922500Y-95153500D01*
X140899221Y-95152356D01*
X140876166Y-95148937D01*
X140853557Y-95143273D01*
X140831613Y-95135421D01*
X140810543Y-95125456D01*
X140790552Y-95113474D01*
X140771832Y-95099590D01*
X140754562Y-95083938D01*
X140738910Y-95066668D01*
X140725026Y-95047948D01*
X140713044Y-95027957D01*
X140703079Y-95006887D01*
X140695227Y-94984943D01*
X140689563Y-94962334D01*
X140686144Y-94939279D01*
X140685000Y-94916000D01*
X140685000Y-94441000D01*
X140686144Y-94417721D01*
X140689563Y-94394666D01*
X140695227Y-94372057D01*
X140703079Y-94350113D01*
X140713044Y-94329043D01*
X140725026Y-94309052D01*
X140738910Y-94290332D01*
X140754562Y-94273062D01*
X140771832Y-94257410D01*
X140790552Y-94243526D01*
X140810543Y-94231544D01*
X140831613Y-94221579D01*
X140853557Y-94213727D01*
X140876166Y-94208063D01*
X140899221Y-94204644D01*
X140922500Y-94203500D01*
X141497500Y-94203500D01*
X141520779Y-94204644D01*
X141520779Y-94204644D01*
G37*
D13*
X141210000Y-94678500D03*
G04 #@! TD*
D10*
G04 #@! TO.C,R6*
G36*
X141520779Y-92553644D02*
X141543834Y-92557063D01*
X141566443Y-92562727D01*
X141588387Y-92570579D01*
X141609457Y-92580544D01*
X141629448Y-92592526D01*
X141648168Y-92606410D01*
X141665438Y-92622062D01*
X141681090Y-92639332D01*
X141694974Y-92658052D01*
X141706956Y-92678043D01*
X141716921Y-92699113D01*
X141724773Y-92721057D01*
X141730437Y-92743666D01*
X141733856Y-92766721D01*
X141735000Y-92790000D01*
X141735000Y-93265000D01*
X141733856Y-93288279D01*
X141730437Y-93311334D01*
X141724773Y-93333943D01*
X141716921Y-93355887D01*
X141706956Y-93376957D01*
X141694974Y-93396948D01*
X141681090Y-93415668D01*
X141665438Y-93432938D01*
X141648168Y-93448590D01*
X141629448Y-93462474D01*
X141609457Y-93474456D01*
X141588387Y-93484421D01*
X141566443Y-93492273D01*
X141543834Y-93497937D01*
X141520779Y-93501356D01*
X141497500Y-93502500D01*
X140922500Y-93502500D01*
X140899221Y-93501356D01*
X140876166Y-93497937D01*
X140853557Y-93492273D01*
X140831613Y-93484421D01*
X140810543Y-93474456D01*
X140790552Y-93462474D01*
X140771832Y-93448590D01*
X140754562Y-93432938D01*
X140738910Y-93415668D01*
X140725026Y-93396948D01*
X140713044Y-93376957D01*
X140703079Y-93355887D01*
X140695227Y-93333943D01*
X140689563Y-93311334D01*
X140686144Y-93288279D01*
X140685000Y-93265000D01*
X140685000Y-92790000D01*
X140686144Y-92766721D01*
X140689563Y-92743666D01*
X140695227Y-92721057D01*
X140703079Y-92699113D01*
X140713044Y-92678043D01*
X140725026Y-92658052D01*
X140738910Y-92639332D01*
X140754562Y-92622062D01*
X140771832Y-92606410D01*
X140790552Y-92592526D01*
X140810543Y-92580544D01*
X140831613Y-92570579D01*
X140853557Y-92562727D01*
X140876166Y-92557063D01*
X140899221Y-92553644D01*
X140922500Y-92552500D01*
X141497500Y-92552500D01*
X141520779Y-92553644D01*
X141520779Y-92553644D01*
G37*
D13*
X141210000Y-93027500D03*
D10*
G36*
X139770779Y-92553644D02*
X139793834Y-92557063D01*
X139816443Y-92562727D01*
X139838387Y-92570579D01*
X139859457Y-92580544D01*
X139879448Y-92592526D01*
X139898168Y-92606410D01*
X139915438Y-92622062D01*
X139931090Y-92639332D01*
X139944974Y-92658052D01*
X139956956Y-92678043D01*
X139966921Y-92699113D01*
X139974773Y-92721057D01*
X139980437Y-92743666D01*
X139983856Y-92766721D01*
X139985000Y-92790000D01*
X139985000Y-93265000D01*
X139983856Y-93288279D01*
X139980437Y-93311334D01*
X139974773Y-93333943D01*
X139966921Y-93355887D01*
X139956956Y-93376957D01*
X139944974Y-93396948D01*
X139931090Y-93415668D01*
X139915438Y-93432938D01*
X139898168Y-93448590D01*
X139879448Y-93462474D01*
X139859457Y-93474456D01*
X139838387Y-93484421D01*
X139816443Y-93492273D01*
X139793834Y-93497937D01*
X139770779Y-93501356D01*
X139747500Y-93502500D01*
X139172500Y-93502500D01*
X139149221Y-93501356D01*
X139126166Y-93497937D01*
X139103557Y-93492273D01*
X139081613Y-93484421D01*
X139060543Y-93474456D01*
X139040552Y-93462474D01*
X139021832Y-93448590D01*
X139004562Y-93432938D01*
X138988910Y-93415668D01*
X138975026Y-93396948D01*
X138963044Y-93376957D01*
X138953079Y-93355887D01*
X138945227Y-93333943D01*
X138939563Y-93311334D01*
X138936144Y-93288279D01*
X138935000Y-93265000D01*
X138935000Y-92790000D01*
X138936144Y-92766721D01*
X138939563Y-92743666D01*
X138945227Y-92721057D01*
X138953079Y-92699113D01*
X138963044Y-92678043D01*
X138975026Y-92658052D01*
X138988910Y-92639332D01*
X139004562Y-92622062D01*
X139021832Y-92606410D01*
X139040552Y-92592526D01*
X139060543Y-92580544D01*
X139081613Y-92570579D01*
X139103557Y-92562727D01*
X139126166Y-92557063D01*
X139149221Y-92553644D01*
X139172500Y-92552500D01*
X139747500Y-92552500D01*
X139770779Y-92553644D01*
X139770779Y-92553644D01*
G37*
D13*
X139460000Y-93027500D03*
G04 #@! TD*
D10*
G04 #@! TO.C,R7*
G36*
X139770779Y-90775644D02*
X139793834Y-90779063D01*
X139816443Y-90784727D01*
X139838387Y-90792579D01*
X139859457Y-90802544D01*
X139879448Y-90814526D01*
X139898168Y-90828410D01*
X139915438Y-90844062D01*
X139931090Y-90861332D01*
X139944974Y-90880052D01*
X139956956Y-90900043D01*
X139966921Y-90921113D01*
X139974773Y-90943057D01*
X139980437Y-90965666D01*
X139983856Y-90988721D01*
X139985000Y-91012000D01*
X139985000Y-91487000D01*
X139983856Y-91510279D01*
X139980437Y-91533334D01*
X139974773Y-91555943D01*
X139966921Y-91577887D01*
X139956956Y-91598957D01*
X139944974Y-91618948D01*
X139931090Y-91637668D01*
X139915438Y-91654938D01*
X139898168Y-91670590D01*
X139879448Y-91684474D01*
X139859457Y-91696456D01*
X139838387Y-91706421D01*
X139816443Y-91714273D01*
X139793834Y-91719937D01*
X139770779Y-91723356D01*
X139747500Y-91724500D01*
X139172500Y-91724500D01*
X139149221Y-91723356D01*
X139126166Y-91719937D01*
X139103557Y-91714273D01*
X139081613Y-91706421D01*
X139060543Y-91696456D01*
X139040552Y-91684474D01*
X139021832Y-91670590D01*
X139004562Y-91654938D01*
X138988910Y-91637668D01*
X138975026Y-91618948D01*
X138963044Y-91598957D01*
X138953079Y-91577887D01*
X138945227Y-91555943D01*
X138939563Y-91533334D01*
X138936144Y-91510279D01*
X138935000Y-91487000D01*
X138935000Y-91012000D01*
X138936144Y-90988721D01*
X138939563Y-90965666D01*
X138945227Y-90943057D01*
X138953079Y-90921113D01*
X138963044Y-90900043D01*
X138975026Y-90880052D01*
X138988910Y-90861332D01*
X139004562Y-90844062D01*
X139021832Y-90828410D01*
X139040552Y-90814526D01*
X139060543Y-90802544D01*
X139081613Y-90792579D01*
X139103557Y-90784727D01*
X139126166Y-90779063D01*
X139149221Y-90775644D01*
X139172500Y-90774500D01*
X139747500Y-90774500D01*
X139770779Y-90775644D01*
X139770779Y-90775644D01*
G37*
D13*
X139460000Y-91249500D03*
D10*
G36*
X141520779Y-90775644D02*
X141543834Y-90779063D01*
X141566443Y-90784727D01*
X141588387Y-90792579D01*
X141609457Y-90802544D01*
X141629448Y-90814526D01*
X141648168Y-90828410D01*
X141665438Y-90844062D01*
X141681090Y-90861332D01*
X141694974Y-90880052D01*
X141706956Y-90900043D01*
X141716921Y-90921113D01*
X141724773Y-90943057D01*
X141730437Y-90965666D01*
X141733856Y-90988721D01*
X141735000Y-91012000D01*
X141735000Y-91487000D01*
X141733856Y-91510279D01*
X141730437Y-91533334D01*
X141724773Y-91555943D01*
X141716921Y-91577887D01*
X141706956Y-91598957D01*
X141694974Y-91618948D01*
X141681090Y-91637668D01*
X141665438Y-91654938D01*
X141648168Y-91670590D01*
X141629448Y-91684474D01*
X141609457Y-91696456D01*
X141588387Y-91706421D01*
X141566443Y-91714273D01*
X141543834Y-91719937D01*
X141520779Y-91723356D01*
X141497500Y-91724500D01*
X140922500Y-91724500D01*
X140899221Y-91723356D01*
X140876166Y-91719937D01*
X140853557Y-91714273D01*
X140831613Y-91706421D01*
X140810543Y-91696456D01*
X140790552Y-91684474D01*
X140771832Y-91670590D01*
X140754562Y-91654938D01*
X140738910Y-91637668D01*
X140725026Y-91618948D01*
X140713044Y-91598957D01*
X140703079Y-91577887D01*
X140695227Y-91555943D01*
X140689563Y-91533334D01*
X140686144Y-91510279D01*
X140685000Y-91487000D01*
X140685000Y-91012000D01*
X140686144Y-90988721D01*
X140689563Y-90965666D01*
X140695227Y-90943057D01*
X140703079Y-90921113D01*
X140713044Y-90900043D01*
X140725026Y-90880052D01*
X140738910Y-90861332D01*
X140754562Y-90844062D01*
X140771832Y-90828410D01*
X140790552Y-90814526D01*
X140810543Y-90802544D01*
X140831613Y-90792579D01*
X140853557Y-90784727D01*
X140876166Y-90779063D01*
X140899221Y-90775644D01*
X140922500Y-90774500D01*
X141497500Y-90774500D01*
X141520779Y-90775644D01*
X141520779Y-90775644D01*
G37*
D13*
X141210000Y-91249500D03*
G04 #@! TD*
D10*
G04 #@! TO.C,R8*
G36*
X135769779Y-91727644D02*
X135792834Y-91731063D01*
X135815443Y-91736727D01*
X135837387Y-91744579D01*
X135858457Y-91754544D01*
X135878448Y-91766526D01*
X135897168Y-91780410D01*
X135914438Y-91796062D01*
X135930090Y-91813332D01*
X135943974Y-91832052D01*
X135955956Y-91852043D01*
X135965921Y-91873113D01*
X135973773Y-91895057D01*
X135979437Y-91917666D01*
X135982856Y-91940721D01*
X135984000Y-91964000D01*
X135984000Y-92539000D01*
X135982856Y-92562279D01*
X135979437Y-92585334D01*
X135973773Y-92607943D01*
X135965921Y-92629887D01*
X135955956Y-92650957D01*
X135943974Y-92670948D01*
X135930090Y-92689668D01*
X135914438Y-92706938D01*
X135897168Y-92722590D01*
X135878448Y-92736474D01*
X135858457Y-92748456D01*
X135837387Y-92758421D01*
X135815443Y-92766273D01*
X135792834Y-92771937D01*
X135769779Y-92775356D01*
X135746500Y-92776500D01*
X135271500Y-92776500D01*
X135248221Y-92775356D01*
X135225166Y-92771937D01*
X135202557Y-92766273D01*
X135180613Y-92758421D01*
X135159543Y-92748456D01*
X135139552Y-92736474D01*
X135120832Y-92722590D01*
X135103562Y-92706938D01*
X135087910Y-92689668D01*
X135074026Y-92670948D01*
X135062044Y-92650957D01*
X135052079Y-92629887D01*
X135044227Y-92607943D01*
X135038563Y-92585334D01*
X135035144Y-92562279D01*
X135034000Y-92539000D01*
X135034000Y-91964000D01*
X135035144Y-91940721D01*
X135038563Y-91917666D01*
X135044227Y-91895057D01*
X135052079Y-91873113D01*
X135062044Y-91852043D01*
X135074026Y-91832052D01*
X135087910Y-91813332D01*
X135103562Y-91796062D01*
X135120832Y-91780410D01*
X135139552Y-91766526D01*
X135159543Y-91754544D01*
X135180613Y-91744579D01*
X135202557Y-91736727D01*
X135225166Y-91731063D01*
X135248221Y-91727644D01*
X135271500Y-91726500D01*
X135746500Y-91726500D01*
X135769779Y-91727644D01*
X135769779Y-91727644D01*
G37*
D13*
X135509000Y-92251500D03*
D10*
G36*
X135769779Y-89977644D02*
X135792834Y-89981063D01*
X135815443Y-89986727D01*
X135837387Y-89994579D01*
X135858457Y-90004544D01*
X135878448Y-90016526D01*
X135897168Y-90030410D01*
X135914438Y-90046062D01*
X135930090Y-90063332D01*
X135943974Y-90082052D01*
X135955956Y-90102043D01*
X135965921Y-90123113D01*
X135973773Y-90145057D01*
X135979437Y-90167666D01*
X135982856Y-90190721D01*
X135984000Y-90214000D01*
X135984000Y-90789000D01*
X135982856Y-90812279D01*
X135979437Y-90835334D01*
X135973773Y-90857943D01*
X135965921Y-90879887D01*
X135955956Y-90900957D01*
X135943974Y-90920948D01*
X135930090Y-90939668D01*
X135914438Y-90956938D01*
X135897168Y-90972590D01*
X135878448Y-90986474D01*
X135858457Y-90998456D01*
X135837387Y-91008421D01*
X135815443Y-91016273D01*
X135792834Y-91021937D01*
X135769779Y-91025356D01*
X135746500Y-91026500D01*
X135271500Y-91026500D01*
X135248221Y-91025356D01*
X135225166Y-91021937D01*
X135202557Y-91016273D01*
X135180613Y-91008421D01*
X135159543Y-90998456D01*
X135139552Y-90986474D01*
X135120832Y-90972590D01*
X135103562Y-90956938D01*
X135087910Y-90939668D01*
X135074026Y-90920948D01*
X135062044Y-90900957D01*
X135052079Y-90879887D01*
X135044227Y-90857943D01*
X135038563Y-90835334D01*
X135035144Y-90812279D01*
X135034000Y-90789000D01*
X135034000Y-90214000D01*
X135035144Y-90190721D01*
X135038563Y-90167666D01*
X135044227Y-90145057D01*
X135052079Y-90123113D01*
X135062044Y-90102043D01*
X135074026Y-90082052D01*
X135087910Y-90063332D01*
X135103562Y-90046062D01*
X135120832Y-90030410D01*
X135139552Y-90016526D01*
X135159543Y-90004544D01*
X135180613Y-89994579D01*
X135202557Y-89986727D01*
X135225166Y-89981063D01*
X135248221Y-89977644D01*
X135271500Y-89976500D01*
X135746500Y-89976500D01*
X135769779Y-89977644D01*
X135769779Y-89977644D01*
G37*
D13*
X135509000Y-90501500D03*
G04 #@! TD*
D10*
G04 #@! TO.C,R9*
G36*
X138754779Y-111222644D02*
X138777834Y-111226063D01*
X138800443Y-111231727D01*
X138822387Y-111239579D01*
X138843457Y-111249544D01*
X138863448Y-111261526D01*
X138882168Y-111275410D01*
X138899438Y-111291062D01*
X138915090Y-111308332D01*
X138928974Y-111327052D01*
X138940956Y-111347043D01*
X138950921Y-111368113D01*
X138958773Y-111390057D01*
X138964437Y-111412666D01*
X138967856Y-111435721D01*
X138969000Y-111459000D01*
X138969000Y-111934000D01*
X138967856Y-111957279D01*
X138964437Y-111980334D01*
X138958773Y-112002943D01*
X138950921Y-112024887D01*
X138940956Y-112045957D01*
X138928974Y-112065948D01*
X138915090Y-112084668D01*
X138899438Y-112101938D01*
X138882168Y-112117590D01*
X138863448Y-112131474D01*
X138843457Y-112143456D01*
X138822387Y-112153421D01*
X138800443Y-112161273D01*
X138777834Y-112166937D01*
X138754779Y-112170356D01*
X138731500Y-112171500D01*
X138156500Y-112171500D01*
X138133221Y-112170356D01*
X138110166Y-112166937D01*
X138087557Y-112161273D01*
X138065613Y-112153421D01*
X138044543Y-112143456D01*
X138024552Y-112131474D01*
X138005832Y-112117590D01*
X137988562Y-112101938D01*
X137972910Y-112084668D01*
X137959026Y-112065948D01*
X137947044Y-112045957D01*
X137937079Y-112024887D01*
X137929227Y-112002943D01*
X137923563Y-111980334D01*
X137920144Y-111957279D01*
X137919000Y-111934000D01*
X137919000Y-111459000D01*
X137920144Y-111435721D01*
X137923563Y-111412666D01*
X137929227Y-111390057D01*
X137937079Y-111368113D01*
X137947044Y-111347043D01*
X137959026Y-111327052D01*
X137972910Y-111308332D01*
X137988562Y-111291062D01*
X138005832Y-111275410D01*
X138024552Y-111261526D01*
X138044543Y-111249544D01*
X138065613Y-111239579D01*
X138087557Y-111231727D01*
X138110166Y-111226063D01*
X138133221Y-111222644D01*
X138156500Y-111221500D01*
X138731500Y-111221500D01*
X138754779Y-111222644D01*
X138754779Y-111222644D01*
G37*
D13*
X138444000Y-111696500D03*
D10*
G36*
X140504779Y-111222644D02*
X140527834Y-111226063D01*
X140550443Y-111231727D01*
X140572387Y-111239579D01*
X140593457Y-111249544D01*
X140613448Y-111261526D01*
X140632168Y-111275410D01*
X140649438Y-111291062D01*
X140665090Y-111308332D01*
X140678974Y-111327052D01*
X140690956Y-111347043D01*
X140700921Y-111368113D01*
X140708773Y-111390057D01*
X140714437Y-111412666D01*
X140717856Y-111435721D01*
X140719000Y-111459000D01*
X140719000Y-111934000D01*
X140717856Y-111957279D01*
X140714437Y-111980334D01*
X140708773Y-112002943D01*
X140700921Y-112024887D01*
X140690956Y-112045957D01*
X140678974Y-112065948D01*
X140665090Y-112084668D01*
X140649438Y-112101938D01*
X140632168Y-112117590D01*
X140613448Y-112131474D01*
X140593457Y-112143456D01*
X140572387Y-112153421D01*
X140550443Y-112161273D01*
X140527834Y-112166937D01*
X140504779Y-112170356D01*
X140481500Y-112171500D01*
X139906500Y-112171500D01*
X139883221Y-112170356D01*
X139860166Y-112166937D01*
X139837557Y-112161273D01*
X139815613Y-112153421D01*
X139794543Y-112143456D01*
X139774552Y-112131474D01*
X139755832Y-112117590D01*
X139738562Y-112101938D01*
X139722910Y-112084668D01*
X139709026Y-112065948D01*
X139697044Y-112045957D01*
X139687079Y-112024887D01*
X139679227Y-112002943D01*
X139673563Y-111980334D01*
X139670144Y-111957279D01*
X139669000Y-111934000D01*
X139669000Y-111459000D01*
X139670144Y-111435721D01*
X139673563Y-111412666D01*
X139679227Y-111390057D01*
X139687079Y-111368113D01*
X139697044Y-111347043D01*
X139709026Y-111327052D01*
X139722910Y-111308332D01*
X139738562Y-111291062D01*
X139755832Y-111275410D01*
X139774552Y-111261526D01*
X139794543Y-111249544D01*
X139815613Y-111239579D01*
X139837557Y-111231727D01*
X139860166Y-111226063D01*
X139883221Y-111222644D01*
X139906500Y-111221500D01*
X140481500Y-111221500D01*
X140504779Y-111222644D01*
X140504779Y-111222644D01*
G37*
D13*
X140194000Y-111696500D03*
G04 #@! TD*
D10*
G04 #@! TO.C,R10*
G36*
X138754779Y-113000644D02*
X138777834Y-113004063D01*
X138800443Y-113009727D01*
X138822387Y-113017579D01*
X138843457Y-113027544D01*
X138863448Y-113039526D01*
X138882168Y-113053410D01*
X138899438Y-113069062D01*
X138915090Y-113086332D01*
X138928974Y-113105052D01*
X138940956Y-113125043D01*
X138950921Y-113146113D01*
X138958773Y-113168057D01*
X138964437Y-113190666D01*
X138967856Y-113213721D01*
X138969000Y-113237000D01*
X138969000Y-113712000D01*
X138967856Y-113735279D01*
X138964437Y-113758334D01*
X138958773Y-113780943D01*
X138950921Y-113802887D01*
X138940956Y-113823957D01*
X138928974Y-113843948D01*
X138915090Y-113862668D01*
X138899438Y-113879938D01*
X138882168Y-113895590D01*
X138863448Y-113909474D01*
X138843457Y-113921456D01*
X138822387Y-113931421D01*
X138800443Y-113939273D01*
X138777834Y-113944937D01*
X138754779Y-113948356D01*
X138731500Y-113949500D01*
X138156500Y-113949500D01*
X138133221Y-113948356D01*
X138110166Y-113944937D01*
X138087557Y-113939273D01*
X138065613Y-113931421D01*
X138044543Y-113921456D01*
X138024552Y-113909474D01*
X138005832Y-113895590D01*
X137988562Y-113879938D01*
X137972910Y-113862668D01*
X137959026Y-113843948D01*
X137947044Y-113823957D01*
X137937079Y-113802887D01*
X137929227Y-113780943D01*
X137923563Y-113758334D01*
X137920144Y-113735279D01*
X137919000Y-113712000D01*
X137919000Y-113237000D01*
X137920144Y-113213721D01*
X137923563Y-113190666D01*
X137929227Y-113168057D01*
X137937079Y-113146113D01*
X137947044Y-113125043D01*
X137959026Y-113105052D01*
X137972910Y-113086332D01*
X137988562Y-113069062D01*
X138005832Y-113053410D01*
X138024552Y-113039526D01*
X138044543Y-113027544D01*
X138065613Y-113017579D01*
X138087557Y-113009727D01*
X138110166Y-113004063D01*
X138133221Y-113000644D01*
X138156500Y-112999500D01*
X138731500Y-112999500D01*
X138754779Y-113000644D01*
X138754779Y-113000644D01*
G37*
D13*
X138444000Y-113474500D03*
D10*
G36*
X140504779Y-113000644D02*
X140527834Y-113004063D01*
X140550443Y-113009727D01*
X140572387Y-113017579D01*
X140593457Y-113027544D01*
X140613448Y-113039526D01*
X140632168Y-113053410D01*
X140649438Y-113069062D01*
X140665090Y-113086332D01*
X140678974Y-113105052D01*
X140690956Y-113125043D01*
X140700921Y-113146113D01*
X140708773Y-113168057D01*
X140714437Y-113190666D01*
X140717856Y-113213721D01*
X140719000Y-113237000D01*
X140719000Y-113712000D01*
X140717856Y-113735279D01*
X140714437Y-113758334D01*
X140708773Y-113780943D01*
X140700921Y-113802887D01*
X140690956Y-113823957D01*
X140678974Y-113843948D01*
X140665090Y-113862668D01*
X140649438Y-113879938D01*
X140632168Y-113895590D01*
X140613448Y-113909474D01*
X140593457Y-113921456D01*
X140572387Y-113931421D01*
X140550443Y-113939273D01*
X140527834Y-113944937D01*
X140504779Y-113948356D01*
X140481500Y-113949500D01*
X139906500Y-113949500D01*
X139883221Y-113948356D01*
X139860166Y-113944937D01*
X139837557Y-113939273D01*
X139815613Y-113931421D01*
X139794543Y-113921456D01*
X139774552Y-113909474D01*
X139755832Y-113895590D01*
X139738562Y-113879938D01*
X139722910Y-113862668D01*
X139709026Y-113843948D01*
X139697044Y-113823957D01*
X139687079Y-113802887D01*
X139679227Y-113780943D01*
X139673563Y-113758334D01*
X139670144Y-113735279D01*
X139669000Y-113712000D01*
X139669000Y-113237000D01*
X139670144Y-113213721D01*
X139673563Y-113190666D01*
X139679227Y-113168057D01*
X139687079Y-113146113D01*
X139697044Y-113125043D01*
X139709026Y-113105052D01*
X139722910Y-113086332D01*
X139738562Y-113069062D01*
X139755832Y-113053410D01*
X139774552Y-113039526D01*
X139794543Y-113027544D01*
X139815613Y-113017579D01*
X139837557Y-113009727D01*
X139860166Y-113004063D01*
X139883221Y-113000644D01*
X139906500Y-112999500D01*
X140481500Y-112999500D01*
X140504779Y-113000644D01*
X140504779Y-113000644D01*
G37*
D13*
X140194000Y-113474500D03*
G04 #@! TD*
D10*
G04 #@! TO.C,R11*
G36*
X125101779Y-111059644D02*
X125124834Y-111063063D01*
X125147443Y-111068727D01*
X125169387Y-111076579D01*
X125190457Y-111086544D01*
X125210448Y-111098526D01*
X125229168Y-111112410D01*
X125246438Y-111128062D01*
X125262090Y-111145332D01*
X125275974Y-111164052D01*
X125287956Y-111184043D01*
X125297921Y-111205113D01*
X125305773Y-111227057D01*
X125311437Y-111249666D01*
X125314856Y-111272721D01*
X125316000Y-111296000D01*
X125316000Y-111871000D01*
X125314856Y-111894279D01*
X125311437Y-111917334D01*
X125305773Y-111939943D01*
X125297921Y-111961887D01*
X125287956Y-111982957D01*
X125275974Y-112002948D01*
X125262090Y-112021668D01*
X125246438Y-112038938D01*
X125229168Y-112054590D01*
X125210448Y-112068474D01*
X125190457Y-112080456D01*
X125169387Y-112090421D01*
X125147443Y-112098273D01*
X125124834Y-112103937D01*
X125101779Y-112107356D01*
X125078500Y-112108500D01*
X124603500Y-112108500D01*
X124580221Y-112107356D01*
X124557166Y-112103937D01*
X124534557Y-112098273D01*
X124512613Y-112090421D01*
X124491543Y-112080456D01*
X124471552Y-112068474D01*
X124452832Y-112054590D01*
X124435562Y-112038938D01*
X124419910Y-112021668D01*
X124406026Y-112002948D01*
X124394044Y-111982957D01*
X124384079Y-111961887D01*
X124376227Y-111939943D01*
X124370563Y-111917334D01*
X124367144Y-111894279D01*
X124366000Y-111871000D01*
X124366000Y-111296000D01*
X124367144Y-111272721D01*
X124370563Y-111249666D01*
X124376227Y-111227057D01*
X124384079Y-111205113D01*
X124394044Y-111184043D01*
X124406026Y-111164052D01*
X124419910Y-111145332D01*
X124435562Y-111128062D01*
X124452832Y-111112410D01*
X124471552Y-111098526D01*
X124491543Y-111086544D01*
X124512613Y-111076579D01*
X124534557Y-111068727D01*
X124557166Y-111063063D01*
X124580221Y-111059644D01*
X124603500Y-111058500D01*
X125078500Y-111058500D01*
X125101779Y-111059644D01*
X125101779Y-111059644D01*
G37*
D13*
X124841000Y-111583500D03*
D10*
G36*
X125101779Y-112809644D02*
X125124834Y-112813063D01*
X125147443Y-112818727D01*
X125169387Y-112826579D01*
X125190457Y-112836544D01*
X125210448Y-112848526D01*
X125229168Y-112862410D01*
X125246438Y-112878062D01*
X125262090Y-112895332D01*
X125275974Y-112914052D01*
X125287956Y-112934043D01*
X125297921Y-112955113D01*
X125305773Y-112977057D01*
X125311437Y-112999666D01*
X125314856Y-113022721D01*
X125316000Y-113046000D01*
X125316000Y-113621000D01*
X125314856Y-113644279D01*
X125311437Y-113667334D01*
X125305773Y-113689943D01*
X125297921Y-113711887D01*
X125287956Y-113732957D01*
X125275974Y-113752948D01*
X125262090Y-113771668D01*
X125246438Y-113788938D01*
X125229168Y-113804590D01*
X125210448Y-113818474D01*
X125190457Y-113830456D01*
X125169387Y-113840421D01*
X125147443Y-113848273D01*
X125124834Y-113853937D01*
X125101779Y-113857356D01*
X125078500Y-113858500D01*
X124603500Y-113858500D01*
X124580221Y-113857356D01*
X124557166Y-113853937D01*
X124534557Y-113848273D01*
X124512613Y-113840421D01*
X124491543Y-113830456D01*
X124471552Y-113818474D01*
X124452832Y-113804590D01*
X124435562Y-113788938D01*
X124419910Y-113771668D01*
X124406026Y-113752948D01*
X124394044Y-113732957D01*
X124384079Y-113711887D01*
X124376227Y-113689943D01*
X124370563Y-113667334D01*
X124367144Y-113644279D01*
X124366000Y-113621000D01*
X124366000Y-113046000D01*
X124367144Y-113022721D01*
X124370563Y-112999666D01*
X124376227Y-112977057D01*
X124384079Y-112955113D01*
X124394044Y-112934043D01*
X124406026Y-112914052D01*
X124419910Y-112895332D01*
X124435562Y-112878062D01*
X124452832Y-112862410D01*
X124471552Y-112848526D01*
X124491543Y-112836544D01*
X124512613Y-112826579D01*
X124534557Y-112818727D01*
X124557166Y-112813063D01*
X124580221Y-112809644D01*
X124603500Y-112808500D01*
X125078500Y-112808500D01*
X125101779Y-112809644D01*
X125101779Y-112809644D01*
G37*
D13*
X124841000Y-113333500D03*
G04 #@! TD*
D10*
G04 #@! TO.C,R12*
G36*
X131959779Y-112809644D02*
X131982834Y-112813063D01*
X132005443Y-112818727D01*
X132027387Y-112826579D01*
X132048457Y-112836544D01*
X132068448Y-112848526D01*
X132087168Y-112862410D01*
X132104438Y-112878062D01*
X132120090Y-112895332D01*
X132133974Y-112914052D01*
X132145956Y-112934043D01*
X132155921Y-112955113D01*
X132163773Y-112977057D01*
X132169437Y-112999666D01*
X132172856Y-113022721D01*
X132174000Y-113046000D01*
X132174000Y-113621000D01*
X132172856Y-113644279D01*
X132169437Y-113667334D01*
X132163773Y-113689943D01*
X132155921Y-113711887D01*
X132145956Y-113732957D01*
X132133974Y-113752948D01*
X132120090Y-113771668D01*
X132104438Y-113788938D01*
X132087168Y-113804590D01*
X132068448Y-113818474D01*
X132048457Y-113830456D01*
X132027387Y-113840421D01*
X132005443Y-113848273D01*
X131982834Y-113853937D01*
X131959779Y-113857356D01*
X131936500Y-113858500D01*
X131461500Y-113858500D01*
X131438221Y-113857356D01*
X131415166Y-113853937D01*
X131392557Y-113848273D01*
X131370613Y-113840421D01*
X131349543Y-113830456D01*
X131329552Y-113818474D01*
X131310832Y-113804590D01*
X131293562Y-113788938D01*
X131277910Y-113771668D01*
X131264026Y-113752948D01*
X131252044Y-113732957D01*
X131242079Y-113711887D01*
X131234227Y-113689943D01*
X131228563Y-113667334D01*
X131225144Y-113644279D01*
X131224000Y-113621000D01*
X131224000Y-113046000D01*
X131225144Y-113022721D01*
X131228563Y-112999666D01*
X131234227Y-112977057D01*
X131242079Y-112955113D01*
X131252044Y-112934043D01*
X131264026Y-112914052D01*
X131277910Y-112895332D01*
X131293562Y-112878062D01*
X131310832Y-112862410D01*
X131329552Y-112848526D01*
X131349543Y-112836544D01*
X131370613Y-112826579D01*
X131392557Y-112818727D01*
X131415166Y-112813063D01*
X131438221Y-112809644D01*
X131461500Y-112808500D01*
X131936500Y-112808500D01*
X131959779Y-112809644D01*
X131959779Y-112809644D01*
G37*
D13*
X131699000Y-113333500D03*
D10*
G36*
X131959779Y-111059644D02*
X131982834Y-111063063D01*
X132005443Y-111068727D01*
X132027387Y-111076579D01*
X132048457Y-111086544D01*
X132068448Y-111098526D01*
X132087168Y-111112410D01*
X132104438Y-111128062D01*
X132120090Y-111145332D01*
X132133974Y-111164052D01*
X132145956Y-111184043D01*
X132155921Y-111205113D01*
X132163773Y-111227057D01*
X132169437Y-111249666D01*
X132172856Y-111272721D01*
X132174000Y-111296000D01*
X132174000Y-111871000D01*
X132172856Y-111894279D01*
X132169437Y-111917334D01*
X132163773Y-111939943D01*
X132155921Y-111961887D01*
X132145956Y-111982957D01*
X132133974Y-112002948D01*
X132120090Y-112021668D01*
X132104438Y-112038938D01*
X132087168Y-112054590D01*
X132068448Y-112068474D01*
X132048457Y-112080456D01*
X132027387Y-112090421D01*
X132005443Y-112098273D01*
X131982834Y-112103937D01*
X131959779Y-112107356D01*
X131936500Y-112108500D01*
X131461500Y-112108500D01*
X131438221Y-112107356D01*
X131415166Y-112103937D01*
X131392557Y-112098273D01*
X131370613Y-112090421D01*
X131349543Y-112080456D01*
X131329552Y-112068474D01*
X131310832Y-112054590D01*
X131293562Y-112038938D01*
X131277910Y-112021668D01*
X131264026Y-112002948D01*
X131252044Y-111982957D01*
X131242079Y-111961887D01*
X131234227Y-111939943D01*
X131228563Y-111917334D01*
X131225144Y-111894279D01*
X131224000Y-111871000D01*
X131224000Y-111296000D01*
X131225144Y-111272721D01*
X131228563Y-111249666D01*
X131234227Y-111227057D01*
X131242079Y-111205113D01*
X131252044Y-111184043D01*
X131264026Y-111164052D01*
X131277910Y-111145332D01*
X131293562Y-111128062D01*
X131310832Y-111112410D01*
X131329552Y-111098526D01*
X131349543Y-111086544D01*
X131370613Y-111076579D01*
X131392557Y-111068727D01*
X131415166Y-111063063D01*
X131438221Y-111059644D01*
X131461500Y-111058500D01*
X131936500Y-111058500D01*
X131959779Y-111059644D01*
X131959779Y-111059644D01*
G37*
D13*
X131699000Y-111583500D03*
G04 #@! TD*
D21*
G04 #@! TO.C,SW1*
X121499000Y-109734500D03*
X118999000Y-109734500D03*
X116499000Y-109734500D03*
X116499000Y-112134500D03*
X118999000Y-112134500D03*
X121499000Y-112134500D03*
G04 #@! TD*
D22*
G04 #@! TO.C,SW2*
X122025000Y-97218500D03*
X112925000Y-97218500D03*
G04 #@! TD*
G04 #@! TO.C,SW3*
X133245000Y-108648500D03*
X142345000Y-108648500D03*
G04 #@! TD*
D23*
G04 #@! TO.C,U2*
X125726000Y-103903500D03*
X126376000Y-103903500D03*
X127026000Y-103903500D03*
X127676000Y-103903500D03*
X128326000Y-103903500D03*
X128976000Y-103903500D03*
X129626000Y-103903500D03*
X130276000Y-103903500D03*
X130926000Y-103903500D03*
X131576000Y-103903500D03*
X125726000Y-98153500D03*
X126376000Y-98153500D03*
X127026000Y-98153500D03*
X127676000Y-98153500D03*
X128326000Y-98153500D03*
X128976000Y-98153500D03*
X129626000Y-98153500D03*
X130276000Y-98153500D03*
X130926000Y-98153500D03*
X131576000Y-98153500D03*
G04 #@! TD*
D24*
G04 #@! TO.C,U4*
X127201000Y-112093500D03*
X127201000Y-113093500D03*
X127201000Y-114093500D03*
X130101000Y-114093500D03*
X130101000Y-113093500D03*
X130101000Y-112093500D03*
D25*
X128651000Y-113093500D03*
G04 #@! TD*
D26*
G04 #@! TO.C,VR1*
X108585000Y-103568500D03*
D27*
X110020000Y-102618500D03*
X110020000Y-103568500D03*
X110020000Y-104518500D03*
X107150000Y-104518500D03*
X107150000Y-103568500D03*
X107150000Y-102618500D03*
G04 #@! TD*
D28*
G04 #@! TO.C,Y1*
X147269000Y-110172500D03*
X156769000Y-110172500D03*
G04 #@! TD*
M02*
