G04 #@! TF.GenerationSoftware,KiCad,Pcbnew,(5.0.1)-3*
G04 #@! TF.CreationDate,2019-11-29T17:35:16+05:30*
G04 #@! TF.ProjectId,stm32f070-board,73746D3332663037302D626F6172642E,v1.0*
G04 #@! TF.SameCoordinates,Original*
G04 #@! TF.FileFunction,Legend,Top*
G04 #@! TF.FilePolarity,Positive*
%FSLAX46Y46*%
G04 Gerber Fmt 4.6, Leading zero omitted, Abs format (unit mm)*
G04 Created by KiCad (PCBNEW (5.0.1)-3) date 11/29/19 17:35:16*
%MOMM*%
%LPD*%
G01*
G04 APERTURE LIST*
%ADD10C,0.200000*%
%ADD11C,0.152400*%
%ADD12C,0.120000*%
%ADD13C,0.150000*%
%ADD14C,0.127000*%
%ADD15C,0.400000*%
%ADD16C,0.254000*%
%ADD17C,0.050000*%
G04 APERTURE END LIST*
D10*
X111238891Y-104806546D02*
G75*
G02X111988600Y-104343200I749709J-374854D01*
G01*
D11*
X144453428Y-90006714D02*
X144199428Y-89643857D01*
X144018000Y-90006714D02*
X144018000Y-89244714D01*
X144308285Y-89244714D01*
X144380857Y-89281000D01*
X144417142Y-89317285D01*
X144453428Y-89389857D01*
X144453428Y-89498714D01*
X144417142Y-89571285D01*
X144380857Y-89607571D01*
X144308285Y-89643857D01*
X144018000Y-89643857D01*
X145179142Y-89281000D02*
X145106571Y-89244714D01*
X144997714Y-89244714D01*
X144888857Y-89281000D01*
X144816285Y-89353571D01*
X144780000Y-89426142D01*
X144743714Y-89571285D01*
X144743714Y-89680142D01*
X144780000Y-89825285D01*
X144816285Y-89897857D01*
X144888857Y-89970428D01*
X144997714Y-90006714D01*
X145070285Y-90006714D01*
X145179142Y-89970428D01*
X145215428Y-89934142D01*
X145215428Y-89680142D01*
X145070285Y-89680142D01*
X145796000Y-89607571D02*
X145904857Y-89643857D01*
X145941142Y-89680142D01*
X145977428Y-89752714D01*
X145977428Y-89861571D01*
X145941142Y-89934142D01*
X145904857Y-89970428D01*
X145832285Y-90006714D01*
X145542000Y-90006714D01*
X145542000Y-89244714D01*
X145796000Y-89244714D01*
X145868571Y-89281000D01*
X145904857Y-89317285D01*
X145941142Y-89389857D01*
X145941142Y-89462428D01*
X145904857Y-89535000D01*
X145868571Y-89571285D01*
X145796000Y-89607571D01*
X145542000Y-89607571D01*
X147247428Y-90006714D02*
X146884571Y-90006714D01*
X146884571Y-89244714D01*
X147501428Y-89607571D02*
X147755428Y-89607571D01*
X147864285Y-90006714D02*
X147501428Y-90006714D01*
X147501428Y-89244714D01*
X147864285Y-89244714D01*
X148190857Y-90006714D02*
X148190857Y-89244714D01*
X148372285Y-89244714D01*
X148481142Y-89281000D01*
X148553714Y-89353571D01*
X148590000Y-89426142D01*
X148626285Y-89571285D01*
X148626285Y-89680142D01*
X148590000Y-89825285D01*
X148553714Y-89897857D01*
X148481142Y-89970428D01*
X148372285Y-90006714D01*
X148190857Y-90006714D01*
X117130285Y-114245571D02*
X117239142Y-114281857D01*
X117275428Y-114318142D01*
X117311714Y-114390714D01*
X117311714Y-114499571D01*
X117275428Y-114572142D01*
X117239142Y-114608428D01*
X117166571Y-114644714D01*
X116876285Y-114644714D01*
X116876285Y-113882714D01*
X117130285Y-113882714D01*
X117202857Y-113919000D01*
X117239142Y-113955285D01*
X117275428Y-114027857D01*
X117275428Y-114100428D01*
X117239142Y-114173000D01*
X117202857Y-114209285D01*
X117130285Y-114245571D01*
X116876285Y-114245571D01*
X118037428Y-114644714D02*
X117602000Y-114644714D01*
X117819714Y-114644714D02*
X117819714Y-113882714D01*
X117747142Y-113991571D01*
X117674571Y-114064142D01*
X117602000Y-114100428D01*
X119126000Y-114898714D02*
X119126000Y-113810142D01*
X120504857Y-114245571D02*
X120613714Y-114281857D01*
X120650000Y-114318142D01*
X120686285Y-114390714D01*
X120686285Y-114499571D01*
X120650000Y-114572142D01*
X120613714Y-114608428D01*
X120541142Y-114644714D01*
X120250857Y-114644714D01*
X120250857Y-113882714D01*
X120504857Y-113882714D01*
X120577428Y-113919000D01*
X120613714Y-113955285D01*
X120650000Y-114027857D01*
X120650000Y-114100428D01*
X120613714Y-114173000D01*
X120577428Y-114209285D01*
X120504857Y-114245571D01*
X120250857Y-114245571D01*
X120976571Y-113955285D02*
X121012857Y-113919000D01*
X121085428Y-113882714D01*
X121266857Y-113882714D01*
X121339428Y-113919000D01*
X121375714Y-113955285D01*
X121412000Y-114027857D01*
X121412000Y-114100428D01*
X121375714Y-114209285D01*
X120940285Y-114644714D01*
X121412000Y-114644714D01*
X157879142Y-96610714D02*
X157879142Y-97227571D01*
X157915428Y-97300142D01*
X157951714Y-97336428D01*
X158024285Y-97372714D01*
X158169428Y-97372714D01*
X158242000Y-97336428D01*
X158278285Y-97300142D01*
X158314571Y-97227571D01*
X158314571Y-96610714D01*
X158641142Y-97336428D02*
X158750000Y-97372714D01*
X158931428Y-97372714D01*
X159004000Y-97336428D01*
X159040285Y-97300142D01*
X159076571Y-97227571D01*
X159076571Y-97155000D01*
X159040285Y-97082428D01*
X159004000Y-97046142D01*
X158931428Y-97009857D01*
X158786285Y-96973571D01*
X158713714Y-96937285D01*
X158677428Y-96901000D01*
X158641142Y-96828428D01*
X158641142Y-96755857D01*
X158677428Y-96683285D01*
X158713714Y-96647000D01*
X158786285Y-96610714D01*
X158967714Y-96610714D01*
X159076571Y-96647000D01*
X159657142Y-96973571D02*
X159766000Y-97009857D01*
X159802285Y-97046142D01*
X159838571Y-97118714D01*
X159838571Y-97227571D01*
X159802285Y-97300142D01*
X159766000Y-97336428D01*
X159693428Y-97372714D01*
X159403142Y-97372714D01*
X159403142Y-96610714D01*
X159657142Y-96610714D01*
X159729714Y-96647000D01*
X159766000Y-96683285D01*
X159802285Y-96755857D01*
X159802285Y-96828428D01*
X159766000Y-96901000D01*
X159729714Y-96937285D01*
X159657142Y-96973571D01*
X159403142Y-96973571D01*
X160636857Y-96610714D02*
X161072285Y-96610714D01*
X160854571Y-97372714D02*
X160854571Y-96610714D01*
X161217428Y-96610714D02*
X161652857Y-96610714D01*
X161435142Y-97372714D02*
X161435142Y-96610714D01*
X162269714Y-97372714D02*
X161906857Y-97372714D01*
X161906857Y-96610714D01*
X135871857Y-105500714D02*
X135871857Y-106117571D01*
X135908142Y-106190142D01*
X135944428Y-106226428D01*
X136016999Y-106262714D01*
X136162142Y-106262714D01*
X136234714Y-106226428D01*
X136270999Y-106190142D01*
X136307285Y-106117571D01*
X136307285Y-105500714D01*
X136633857Y-106226428D02*
X136742714Y-106262714D01*
X136924142Y-106262714D01*
X136996714Y-106226428D01*
X137032999Y-106190142D01*
X137069285Y-106117571D01*
X137069285Y-106045000D01*
X137032999Y-105972428D01*
X136996714Y-105936142D01*
X136924142Y-105899857D01*
X136778999Y-105863571D01*
X136706428Y-105827285D01*
X136670142Y-105791000D01*
X136633857Y-105718428D01*
X136633857Y-105645857D01*
X136670142Y-105573285D01*
X136706428Y-105537000D01*
X136778999Y-105500714D01*
X136960428Y-105500714D01*
X137069285Y-105537000D01*
X137831285Y-106262714D02*
X137577285Y-105899857D01*
X137395857Y-106262714D02*
X137395857Y-105500714D01*
X137686142Y-105500714D01*
X137758714Y-105537000D01*
X137794999Y-105573285D01*
X137831285Y-105645857D01*
X137831285Y-105754714D01*
X137794999Y-105827285D01*
X137758714Y-105863571D01*
X137686142Y-105899857D01*
X137395857Y-105899857D01*
X137976428Y-106335285D02*
X138556999Y-106335285D01*
X138702142Y-106226428D02*
X138810999Y-106262714D01*
X138992428Y-106262714D01*
X139064999Y-106226428D01*
X139101285Y-106190142D01*
X139137571Y-106117571D01*
X139137571Y-106045000D01*
X139101285Y-105972428D01*
X139064999Y-105936142D01*
X138992428Y-105899857D01*
X138847285Y-105863571D01*
X138774714Y-105827285D01*
X138738428Y-105791000D01*
X138702142Y-105718428D01*
X138702142Y-105645857D01*
X138738428Y-105573285D01*
X138774714Y-105537000D01*
X138847285Y-105500714D01*
X139028714Y-105500714D01*
X139137571Y-105537000D01*
X139391571Y-105500714D02*
X139572999Y-106262714D01*
X139718142Y-105718428D01*
X139863285Y-106262714D01*
X140044714Y-105500714D01*
X134438571Y-98933000D02*
X134801428Y-98933000D01*
X134365999Y-99150714D02*
X134619999Y-98388714D01*
X134873999Y-99150714D01*
X135127999Y-99150714D02*
X135127999Y-98388714D01*
X135309428Y-98388714D01*
X135418285Y-98425000D01*
X135490857Y-98497571D01*
X135527142Y-98570142D01*
X135563428Y-98715285D01*
X135563428Y-98824142D01*
X135527142Y-98969285D01*
X135490857Y-99041857D01*
X135418285Y-99114428D01*
X135309428Y-99150714D01*
X135127999Y-99150714D01*
X136325428Y-99078142D02*
X136289142Y-99114428D01*
X136180285Y-99150714D01*
X136107714Y-99150714D01*
X135998857Y-99114428D01*
X135926285Y-99041857D01*
X135889999Y-98969285D01*
X135853714Y-98824142D01*
X135853714Y-98715285D01*
X135889999Y-98570142D01*
X135926285Y-98497571D01*
X135998857Y-98425000D01*
X136107714Y-98388714D01*
X136180285Y-98388714D01*
X136289142Y-98425000D01*
X136325428Y-98461285D01*
X135509000Y-97118714D02*
X135146142Y-97118714D01*
X135146142Y-96356714D01*
X135726714Y-96429285D02*
X135763000Y-96393000D01*
X135835571Y-96356714D01*
X136017000Y-96356714D01*
X136089571Y-96393000D01*
X136125857Y-96429285D01*
X136162142Y-96501857D01*
X136162142Y-96574428D01*
X136125857Y-96683285D01*
X135690428Y-97118714D01*
X136162142Y-97118714D01*
X132714999Y-97118714D02*
X132352142Y-97118714D01*
X132352142Y-96356714D01*
X133368142Y-97118714D02*
X132932714Y-97118714D01*
X133150428Y-97118714D02*
X133150428Y-96356714D01*
X133077857Y-96465571D01*
X133005285Y-96538142D01*
X132932714Y-96574428D01*
X109474000Y-109310714D02*
X109474000Y-108548714D01*
X109764285Y-108548714D01*
X109836857Y-108585000D01*
X109873142Y-108621285D01*
X109909428Y-108693857D01*
X109909428Y-108802714D01*
X109873142Y-108875285D01*
X109836857Y-108911571D01*
X109764285Y-108947857D01*
X109474000Y-108947857D01*
X110163428Y-108548714D02*
X110344857Y-109310714D01*
X110490000Y-108766428D01*
X110635142Y-109310714D01*
X110816571Y-108548714D01*
X111542285Y-109310714D02*
X111288285Y-108947857D01*
X111106857Y-109310714D02*
X111106857Y-108548714D01*
X111397142Y-108548714D01*
X111469714Y-108585000D01*
X111506000Y-108621285D01*
X111542285Y-108693857D01*
X111542285Y-108802714D01*
X111506000Y-108875285D01*
X111469714Y-108911571D01*
X111397142Y-108947857D01*
X111106857Y-108947857D01*
X116658571Y-94832714D02*
X116404571Y-94469857D01*
X116223142Y-94832714D02*
X116223142Y-94070714D01*
X116513428Y-94070714D01*
X116585999Y-94107000D01*
X116622285Y-94143285D01*
X116658571Y-94215857D01*
X116658571Y-94324714D01*
X116622285Y-94397285D01*
X116585999Y-94433571D01*
X116513428Y-94469857D01*
X116223142Y-94469857D01*
X117275428Y-94796428D02*
X117202857Y-94832714D01*
X117057714Y-94832714D01*
X116985142Y-94796428D01*
X116948857Y-94723857D01*
X116948857Y-94433571D01*
X116985142Y-94361000D01*
X117057714Y-94324714D01*
X117202857Y-94324714D01*
X117275428Y-94361000D01*
X117311714Y-94433571D01*
X117311714Y-94506142D01*
X116948857Y-94578714D01*
X117601999Y-94796428D02*
X117674571Y-94832714D01*
X117819714Y-94832714D01*
X117892285Y-94796428D01*
X117928571Y-94723857D01*
X117928571Y-94687571D01*
X117892285Y-94615000D01*
X117819714Y-94578714D01*
X117710857Y-94578714D01*
X117638285Y-94542428D01*
X117601999Y-94469857D01*
X117601999Y-94433571D01*
X117638285Y-94361000D01*
X117710857Y-94324714D01*
X117819714Y-94324714D01*
X117892285Y-94361000D01*
X118545428Y-94796428D02*
X118472857Y-94832714D01*
X118327714Y-94832714D01*
X118255142Y-94796428D01*
X118218857Y-94723857D01*
X118218857Y-94433571D01*
X118255142Y-94361000D01*
X118327714Y-94324714D01*
X118472857Y-94324714D01*
X118545428Y-94361000D01*
X118581714Y-94433571D01*
X118581714Y-94506142D01*
X118218857Y-94578714D01*
X118799428Y-94324714D02*
X119089714Y-94324714D01*
X118908285Y-94070714D02*
X118908285Y-94723857D01*
X118944571Y-94796428D01*
X119017142Y-94832714D01*
X119089714Y-94832714D01*
X96102714Y-97626714D02*
X96102714Y-98243571D01*
X96139000Y-98316142D01*
X96175285Y-98352428D01*
X96247857Y-98388714D01*
X96393000Y-98388714D01*
X96465571Y-98352428D01*
X96501857Y-98316142D01*
X96538142Y-98243571D01*
X96538142Y-97626714D01*
X96864714Y-98352428D02*
X96973571Y-98388714D01*
X97155000Y-98388714D01*
X97227571Y-98352428D01*
X97263857Y-98316142D01*
X97300142Y-98243571D01*
X97300142Y-98171000D01*
X97263857Y-98098428D01*
X97227571Y-98062142D01*
X97155000Y-98025857D01*
X97009857Y-97989571D01*
X96937285Y-97953285D01*
X96901000Y-97917000D01*
X96864714Y-97844428D01*
X96864714Y-97771857D01*
X96901000Y-97699285D01*
X96937285Y-97663000D01*
X97009857Y-97626714D01*
X97191285Y-97626714D01*
X97300142Y-97663000D01*
X97880714Y-97989571D02*
X97989571Y-98025857D01*
X98025857Y-98062142D01*
X98062142Y-98134714D01*
X98062142Y-98243571D01*
X98025857Y-98316142D01*
X97989571Y-98352428D01*
X97917000Y-98388714D01*
X97626714Y-98388714D01*
X97626714Y-97626714D01*
X97880714Y-97626714D01*
X97953285Y-97663000D01*
X97989571Y-97699285D01*
X98025857Y-97771857D01*
X98025857Y-97844428D01*
X97989571Y-97917000D01*
X97953285Y-97953285D01*
X97880714Y-97989571D01*
X97626714Y-97989571D01*
X98969285Y-98388714D02*
X98969285Y-97626714D01*
X99259571Y-97626714D01*
X99332142Y-97663000D01*
X99368428Y-97699285D01*
X99404714Y-97771857D01*
X99404714Y-97880714D01*
X99368428Y-97953285D01*
X99332142Y-97989571D01*
X99259571Y-98025857D01*
X98969285Y-98025857D01*
X99658714Y-97626714D02*
X99840142Y-98388714D01*
X99985285Y-97844428D01*
X100130428Y-98388714D01*
X100311857Y-97626714D01*
X101037571Y-98388714D02*
X100783571Y-98025857D01*
X100602142Y-98388714D02*
X100602142Y-97626714D01*
X100892428Y-97626714D01*
X100965000Y-97663000D01*
X101001285Y-97699285D01*
X101037571Y-97771857D01*
X101037571Y-97880714D01*
X101001285Y-97953285D01*
X100965000Y-97989571D01*
X100892428Y-98025857D01*
X100602142Y-98025857D01*
X97439238Y-91775038D02*
X97584380Y-91823419D01*
X97826285Y-91823419D01*
X97923047Y-91775038D01*
X97971428Y-91726657D01*
X98019809Y-91629895D01*
X98019809Y-91533133D01*
X97971428Y-91436371D01*
X97923047Y-91387990D01*
X97826285Y-91339609D01*
X97632761Y-91291228D01*
X97535999Y-91242847D01*
X97487619Y-91194466D01*
X97439238Y-91097704D01*
X97439238Y-91000942D01*
X97487619Y-90904180D01*
X97535999Y-90855800D01*
X97632761Y-90807419D01*
X97874666Y-90807419D01*
X98019809Y-90855800D01*
X98310095Y-90807419D02*
X98890666Y-90807419D01*
X98600380Y-91823419D02*
X98600380Y-90807419D01*
X99229333Y-91823419D02*
X99229333Y-90807419D01*
X99567999Y-91533133D01*
X99906666Y-90807419D01*
X99906666Y-91823419D01*
X100293714Y-90807419D02*
X100922666Y-90807419D01*
X100583999Y-91194466D01*
X100729142Y-91194466D01*
X100825904Y-91242847D01*
X100874285Y-91291228D01*
X100922666Y-91387990D01*
X100922666Y-91629895D01*
X100874285Y-91726657D01*
X100825904Y-91775038D01*
X100729142Y-91823419D01*
X100438857Y-91823419D01*
X100342095Y-91775038D01*
X100293714Y-91726657D01*
X101309714Y-90904180D02*
X101358095Y-90855800D01*
X101454857Y-90807419D01*
X101696761Y-90807419D01*
X101793523Y-90855800D01*
X101841904Y-90904180D01*
X101890285Y-91000942D01*
X101890285Y-91097704D01*
X101841904Y-91242847D01*
X101261333Y-91823419D01*
X101890285Y-91823419D01*
X102664380Y-91291228D02*
X102325714Y-91291228D01*
X102325714Y-91823419D02*
X102325714Y-90807419D01*
X102809523Y-90807419D01*
X103390095Y-90807419D02*
X103486857Y-90807419D01*
X103583619Y-90855800D01*
X103631999Y-90904180D01*
X103680380Y-91000942D01*
X103728761Y-91194466D01*
X103728761Y-91436371D01*
X103680380Y-91629895D01*
X103631999Y-91726657D01*
X103583619Y-91775038D01*
X103486857Y-91823419D01*
X103390095Y-91823419D01*
X103293333Y-91775038D01*
X103244952Y-91726657D01*
X103196571Y-91629895D01*
X103148190Y-91436371D01*
X103148190Y-91194466D01*
X103196571Y-91000942D01*
X103244952Y-90904180D01*
X103293333Y-90855800D01*
X103390095Y-90807419D01*
X104067428Y-90807419D02*
X104744761Y-90807419D01*
X104309333Y-91823419D01*
X105325333Y-90807419D02*
X105422095Y-90807419D01*
X105518857Y-90855800D01*
X105567238Y-90904180D01*
X105615619Y-91000942D01*
X105663999Y-91194466D01*
X105663999Y-91436371D01*
X105615619Y-91629895D01*
X105567238Y-91726657D01*
X105518857Y-91775038D01*
X105422095Y-91823419D01*
X105325333Y-91823419D01*
X105228571Y-91775038D01*
X105180190Y-91726657D01*
X105131809Y-91629895D01*
X105083428Y-91436371D01*
X105083428Y-91194466D01*
X105131809Y-91000942D01*
X105180190Y-90904180D01*
X105228571Y-90855800D01*
X105325333Y-90807419D01*
X107212190Y-91291228D02*
X107357333Y-91339609D01*
X107405714Y-91387990D01*
X107454095Y-91484752D01*
X107454095Y-91629895D01*
X107405714Y-91726657D01*
X107357333Y-91775038D01*
X107260571Y-91823419D01*
X106873523Y-91823419D01*
X106873523Y-90807419D01*
X107212190Y-90807419D01*
X107308952Y-90855800D01*
X107357333Y-90904180D01*
X107405714Y-91000942D01*
X107405714Y-91097704D01*
X107357333Y-91194466D01*
X107308952Y-91242847D01*
X107212190Y-91291228D01*
X106873523Y-91291228D01*
X108034666Y-91823419D02*
X107937904Y-91775038D01*
X107889523Y-91726657D01*
X107841142Y-91629895D01*
X107841142Y-91339609D01*
X107889523Y-91242847D01*
X107937904Y-91194466D01*
X108034666Y-91146085D01*
X108179809Y-91146085D01*
X108276571Y-91194466D01*
X108324952Y-91242847D01*
X108373333Y-91339609D01*
X108373333Y-91629895D01*
X108324952Y-91726657D01*
X108276571Y-91775038D01*
X108179809Y-91823419D01*
X108034666Y-91823419D01*
X109244190Y-91823419D02*
X109244190Y-91291228D01*
X109195809Y-91194466D01*
X109099047Y-91146085D01*
X108905523Y-91146085D01*
X108808761Y-91194466D01*
X109244190Y-91775038D02*
X109147428Y-91823419D01*
X108905523Y-91823419D01*
X108808761Y-91775038D01*
X108760380Y-91678276D01*
X108760380Y-91581514D01*
X108808761Y-91484752D01*
X108905523Y-91436371D01*
X109147428Y-91436371D01*
X109244190Y-91387990D01*
X109727999Y-91823419D02*
X109727999Y-91146085D01*
X109727999Y-91339609D02*
X109776380Y-91242847D01*
X109824761Y-91194466D01*
X109921523Y-91146085D01*
X110018285Y-91146085D01*
X110792380Y-91823419D02*
X110792380Y-90807419D01*
X110792380Y-91775038D02*
X110695619Y-91823419D01*
X110502095Y-91823419D01*
X110405333Y-91775038D01*
X110356952Y-91726657D01*
X110308571Y-91629895D01*
X110308571Y-91339609D01*
X110356952Y-91242847D01*
X110405333Y-91194466D01*
X110502095Y-91146085D01*
X110695619Y-91146085D01*
X110792380Y-91194466D01*
D12*
G04 #@! TO.C,J3*
X119265000Y-90300500D02*
X119265000Y-90601007D01*
X119265000Y-91389993D02*
X119265000Y-91690500D01*
X123140000Y-90300500D02*
X119265000Y-90300500D01*
X123140000Y-91690500D02*
X119265000Y-91690500D01*
X123140000Y-90300500D02*
X123140000Y-90387224D01*
X123140000Y-91603776D02*
X123140000Y-91690500D01*
X123825000Y-90300500D02*
X124510000Y-90300500D01*
X124510000Y-90300500D02*
X124510000Y-90995500D01*
D13*
G04 #@! TO.C,U1*
X147912000Y-96461500D02*
X147912000Y-96486500D01*
X152062000Y-96461500D02*
X152062000Y-96566500D01*
X152062000Y-106611500D02*
X152062000Y-106506500D01*
X147912000Y-106611500D02*
X147912000Y-106506500D01*
X147912000Y-96461500D02*
X152062000Y-96461500D01*
X147912000Y-106611500D02*
X152062000Y-106611500D01*
X147912000Y-96486500D02*
X146537000Y-96486500D01*
D12*
G04 #@! TO.C,U3*
X136015000Y-102608500D02*
X136015000Y-101678500D01*
X136015000Y-99448500D02*
X136015000Y-100378500D01*
X136015000Y-99448500D02*
X133855000Y-99448500D01*
X136015000Y-102608500D02*
X134555000Y-102608500D01*
G04 #@! TO.C,C1*
X128479733Y-92898500D02*
X128822267Y-92898500D01*
X128479733Y-93918500D02*
X128822267Y-93918500D01*
G04 #@! TO.C,C2*
X127717733Y-106106500D02*
X128060267Y-106106500D01*
X127717733Y-107126500D02*
X128060267Y-107126500D01*
G04 #@! TO.C,C3*
X128479733Y-92394500D02*
X128822267Y-92394500D01*
X128479733Y-91374500D02*
X128822267Y-91374500D01*
G04 #@! TO.C,C4*
X127717733Y-108650500D02*
X128060267Y-108650500D01*
X127717733Y-107630500D02*
X128060267Y-107630500D01*
G04 #@! TO.C,C5*
X128479733Y-94422500D02*
X128822267Y-94422500D01*
X128479733Y-95442500D02*
X128822267Y-95442500D01*
G04 #@! TO.C,C6*
X108413733Y-99883500D02*
X108756267Y-99883500D01*
X108413733Y-100903500D02*
X108756267Y-100903500D01*
G04 #@! TO.C,C7*
X147783733Y-113984500D02*
X148126267Y-113984500D01*
X147783733Y-112964500D02*
X148126267Y-112964500D01*
G04 #@! TO.C,C8*
X117646267Y-99883500D02*
X117303733Y-99883500D01*
X117646267Y-100903500D02*
X117303733Y-100903500D01*
G04 #@! TO.C,C9*
X156254267Y-113984500D02*
X155911733Y-113984500D01*
X156254267Y-112964500D02*
X155911733Y-112964500D01*
G04 #@! TO.C,C10*
X108756267Y-106868500D02*
X108413733Y-106868500D01*
X108756267Y-107888500D02*
X108413733Y-107888500D01*
G04 #@! TO.C,C11*
X128479733Y-115758500D02*
X128822267Y-115758500D01*
X128479733Y-116778500D02*
X128822267Y-116778500D01*
D13*
G04 #@! TO.C,D1*
X109182000Y-111461500D02*
X109182000Y-109645500D01*
X109182000Y-111461500D02*
X111798000Y-111461500D01*
X111798000Y-111461500D02*
X111798000Y-109645500D01*
X109182000Y-109645500D02*
X111798000Y-109645500D01*
G04 #@! TO.C,D2*
X131807000Y-95986500D02*
X131807000Y-93370500D01*
X133623000Y-93370500D02*
X131807000Y-93370500D01*
X133623000Y-95986500D02*
X133623000Y-93370500D01*
X133623000Y-95986500D02*
X131807000Y-95986500D01*
D10*
G04 #@! TO.C,D3*
X144477000Y-90946500D02*
X147877000Y-90946500D01*
X147877000Y-94346500D02*
X144477000Y-94346500D01*
X143412000Y-91591500D02*
G75*
G03X143412000Y-91591500I-32000J0D01*
G01*
D13*
G04 #@! TO.C,D4*
X136417000Y-95986500D02*
X134601000Y-95986500D01*
X136417000Y-95986500D02*
X136417000Y-93370500D01*
X136417000Y-93370500D02*
X134601000Y-93370500D01*
X134601000Y-95986500D02*
X134601000Y-93370500D01*
D10*
G04 #@! TO.C,J1*
X101720890Y-101996500D02*
G75*
G03X101720890Y-101996500I-45890J0D01*
G01*
X100885000Y-107318500D02*
X99258000Y-107318500D01*
X100885000Y-99818500D02*
X99258000Y-99818500D01*
X95885000Y-107318500D02*
X95885000Y-99818500D01*
G04 #@! TO.C,J2*
X157450890Y-103870500D02*
G75*
G03X157450890Y-103870500I-45890J0D01*
G01*
X158195000Y-98548500D02*
X159822000Y-98548500D01*
X158195000Y-106048500D02*
X159822000Y-106048500D01*
X163195000Y-98548500D02*
X163195000Y-106048500D01*
D12*
G04 #@! TO.C,R1*
X110445733Y-113984500D02*
X110788267Y-113984500D01*
X110445733Y-112964500D02*
X110788267Y-112964500D01*
G04 #@! TO.C,R2*
X105873733Y-110043500D02*
X106216267Y-110043500D01*
X105873733Y-111063500D02*
X106216267Y-111063500D01*
G04 #@! TO.C,R3*
X118662267Y-106106500D02*
X118319733Y-106106500D01*
X118662267Y-107126500D02*
X118319733Y-107126500D01*
G04 #@! TO.C,R4*
X132205000Y-91547767D02*
X132205000Y-91205233D01*
X133225000Y-91547767D02*
X133225000Y-91205233D01*
G04 #@! TO.C,R5*
X140506267Y-94168500D02*
X140163733Y-94168500D01*
X140506267Y-95188500D02*
X140163733Y-95188500D01*
G04 #@! TO.C,R6*
X140506267Y-93537500D02*
X140163733Y-93537500D01*
X140506267Y-92517500D02*
X140163733Y-92517500D01*
G04 #@! TO.C,R7*
X140506267Y-90739500D02*
X140163733Y-90739500D01*
X140506267Y-91759500D02*
X140163733Y-91759500D01*
G04 #@! TO.C,R8*
X134999000Y-91547767D02*
X134999000Y-91205233D01*
X136019000Y-91547767D02*
X136019000Y-91205233D01*
G04 #@! TO.C,R9*
X139490267Y-111186500D02*
X139147733Y-111186500D01*
X139490267Y-112206500D02*
X139147733Y-112206500D01*
G04 #@! TO.C,R10*
X139147733Y-112964500D02*
X139490267Y-112964500D01*
X139147733Y-113984500D02*
X139490267Y-113984500D01*
G04 #@! TO.C,R11*
X125351000Y-112629767D02*
X125351000Y-112287233D01*
X124331000Y-112629767D02*
X124331000Y-112287233D01*
G04 #@! TO.C,R12*
X131189000Y-112629767D02*
X131189000Y-112287233D01*
X132209000Y-112629767D02*
X132209000Y-112287233D01*
D13*
G04 #@! TO.C,SW1*
X114245000Y-113188500D02*
X123753000Y-113188500D01*
X114245000Y-108680500D02*
X114245000Y-113188500D01*
X123753000Y-108680500D02*
X114245000Y-108680500D01*
X123753000Y-113188500D02*
X123753000Y-108680500D01*
G04 #@! TO.C,SW2*
X120221000Y-95722500D02*
X114729000Y-95722500D01*
X114729000Y-95722500D02*
X114729000Y-98714500D01*
X120221000Y-98714500D02*
X120221000Y-95722500D01*
X114729000Y-98714500D02*
X120221000Y-98714500D01*
G04 #@! TO.C,SW3*
X135049000Y-110144500D02*
X140541000Y-110144500D01*
X140541000Y-110144500D02*
X140541000Y-107152500D01*
X135049000Y-107152500D02*
X135049000Y-110144500D01*
X140541000Y-107152500D02*
X135049000Y-107152500D01*
G04 #@! TO.C,U2*
X131776000Y-102974500D02*
X131776000Y-99082500D01*
X125526000Y-102974500D02*
X131776000Y-102974500D01*
X125526000Y-99082500D02*
X125526000Y-102974500D01*
X131776210Y-99082500D02*
X125526000Y-99082500D01*
X124692210Y-104330500D02*
G75*
G03X124692210Y-104330500I-359210J0D01*
G01*
G04 #@! TO.C,U4*
X130780000Y-110964500D02*
X130780000Y-115222500D01*
X130780000Y-115222500D02*
X126522000Y-115222500D01*
X126522000Y-115222500D02*
X126522000Y-110964500D01*
X126522000Y-110964200D02*
X130780000Y-110964500D01*
X126231000Y-110807500D02*
G75*
G03X126231000Y-110807500I-120000J0D01*
G01*
D14*
G04 #@! TO.C,VR1*
X110085000Y-105068500D02*
X107085000Y-105068500D01*
X107085000Y-102068500D02*
X110085000Y-102068500D01*
D10*
X106235000Y-102668500D02*
G75*
G03X106235000Y-102668500I-100000J0D01*
G01*
G04 #@! TO.C,Y1*
X146319000Y-107772500D02*
X157719000Y-107772500D01*
X146319000Y-112572500D02*
X157719000Y-112572500D01*
X146319000Y-107772500D02*
X146319000Y-108872500D01*
X146319000Y-112572500D02*
X146319000Y-111472500D01*
X157719000Y-112572500D02*
X157719000Y-111472500D01*
X157719000Y-107772500D02*
X157719000Y-108872500D01*
D15*
X144039880Y-108662500D02*
G75*
G03X144039880Y-108662500I-125880J0D01*
G01*
G04 #@! TO.C,J3*
D13*
X117522666Y-90447880D02*
X117522666Y-91162166D01*
X117475047Y-91305023D01*
X117379809Y-91400261D01*
X117236952Y-91447880D01*
X117141714Y-91447880D01*
X117903619Y-90447880D02*
X118522666Y-90447880D01*
X118189333Y-90828833D01*
X118332190Y-90828833D01*
X118427428Y-90876452D01*
X118475047Y-90924071D01*
X118522666Y-91019309D01*
X118522666Y-91257404D01*
X118475047Y-91352642D01*
X118427428Y-91400261D01*
X118332190Y-91447880D01*
X118046476Y-91447880D01*
X117951238Y-91400261D01*
X117903619Y-91352642D01*
G04 #@! TO.C,U1*
X144526095Y-100290380D02*
X144526095Y-101099904D01*
X144573714Y-101195142D01*
X144621333Y-101242761D01*
X144716571Y-101290380D01*
X144907047Y-101290380D01*
X145002285Y-101242761D01*
X145049904Y-101195142D01*
X145097523Y-101099904D01*
X145097523Y-100290380D01*
X146097523Y-101290380D02*
X145526095Y-101290380D01*
X145811809Y-101290380D02*
X145811809Y-100290380D01*
X145716571Y-100433238D01*
X145621333Y-100528476D01*
X145526095Y-100576095D01*
G04 #@! TO.C,U3*
X137160095Y-99274380D02*
X137160095Y-100083904D01*
X137207714Y-100179142D01*
X137255333Y-100226761D01*
X137350571Y-100274380D01*
X137541047Y-100274380D01*
X137636285Y-100226761D01*
X137683904Y-100179142D01*
X137731523Y-100083904D01*
X137731523Y-99274380D01*
X138112476Y-99274380D02*
X138731523Y-99274380D01*
X138398190Y-99655333D01*
X138541047Y-99655333D01*
X138636285Y-99702952D01*
X138683904Y-99750571D01*
X138731523Y-99845809D01*
X138731523Y-100083904D01*
X138683904Y-100179142D01*
X138636285Y-100226761D01*
X138541047Y-100274380D01*
X138255333Y-100274380D01*
X138160095Y-100226761D01*
X138112476Y-100179142D01*
G04 #@! TO.C,C1*
X125817333Y-93829142D02*
X125769714Y-93876761D01*
X125626857Y-93924380D01*
X125531619Y-93924380D01*
X125388761Y-93876761D01*
X125293523Y-93781523D01*
X125245904Y-93686285D01*
X125198285Y-93495809D01*
X125198285Y-93352952D01*
X125245904Y-93162476D01*
X125293523Y-93067238D01*
X125388761Y-92972000D01*
X125531619Y-92924380D01*
X125626857Y-92924380D01*
X125769714Y-92972000D01*
X125817333Y-93019619D01*
X126769714Y-93924380D02*
X126198285Y-93924380D01*
X126483999Y-93924380D02*
X126483999Y-92924380D01*
X126388761Y-93067238D01*
X126293523Y-93162476D01*
X126198285Y-93210095D01*
G04 #@! TO.C,C2*
X125055333Y-107037142D02*
X125007714Y-107084761D01*
X124864857Y-107132380D01*
X124769619Y-107132380D01*
X124626761Y-107084761D01*
X124531523Y-106989523D01*
X124483904Y-106894285D01*
X124436285Y-106703809D01*
X124436285Y-106560952D01*
X124483904Y-106370476D01*
X124531523Y-106275238D01*
X124626761Y-106180000D01*
X124769619Y-106132380D01*
X124864857Y-106132380D01*
X125007714Y-106180000D01*
X125055333Y-106227619D01*
X125436285Y-106227619D02*
X125483904Y-106180000D01*
X125579142Y-106132380D01*
X125817238Y-106132380D01*
X125912476Y-106180000D01*
X125960095Y-106227619D01*
X126007714Y-106322857D01*
X126007714Y-106418095D01*
X125960095Y-106560952D01*
X125388666Y-107132380D01*
X126007714Y-107132380D01*
G04 #@! TO.C,C3*
X125817333Y-92305142D02*
X125769714Y-92352761D01*
X125626857Y-92400380D01*
X125531619Y-92400380D01*
X125388761Y-92352761D01*
X125293523Y-92257523D01*
X125245904Y-92162285D01*
X125198285Y-91971809D01*
X125198285Y-91828952D01*
X125245904Y-91638476D01*
X125293523Y-91543238D01*
X125388761Y-91448000D01*
X125531619Y-91400380D01*
X125626857Y-91400380D01*
X125769714Y-91448000D01*
X125817333Y-91495619D01*
X126150666Y-91400380D02*
X126769714Y-91400380D01*
X126436380Y-91781333D01*
X126579238Y-91781333D01*
X126674476Y-91828952D01*
X126722095Y-91876571D01*
X126769714Y-91971809D01*
X126769714Y-92209904D01*
X126722095Y-92305142D01*
X126674476Y-92352761D01*
X126579238Y-92400380D01*
X126293523Y-92400380D01*
X126198285Y-92352761D01*
X126150666Y-92305142D01*
G04 #@! TO.C,C4*
X125055333Y-108561142D02*
X125007714Y-108608761D01*
X124864857Y-108656380D01*
X124769619Y-108656380D01*
X124626761Y-108608761D01*
X124531523Y-108513523D01*
X124483904Y-108418285D01*
X124436285Y-108227809D01*
X124436285Y-108084952D01*
X124483904Y-107894476D01*
X124531523Y-107799238D01*
X124626761Y-107704000D01*
X124769619Y-107656380D01*
X124864857Y-107656380D01*
X125007714Y-107704000D01*
X125055333Y-107751619D01*
X125912476Y-107989714D02*
X125912476Y-108656380D01*
X125674380Y-107608761D02*
X125436285Y-108323047D01*
X126055333Y-108323047D01*
G04 #@! TO.C,C5*
X125817333Y-95353142D02*
X125769714Y-95400761D01*
X125626857Y-95448380D01*
X125531619Y-95448380D01*
X125388761Y-95400761D01*
X125293523Y-95305523D01*
X125245904Y-95210285D01*
X125198285Y-95019809D01*
X125198285Y-94876952D01*
X125245904Y-94686476D01*
X125293523Y-94591238D01*
X125388761Y-94496000D01*
X125531619Y-94448380D01*
X125626857Y-94448380D01*
X125769714Y-94496000D01*
X125817333Y-94543619D01*
X126722095Y-94448380D02*
X126245904Y-94448380D01*
X126198285Y-94924571D01*
X126245904Y-94876952D01*
X126341142Y-94829333D01*
X126579238Y-94829333D01*
X126674476Y-94876952D01*
X126722095Y-94924571D01*
X126769714Y-95019809D01*
X126769714Y-95257904D01*
X126722095Y-95353142D01*
X126674476Y-95400761D01*
X126579238Y-95448380D01*
X126341142Y-95448380D01*
X126245904Y-95400761D01*
X126198285Y-95353142D01*
G04 #@! TO.C,C6*
X105751333Y-100687142D02*
X105703714Y-100734761D01*
X105560857Y-100782380D01*
X105465619Y-100782380D01*
X105322761Y-100734761D01*
X105227523Y-100639523D01*
X105179904Y-100544285D01*
X105132285Y-100353809D01*
X105132285Y-100210952D01*
X105179904Y-100020476D01*
X105227523Y-99925238D01*
X105322761Y-99830000D01*
X105465619Y-99782380D01*
X105560857Y-99782380D01*
X105703714Y-99830000D01*
X105751333Y-99877619D01*
X106608476Y-99782380D02*
X106417999Y-99782380D01*
X106322761Y-99830000D01*
X106275142Y-99877619D01*
X106179904Y-100020476D01*
X106132285Y-100210952D01*
X106132285Y-100591904D01*
X106179904Y-100687142D01*
X106227523Y-100734761D01*
X106322761Y-100782380D01*
X106513238Y-100782380D01*
X106608476Y-100734761D01*
X106656095Y-100687142D01*
X106703714Y-100591904D01*
X106703714Y-100353809D01*
X106656095Y-100258571D01*
X106608476Y-100210952D01*
X106513238Y-100163333D01*
X106322761Y-100163333D01*
X106227523Y-100210952D01*
X106179904Y-100258571D01*
X106132285Y-100353809D01*
G04 #@! TO.C,C7*
X147915333Y-115419142D02*
X147867714Y-115466761D01*
X147724857Y-115514380D01*
X147629619Y-115514380D01*
X147486761Y-115466761D01*
X147391523Y-115371523D01*
X147343904Y-115276285D01*
X147296285Y-115085809D01*
X147296285Y-114942952D01*
X147343904Y-114752476D01*
X147391523Y-114657238D01*
X147486761Y-114562000D01*
X147629619Y-114514380D01*
X147724857Y-114514380D01*
X147867714Y-114562000D01*
X147915333Y-114609619D01*
X148248666Y-114514380D02*
X148915333Y-114514380D01*
X148486761Y-115514380D01*
G04 #@! TO.C,C8*
X114641333Y-100687142D02*
X114593714Y-100734761D01*
X114450857Y-100782380D01*
X114355619Y-100782380D01*
X114212761Y-100734761D01*
X114117523Y-100639523D01*
X114069904Y-100544285D01*
X114022285Y-100353809D01*
X114022285Y-100210952D01*
X114069904Y-100020476D01*
X114117523Y-99925238D01*
X114212761Y-99830000D01*
X114355619Y-99782380D01*
X114450857Y-99782380D01*
X114593714Y-99830000D01*
X114641333Y-99877619D01*
X115212761Y-100210952D02*
X115117523Y-100163333D01*
X115069904Y-100115714D01*
X115022285Y-100020476D01*
X115022285Y-99972857D01*
X115069904Y-99877619D01*
X115117523Y-99830000D01*
X115212761Y-99782380D01*
X115403238Y-99782380D01*
X115498476Y-99830000D01*
X115546095Y-99877619D01*
X115593714Y-99972857D01*
X115593714Y-100020476D01*
X115546095Y-100115714D01*
X115498476Y-100163333D01*
X115403238Y-100210952D01*
X115212761Y-100210952D01*
X115117523Y-100258571D01*
X115069904Y-100306190D01*
X115022285Y-100401428D01*
X115022285Y-100591904D01*
X115069904Y-100687142D01*
X115117523Y-100734761D01*
X115212761Y-100782380D01*
X115403238Y-100782380D01*
X115498476Y-100734761D01*
X115546095Y-100687142D01*
X115593714Y-100591904D01*
X115593714Y-100401428D01*
X115546095Y-100306190D01*
X115498476Y-100258571D01*
X115403238Y-100210952D01*
G04 #@! TO.C,C9*
X156043333Y-115419142D02*
X155995714Y-115466761D01*
X155852857Y-115514380D01*
X155757619Y-115514380D01*
X155614761Y-115466761D01*
X155519523Y-115371523D01*
X155471904Y-115276285D01*
X155424285Y-115085809D01*
X155424285Y-114942952D01*
X155471904Y-114752476D01*
X155519523Y-114657238D01*
X155614761Y-114562000D01*
X155757619Y-114514380D01*
X155852857Y-114514380D01*
X155995714Y-114562000D01*
X156043333Y-114609619D01*
X156519523Y-115514380D02*
X156709999Y-115514380D01*
X156805238Y-115466761D01*
X156852857Y-115419142D01*
X156948095Y-115276285D01*
X156995714Y-115085809D01*
X156995714Y-114704857D01*
X156948095Y-114609619D01*
X156900476Y-114562000D01*
X156805238Y-114514380D01*
X156614761Y-114514380D01*
X156519523Y-114562000D01*
X156471904Y-114609619D01*
X156424285Y-114704857D01*
X156424285Y-114942952D01*
X156471904Y-115038190D01*
X156519523Y-115085809D01*
X156614761Y-115133428D01*
X156805238Y-115133428D01*
X156900476Y-115085809D01*
X156948095Y-115038190D01*
X156995714Y-114942952D01*
G04 #@! TO.C,C10*
X104767142Y-107799142D02*
X104719523Y-107846761D01*
X104576666Y-107894380D01*
X104481428Y-107894380D01*
X104338571Y-107846761D01*
X104243333Y-107751523D01*
X104195714Y-107656285D01*
X104148095Y-107465809D01*
X104148095Y-107322952D01*
X104195714Y-107132476D01*
X104243333Y-107037238D01*
X104338571Y-106942000D01*
X104481428Y-106894380D01*
X104576666Y-106894380D01*
X104719523Y-106942000D01*
X104767142Y-106989619D01*
X105719523Y-107894380D02*
X105148095Y-107894380D01*
X105433809Y-107894380D02*
X105433809Y-106894380D01*
X105338571Y-107037238D01*
X105243333Y-107132476D01*
X105148095Y-107180095D01*
X106338571Y-106894380D02*
X106433809Y-106894380D01*
X106529047Y-106942000D01*
X106576666Y-106989619D01*
X106624285Y-107084857D01*
X106671904Y-107275333D01*
X106671904Y-107513428D01*
X106624285Y-107703904D01*
X106576666Y-107799142D01*
X106529047Y-107846761D01*
X106433809Y-107894380D01*
X106338571Y-107894380D01*
X106243333Y-107846761D01*
X106195714Y-107799142D01*
X106148095Y-107703904D01*
X106100476Y-107513428D01*
X106100476Y-107275333D01*
X106148095Y-107084857D01*
X106195714Y-106989619D01*
X106243333Y-106942000D01*
X106338571Y-106894380D01*
G04 #@! TO.C,C11*
X128008142Y-118467142D02*
X127960523Y-118514761D01*
X127817666Y-118562380D01*
X127722428Y-118562380D01*
X127579571Y-118514761D01*
X127484333Y-118419523D01*
X127436714Y-118324285D01*
X127389095Y-118133809D01*
X127389095Y-117990952D01*
X127436714Y-117800476D01*
X127484333Y-117705238D01*
X127579571Y-117610000D01*
X127722428Y-117562380D01*
X127817666Y-117562380D01*
X127960523Y-117610000D01*
X128008142Y-117657619D01*
X128960523Y-118562380D02*
X128389095Y-118562380D01*
X128674809Y-118562380D02*
X128674809Y-117562380D01*
X128579571Y-117705238D01*
X128484333Y-117800476D01*
X128389095Y-117848095D01*
X129912904Y-118562380D02*
X129341476Y-118562380D01*
X129627190Y-118562380D02*
X129627190Y-117562380D01*
X129531952Y-117705238D01*
X129436714Y-117800476D01*
X129341476Y-117848095D01*
G04 #@! TO.C,D1*
X108473904Y-110656666D02*
X108950095Y-110656666D01*
X108378666Y-110942380D02*
X108711999Y-109942380D01*
X109045333Y-110942380D01*
G04 #@! TO.C,D2*
X131026904Y-95645166D02*
X131503095Y-95645166D01*
X130931666Y-95930880D02*
X131264999Y-94930880D01*
X131598333Y-95930880D01*
G04 #@! TO.C,D4*
X133873904Y-95670666D02*
X134350095Y-95670666D01*
X133778666Y-95956380D02*
X134111999Y-94956380D01*
X134445333Y-95956380D01*
G04 #@! TO.C,J1*
D16*
X99144666Y-108524523D02*
X99144666Y-109431666D01*
X99084190Y-109613095D01*
X98963238Y-109734047D01*
X98781809Y-109794523D01*
X98660857Y-109794523D01*
X100414666Y-109794523D02*
X99688952Y-109794523D01*
X100051809Y-109794523D02*
X100051809Y-108524523D01*
X99930857Y-108705952D01*
X99809904Y-108826904D01*
X99688952Y-108887380D01*
G04 #@! TO.C,J2*
X160612666Y-107000523D02*
X160612666Y-107907666D01*
X160552190Y-108089095D01*
X160431238Y-108210047D01*
X160249809Y-108270523D01*
X160128857Y-108270523D01*
X161156952Y-107121476D02*
X161217428Y-107061000D01*
X161338380Y-107000523D01*
X161640761Y-107000523D01*
X161761714Y-107061000D01*
X161822190Y-107121476D01*
X161882666Y-107242428D01*
X161882666Y-107363380D01*
X161822190Y-107544809D01*
X161096476Y-108270523D01*
X161882666Y-108270523D01*
G04 #@! TO.C,R1*
D13*
X107783333Y-113990380D02*
X107449999Y-113514190D01*
X107211904Y-113990380D02*
X107211904Y-112990380D01*
X107592857Y-112990380D01*
X107688095Y-113038000D01*
X107735714Y-113085619D01*
X107783333Y-113180857D01*
X107783333Y-113323714D01*
X107735714Y-113418952D01*
X107688095Y-113466571D01*
X107592857Y-113514190D01*
X107211904Y-113514190D01*
X108735714Y-113990380D02*
X108164285Y-113990380D01*
X108449999Y-113990380D02*
X108449999Y-112990380D01*
X108354761Y-113133238D01*
X108259523Y-113228476D01*
X108164285Y-113276095D01*
G04 #@! TO.C,R2*
X103211333Y-110942380D02*
X102877999Y-110466190D01*
X102639904Y-110942380D02*
X102639904Y-109942380D01*
X103020857Y-109942380D01*
X103116095Y-109990000D01*
X103163714Y-110037619D01*
X103211333Y-110132857D01*
X103211333Y-110275714D01*
X103163714Y-110370952D01*
X103116095Y-110418571D01*
X103020857Y-110466190D01*
X102639904Y-110466190D01*
X103592285Y-110037619D02*
X103639904Y-109990000D01*
X103735142Y-109942380D01*
X103973238Y-109942380D01*
X104068476Y-109990000D01*
X104116095Y-110037619D01*
X104163714Y-110132857D01*
X104163714Y-110228095D01*
X104116095Y-110370952D01*
X103544666Y-110942380D01*
X104163714Y-110942380D01*
G04 #@! TO.C,R3*
X115657333Y-107132380D02*
X115323999Y-106656190D01*
X115085904Y-107132380D02*
X115085904Y-106132380D01*
X115466857Y-106132380D01*
X115562095Y-106180000D01*
X115609714Y-106227619D01*
X115657333Y-106322857D01*
X115657333Y-106465714D01*
X115609714Y-106560952D01*
X115562095Y-106608571D01*
X115466857Y-106656190D01*
X115085904Y-106656190D01*
X115990666Y-106132380D02*
X116609714Y-106132380D01*
X116276380Y-106513333D01*
X116419238Y-106513333D01*
X116514476Y-106560952D01*
X116562095Y-106608571D01*
X116609714Y-106703809D01*
X116609714Y-106941904D01*
X116562095Y-107037142D01*
X116514476Y-107084761D01*
X116419238Y-107132380D01*
X116133523Y-107132380D01*
X116038285Y-107084761D01*
X115990666Y-107037142D01*
G04 #@! TO.C,R4*
X132675333Y-89606380D02*
X132341999Y-89130190D01*
X132103904Y-89606380D02*
X132103904Y-88606380D01*
X132484857Y-88606380D01*
X132580095Y-88654000D01*
X132627714Y-88701619D01*
X132675333Y-88796857D01*
X132675333Y-88939714D01*
X132627714Y-89034952D01*
X132580095Y-89082571D01*
X132484857Y-89130190D01*
X132103904Y-89130190D01*
X133532476Y-88939714D02*
X133532476Y-89606380D01*
X133294380Y-88558761D02*
X133056285Y-89273047D01*
X133675333Y-89273047D01*
G04 #@! TO.C,R5*
X137501333Y-95194380D02*
X137167999Y-94718190D01*
X136929904Y-95194380D02*
X136929904Y-94194380D01*
X137310857Y-94194380D01*
X137406095Y-94242000D01*
X137453714Y-94289619D01*
X137501333Y-94384857D01*
X137501333Y-94527714D01*
X137453714Y-94622952D01*
X137406095Y-94670571D01*
X137310857Y-94718190D01*
X136929904Y-94718190D01*
X138406095Y-94194380D02*
X137929904Y-94194380D01*
X137882285Y-94670571D01*
X137929904Y-94622952D01*
X138025142Y-94575333D01*
X138263238Y-94575333D01*
X138358476Y-94622952D01*
X138406095Y-94670571D01*
X138453714Y-94765809D01*
X138453714Y-95003904D01*
X138406095Y-95099142D01*
X138358476Y-95146761D01*
X138263238Y-95194380D01*
X138025142Y-95194380D01*
X137929904Y-95146761D01*
X137882285Y-95099142D01*
G04 #@! TO.C,R6*
X137501333Y-93416380D02*
X137167999Y-92940190D01*
X136929904Y-93416380D02*
X136929904Y-92416380D01*
X137310857Y-92416380D01*
X137406095Y-92464000D01*
X137453714Y-92511619D01*
X137501333Y-92606857D01*
X137501333Y-92749714D01*
X137453714Y-92844952D01*
X137406095Y-92892571D01*
X137310857Y-92940190D01*
X136929904Y-92940190D01*
X138358476Y-92416380D02*
X138167999Y-92416380D01*
X138072761Y-92464000D01*
X138025142Y-92511619D01*
X137929904Y-92654476D01*
X137882285Y-92844952D01*
X137882285Y-93225904D01*
X137929904Y-93321142D01*
X137977523Y-93368761D01*
X138072761Y-93416380D01*
X138263238Y-93416380D01*
X138358476Y-93368761D01*
X138406095Y-93321142D01*
X138453714Y-93225904D01*
X138453714Y-92987809D01*
X138406095Y-92892571D01*
X138358476Y-92844952D01*
X138263238Y-92797333D01*
X138072761Y-92797333D01*
X137977523Y-92844952D01*
X137929904Y-92892571D01*
X137882285Y-92987809D01*
G04 #@! TO.C,R7*
X137501333Y-91638380D02*
X137167999Y-91162190D01*
X136929904Y-91638380D02*
X136929904Y-90638380D01*
X137310857Y-90638380D01*
X137406095Y-90686000D01*
X137453714Y-90733619D01*
X137501333Y-90828857D01*
X137501333Y-90971714D01*
X137453714Y-91066952D01*
X137406095Y-91114571D01*
X137310857Y-91162190D01*
X136929904Y-91162190D01*
X137834666Y-90638380D02*
X138501333Y-90638380D01*
X138072761Y-91638380D01*
G04 #@! TO.C,R8*
X135469333Y-89606380D02*
X135135999Y-89130190D01*
X134897904Y-89606380D02*
X134897904Y-88606380D01*
X135278857Y-88606380D01*
X135374095Y-88654000D01*
X135421714Y-88701619D01*
X135469333Y-88796857D01*
X135469333Y-88939714D01*
X135421714Y-89034952D01*
X135374095Y-89082571D01*
X135278857Y-89130190D01*
X134897904Y-89130190D01*
X136040761Y-89034952D02*
X135945523Y-88987333D01*
X135897904Y-88939714D01*
X135850285Y-88844476D01*
X135850285Y-88796857D01*
X135897904Y-88701619D01*
X135945523Y-88654000D01*
X136040761Y-88606380D01*
X136231238Y-88606380D01*
X136326476Y-88654000D01*
X136374095Y-88701619D01*
X136421714Y-88796857D01*
X136421714Y-88844476D01*
X136374095Y-88939714D01*
X136326476Y-88987333D01*
X136231238Y-89034952D01*
X136040761Y-89034952D01*
X135945523Y-89082571D01*
X135897904Y-89130190D01*
X135850285Y-89225428D01*
X135850285Y-89415904D01*
X135897904Y-89511142D01*
X135945523Y-89558761D01*
X136040761Y-89606380D01*
X136231238Y-89606380D01*
X136326476Y-89558761D01*
X136374095Y-89511142D01*
X136421714Y-89415904D01*
X136421714Y-89225428D01*
X136374095Y-89130190D01*
X136326476Y-89082571D01*
X136231238Y-89034952D01*
G04 #@! TO.C,R9*
X136485333Y-112212380D02*
X136151999Y-111736190D01*
X135913904Y-112212380D02*
X135913904Y-111212380D01*
X136294857Y-111212380D01*
X136390095Y-111260000D01*
X136437714Y-111307619D01*
X136485333Y-111402857D01*
X136485333Y-111545714D01*
X136437714Y-111640952D01*
X136390095Y-111688571D01*
X136294857Y-111736190D01*
X135913904Y-111736190D01*
X136961523Y-112212380D02*
X137151999Y-112212380D01*
X137247238Y-112164761D01*
X137294857Y-112117142D01*
X137390095Y-111974285D01*
X137437714Y-111783809D01*
X137437714Y-111402857D01*
X137390095Y-111307619D01*
X137342476Y-111260000D01*
X137247238Y-111212380D01*
X137056761Y-111212380D01*
X136961523Y-111260000D01*
X136913904Y-111307619D01*
X136866285Y-111402857D01*
X136866285Y-111640952D01*
X136913904Y-111736190D01*
X136961523Y-111783809D01*
X137056761Y-111831428D01*
X137247238Y-111831428D01*
X137342476Y-111783809D01*
X137390095Y-111736190D01*
X137437714Y-111640952D01*
G04 #@! TO.C,R10*
X135501142Y-113990380D02*
X135167809Y-113514190D01*
X134929714Y-113990380D02*
X134929714Y-112990380D01*
X135310666Y-112990380D01*
X135405904Y-113038000D01*
X135453523Y-113085619D01*
X135501142Y-113180857D01*
X135501142Y-113323714D01*
X135453523Y-113418952D01*
X135405904Y-113466571D01*
X135310666Y-113514190D01*
X134929714Y-113514190D01*
X136453523Y-113990380D02*
X135882095Y-113990380D01*
X136167809Y-113990380D02*
X136167809Y-112990380D01*
X136072571Y-113133238D01*
X135977333Y-113228476D01*
X135882095Y-113276095D01*
X137072571Y-112990380D02*
X137167809Y-112990380D01*
X137263047Y-113038000D01*
X137310666Y-113085619D01*
X137358285Y-113180857D01*
X137405904Y-113371333D01*
X137405904Y-113609428D01*
X137358285Y-113799904D01*
X137310666Y-113895142D01*
X137263047Y-113942761D01*
X137167809Y-113990380D01*
X137072571Y-113990380D01*
X136977333Y-113942761D01*
X136929714Y-113895142D01*
X136882095Y-113799904D01*
X136834476Y-113609428D01*
X136834476Y-113371333D01*
X136882095Y-113180857D01*
X136929714Y-113085619D01*
X136977333Y-113038000D01*
X137072571Y-112990380D01*
G04 #@! TO.C,R11*
X124071142Y-115768380D02*
X123737809Y-115292190D01*
X123499714Y-115768380D02*
X123499714Y-114768380D01*
X123880666Y-114768380D01*
X123975904Y-114816000D01*
X124023523Y-114863619D01*
X124071142Y-114958857D01*
X124071142Y-115101714D01*
X124023523Y-115196952D01*
X123975904Y-115244571D01*
X123880666Y-115292190D01*
X123499714Y-115292190D01*
X125023523Y-115768380D02*
X124452095Y-115768380D01*
X124737809Y-115768380D02*
X124737809Y-114768380D01*
X124642571Y-114911238D01*
X124547333Y-115006476D01*
X124452095Y-115054095D01*
X125975904Y-115768380D02*
X125404476Y-115768380D01*
X125690190Y-115768380D02*
X125690190Y-114768380D01*
X125594952Y-114911238D01*
X125499714Y-115006476D01*
X125404476Y-115054095D01*
G04 #@! TO.C,R12*
X131691142Y-115514380D02*
X131357809Y-115038190D01*
X131119714Y-115514380D02*
X131119714Y-114514380D01*
X131500666Y-114514380D01*
X131595904Y-114562000D01*
X131643523Y-114609619D01*
X131691142Y-114704857D01*
X131691142Y-114847714D01*
X131643523Y-114942952D01*
X131595904Y-114990571D01*
X131500666Y-115038190D01*
X131119714Y-115038190D01*
X132643523Y-115514380D02*
X132072095Y-115514380D01*
X132357809Y-115514380D02*
X132357809Y-114514380D01*
X132262571Y-114657238D01*
X132167333Y-114752476D01*
X132072095Y-114800095D01*
X133024476Y-114609619D02*
X133072095Y-114562000D01*
X133167333Y-114514380D01*
X133405428Y-114514380D01*
X133500666Y-114562000D01*
X133548285Y-114609619D01*
X133595904Y-114704857D01*
X133595904Y-114800095D01*
X133548285Y-114942952D01*
X132976857Y-115514380D01*
X133595904Y-115514380D01*
G04 #@! TO.C,SW1*
X115466761Y-112331333D02*
X115514380Y-112188476D01*
X115514380Y-111950380D01*
X115466761Y-111855142D01*
X115419142Y-111807523D01*
X115323904Y-111759904D01*
X115228666Y-111759904D01*
X115133428Y-111807523D01*
X115085809Y-111855142D01*
X115038190Y-111950380D01*
X114990571Y-112140857D01*
X114942952Y-112236095D01*
X114895333Y-112283714D01*
X114800095Y-112331333D01*
X114704857Y-112331333D01*
X114609619Y-112283714D01*
X114561999Y-112236095D01*
X114514380Y-112140857D01*
X114514380Y-111902761D01*
X114561999Y-111759904D01*
X114514380Y-111426571D02*
X115514380Y-111188476D01*
X114800095Y-110997999D01*
X115514380Y-110807523D01*
X114514380Y-110569428D01*
X115514380Y-109664666D02*
X115514380Y-110236095D01*
X115514380Y-109950380D02*
X114514380Y-109950380D01*
X114657238Y-110045619D01*
X114752476Y-110140857D01*
X114800095Y-110236095D01*
G04 #@! TO.C,SW2*
X116014666Y-97686761D02*
X116157523Y-97734380D01*
X116395619Y-97734380D01*
X116490857Y-97686761D01*
X116538476Y-97639142D01*
X116586095Y-97543904D01*
X116586095Y-97448666D01*
X116538476Y-97353428D01*
X116490857Y-97305809D01*
X116395619Y-97258190D01*
X116205142Y-97210571D01*
X116109904Y-97162952D01*
X116062285Y-97115333D01*
X116014666Y-97020095D01*
X116014666Y-96924857D01*
X116062285Y-96829619D01*
X116109904Y-96782000D01*
X116205142Y-96734380D01*
X116443238Y-96734380D01*
X116586095Y-96782000D01*
X116919428Y-96734380D02*
X117157523Y-97734380D01*
X117348000Y-97020095D01*
X117538476Y-97734380D01*
X117776571Y-96734380D01*
X118109904Y-96829619D02*
X118157523Y-96782000D01*
X118252761Y-96734380D01*
X118490857Y-96734380D01*
X118586095Y-96782000D01*
X118633714Y-96829619D01*
X118681333Y-96924857D01*
X118681333Y-97020095D01*
X118633714Y-97162952D01*
X118062285Y-97734380D01*
X118681333Y-97734380D01*
G04 #@! TO.C,SW3*
X136461666Y-108862761D02*
X136604523Y-108910380D01*
X136842619Y-108910380D01*
X136937857Y-108862761D01*
X136985476Y-108815142D01*
X137033095Y-108719904D01*
X137033095Y-108624666D01*
X136985476Y-108529428D01*
X136937857Y-108481809D01*
X136842619Y-108434190D01*
X136652142Y-108386571D01*
X136556904Y-108338952D01*
X136509285Y-108291333D01*
X136461666Y-108196095D01*
X136461666Y-108100857D01*
X136509285Y-108005619D01*
X136556904Y-107958000D01*
X136652142Y-107910380D01*
X136890238Y-107910380D01*
X137033095Y-107958000D01*
X137366428Y-107910380D02*
X137604523Y-108910380D01*
X137795000Y-108196095D01*
X137985476Y-108910380D01*
X138223571Y-107910380D01*
X138509285Y-107910380D02*
X139128333Y-107910380D01*
X138795000Y-108291333D01*
X138937857Y-108291333D01*
X139033095Y-108338952D01*
X139080714Y-108386571D01*
X139128333Y-108481809D01*
X139128333Y-108719904D01*
X139080714Y-108815142D01*
X139033095Y-108862761D01*
X138937857Y-108910380D01*
X138652142Y-108910380D01*
X138556904Y-108862761D01*
X138509285Y-108815142D01*
G04 #@! TO.C,U2*
X123190095Y-100544380D02*
X123190095Y-101353904D01*
X123237714Y-101449142D01*
X123285333Y-101496761D01*
X123380571Y-101544380D01*
X123571047Y-101544380D01*
X123666285Y-101496761D01*
X123713904Y-101449142D01*
X123761523Y-101353904D01*
X123761523Y-100544380D01*
X124190095Y-100639619D02*
X124237714Y-100592000D01*
X124332952Y-100544380D01*
X124571047Y-100544380D01*
X124666285Y-100592000D01*
X124713904Y-100639619D01*
X124761523Y-100734857D01*
X124761523Y-100830095D01*
X124713904Y-100972952D01*
X124142476Y-101544380D01*
X124761523Y-101544380D01*
G04 #@! TO.C,U4*
X127762095Y-109688380D02*
X127762095Y-110497904D01*
X127809714Y-110593142D01*
X127857333Y-110640761D01*
X127952571Y-110688380D01*
X128143047Y-110688380D01*
X128238285Y-110640761D01*
X128285904Y-110593142D01*
X128333523Y-110497904D01*
X128333523Y-109688380D01*
X129238285Y-110021714D02*
X129238285Y-110688380D01*
X129000190Y-109640761D02*
X128762095Y-110355047D01*
X129381142Y-110355047D01*
G04 #@! TO.C,VR1*
D17*
X104362380Y-103193904D02*
X104629047Y-103993904D01*
X104895714Y-103193904D01*
X105619523Y-103993904D02*
X105352857Y-103612952D01*
X105162380Y-103993904D02*
X105162380Y-103193904D01*
X105467142Y-103193904D01*
X105543333Y-103232000D01*
X105581428Y-103270095D01*
X105619523Y-103346285D01*
X105619523Y-103460571D01*
X105581428Y-103536761D01*
X105543333Y-103574857D01*
X105467142Y-103612952D01*
X105162380Y-103612952D01*
X106381428Y-103993904D02*
X105924285Y-103993904D01*
X106152857Y-103993904D02*
X106152857Y-103193904D01*
X106076666Y-103308190D01*
X106000476Y-103384380D01*
X105924285Y-103422476D01*
G04 #@! TO.C,Y1*
D16*
X151541238Y-110713761D02*
X151541238Y-111318523D01*
X151117904Y-110048523D02*
X151541238Y-110713761D01*
X151964571Y-110048523D01*
X153053142Y-111318523D02*
X152327428Y-111318523D01*
X152690285Y-111318523D02*
X152690285Y-110048523D01*
X152569333Y-110229952D01*
X152448380Y-110350904D01*
X152327428Y-110411380D01*
G04 #@! TD*
M02*
