G04 #@! TF.GenerationSoftware,KiCad,Pcbnew,(5.0.1)-3*
G04 #@! TF.CreationDate,2019-12-02T19:12:02+05:30*
G04 #@! TF.ProjectId,stm32f070-board,73746D3332663037302D626F6172642E,v1.0*
G04 #@! TF.SameCoordinates,Original*
G04 #@! TF.FileFunction,Copper,L2,Bot,Signal*
G04 #@! TF.FilePolarity,Positive*
%FSLAX46Y46*%
G04 Gerber Fmt 4.6, Leading zero omitted, Abs format (unit mm)*
G04 Created by KiCad (PCBNEW (5.0.1)-3) date 12/02/19 19:12:02*
%MOMM*%
%LPD*%
G01*
G04 APERTURE LIST*
G04 #@! TA.AperFunction,NonConductor*
%ADD10C,0.300000*%
G04 #@! TD*
G04 #@! TA.AperFunction,ComponentPad*
%ADD11O,0.850000X0.850000*%
G04 #@! TD*
G04 #@! TA.AperFunction,ComponentPad*
%ADD12R,0.850000X0.850000*%
G04 #@! TD*
G04 #@! TA.AperFunction,ViaPad*
%ADD13C,0.762000*%
G04 #@! TD*
G04 #@! TA.AperFunction,Conductor*
%ADD14C,0.381000*%
G04 #@! TD*
G04 #@! TA.AperFunction,Conductor*
%ADD15C,0.254000*%
G04 #@! TD*
G04 APERTURE END LIST*
D10*
X162047714Y-117518571D02*
X162547714Y-116804285D01*
X162904857Y-117518571D02*
X162904857Y-116018571D01*
X162333428Y-116018571D01*
X162190571Y-116090000D01*
X162119142Y-116161428D01*
X162047714Y-116304285D01*
X162047714Y-116518571D01*
X162119142Y-116661428D01*
X162190571Y-116732857D01*
X162333428Y-116804285D01*
X162904857Y-116804285D01*
X160833428Y-117447142D02*
X160976285Y-117518571D01*
X161262000Y-117518571D01*
X161404857Y-117447142D01*
X161476285Y-117304285D01*
X161476285Y-116732857D01*
X161404857Y-116590000D01*
X161262000Y-116518571D01*
X160976285Y-116518571D01*
X160833428Y-116590000D01*
X160762000Y-116732857D01*
X160762000Y-116875714D01*
X161476285Y-117018571D01*
X160262000Y-116518571D02*
X159904857Y-117518571D01*
X159547714Y-116518571D01*
X158190571Y-117518571D02*
X159047714Y-117518571D01*
X158619142Y-117518571D02*
X158619142Y-116018571D01*
X158762000Y-116232857D01*
X158904857Y-116375714D01*
X159047714Y-116447142D01*
X157547714Y-117375714D02*
X157476285Y-117447142D01*
X157547714Y-117518571D01*
X157619142Y-117447142D01*
X157547714Y-117375714D01*
X157547714Y-117518571D01*
X156547714Y-116018571D02*
X156404857Y-116018571D01*
X156262000Y-116090000D01*
X156190571Y-116161428D01*
X156119142Y-116304285D01*
X156047714Y-116590000D01*
X156047714Y-116947142D01*
X156119142Y-117232857D01*
X156190571Y-117375714D01*
X156262000Y-117447142D01*
X156404857Y-117518571D01*
X156547714Y-117518571D01*
X156690571Y-117447142D01*
X156762000Y-117375714D01*
X156833428Y-117232857D01*
X156904857Y-116947142D01*
X156904857Y-116590000D01*
X156833428Y-116304285D01*
X156762000Y-116161428D01*
X156690571Y-116090000D01*
X156547714Y-116018571D01*
D11*
G04 #@! TO.P,J3,5*
G04 #@! TO.N,VCC*
X119825000Y-90995500D03*
G04 #@! TO.P,J3,4*
G04 #@! TO.N,/PA20*
X120825000Y-90995500D03*
G04 #@! TO.P,J3,3*
G04 #@! TO.N,/PA19*
X121825000Y-90995500D03*
G04 #@! TO.P,J3,2*
G04 #@! TO.N,GND*
X122825000Y-90995500D03*
D12*
G04 #@! TO.P,J3,1*
G04 #@! TO.N,/ToDebugConnector*
X123825000Y-90995500D03*
G04 #@! TD*
D13*
G04 #@! TO.N,VCC*
X123571000Y-105854500D03*
X124587000Y-108394500D03*
X143637000Y-100774500D03*
X139827000Y-100012500D03*
X128325996Y-101117404D03*
G04 #@! TO.N,GND*
X126619000Y-116268500D03*
X130810000Y-90487500D03*
X128764000Y-109396500D03*
X137795000Y-101028500D03*
X137541000Y-95745300D03*
G04 #@! TO.N,/ToDebugConnector*
X124587000Y-96964500D03*
X127582622Y-102552500D03*
X122859800Y-100393500D03*
G04 #@! TO.N,Net-(D3-Pad4)*
X131699000Y-102689700D03*
X133985000Y-98488500D03*
G04 #@! TO.N,/USB_D+*
X102151578Y-104286922D03*
X122732800Y-104292400D03*
G04 #@! TO.N,/USB_D-*
X102870000Y-103568500D03*
X123672600Y-102819200D03*
G04 #@! TO.N,+5V*
X104460000Y-102618500D03*
X156438600Y-106680000D03*
G04 #@! TD*
D14*
G04 #@! TO.N,VCC*
X123571000Y-106839685D02*
X123571000Y-105854500D01*
X124587000Y-108394500D02*
X124587000Y-107855685D01*
X124587000Y-107855685D02*
X123571000Y-106839685D01*
X143637000Y-100774500D02*
X140589000Y-100774500D01*
X140589000Y-100774500D02*
X139827000Y-100012500D01*
G04 #@! TO.N,GND*
X126619000Y-115252500D02*
X126619000Y-116268500D01*
X125984000Y-114617500D02*
X126619000Y-115252500D01*
X125984000Y-111637685D02*
X125984000Y-114617500D01*
X128764000Y-109396500D02*
X128225185Y-109396500D01*
X128225185Y-109396500D02*
X125984000Y-111637685D01*
X137795000Y-101028500D02*
X138430000Y-101028500D01*
X138430000Y-101028500D02*
X138684000Y-100774500D01*
X138684000Y-100774500D02*
X138811000Y-100647500D01*
X138811000Y-100647500D02*
X138811000Y-97091500D01*
X138811000Y-97091500D02*
X137541000Y-95821500D01*
X137541000Y-95821500D02*
X137541000Y-95745300D01*
X122825000Y-90394460D02*
X123557460Y-89662000D01*
X122825000Y-90995500D02*
X122825000Y-90394460D01*
X129984500Y-89662000D02*
X130810000Y-90487500D01*
X123557460Y-89662000D02*
X129984500Y-89662000D01*
D15*
G04 #@! TO.N,/ToDebugConnector*
X123825000Y-92646500D02*
X123825000Y-90995500D01*
X124587000Y-96964500D02*
X124587000Y-93408500D01*
X124587000Y-93408500D02*
X123825000Y-92646500D01*
X122872500Y-100380800D02*
X122859800Y-100393500D01*
X125450600Y-100380800D02*
X122872500Y-100380800D01*
X127582622Y-102552500D02*
X127582622Y-102512822D01*
X127582622Y-102512822D02*
X125450600Y-100380800D01*
G04 #@! TO.N,Net-(D3-Pad4)*
X131699000Y-102689700D02*
X131699000Y-100266500D01*
X131699000Y-100266500D02*
X133477000Y-98488500D01*
X133477000Y-98488500D02*
X133985000Y-98488500D01*
G04 #@! TO.N,/USB_D+*
X102151578Y-104286922D02*
X122727322Y-104286922D01*
X122727322Y-104286922D02*
X122732800Y-104292400D01*
G04 #@! TO.N,/USB_D-*
X121894600Y-102819200D02*
X123672600Y-102819200D01*
X102870000Y-103568500D02*
X121145300Y-103568500D01*
X121145300Y-103568500D02*
X121894600Y-102819200D01*
D14*
G04 #@! TO.N,+5V*
X156438600Y-103911400D02*
X156438600Y-106680000D01*
X118971100Y-102618500D02*
X122199400Y-99390200D01*
X104460000Y-102618500D02*
X118971100Y-102618500D01*
X122199400Y-99390200D02*
X131648200Y-99390200D01*
X131648200Y-99390200D02*
X137160000Y-93878400D01*
X137160000Y-93878400D02*
X146405600Y-93878400D01*
X146405600Y-93878400D02*
X156438600Y-103911400D01*
G04 #@! TD*
D15*
G04 #@! TO.N,GND*
G36*
X163603000Y-115050000D02*
X154977000Y-115050000D01*
X154977000Y-118391000D01*
X95601041Y-118391000D01*
X95543356Y-104084827D01*
X101135578Y-104084827D01*
X101135578Y-104489017D01*
X101290254Y-104862440D01*
X101576060Y-105148246D01*
X101949483Y-105302922D01*
X102353673Y-105302922D01*
X102727096Y-105148246D01*
X102826420Y-105048922D01*
X122052480Y-105048922D01*
X122157282Y-105153724D01*
X122530705Y-105308400D01*
X122697491Y-105308400D01*
X122555000Y-105652405D01*
X122555000Y-106056595D01*
X122709676Y-106430018D01*
X122745500Y-106465842D01*
X122745500Y-106758383D01*
X122729328Y-106839685D01*
X122745500Y-106920986D01*
X122745500Y-106920987D01*
X122793396Y-107161778D01*
X122975848Y-107434837D01*
X123044777Y-107480894D01*
X123625269Y-108061387D01*
X123571000Y-108192405D01*
X123571000Y-108596595D01*
X123725676Y-108970018D01*
X124011482Y-109255824D01*
X124384905Y-109410500D01*
X124789095Y-109410500D01*
X125162518Y-109255824D01*
X125448324Y-108970018D01*
X125603000Y-108596595D01*
X125603000Y-108192405D01*
X125448324Y-107818982D01*
X125414679Y-107785337D01*
X125381252Y-107617289D01*
X125364604Y-107533591D01*
X125182152Y-107260533D01*
X125113226Y-107214478D01*
X124396500Y-106497753D01*
X124396500Y-106465842D01*
X124432324Y-106430018D01*
X124587000Y-106056595D01*
X124587000Y-105652405D01*
X124432324Y-105278982D01*
X124146518Y-104993176D01*
X123773095Y-104838500D01*
X123606309Y-104838500D01*
X123748800Y-104494495D01*
X123748800Y-104090305D01*
X123643133Y-103835200D01*
X123874695Y-103835200D01*
X124248118Y-103680524D01*
X124533924Y-103394718D01*
X124688600Y-103021295D01*
X124688600Y-102617105D01*
X124533924Y-102243682D01*
X124248118Y-101957876D01*
X123874695Y-101803200D01*
X123470505Y-101803200D01*
X123097082Y-101957876D01*
X122997758Y-102057200D01*
X121969642Y-102057200D01*
X121894599Y-102042273D01*
X121819556Y-102057200D01*
X121819552Y-102057200D01*
X121597283Y-102101412D01*
X121597282Y-102101413D01*
X121597281Y-102101413D01*
X121426529Y-102215506D01*
X121345229Y-102269829D01*
X121302718Y-102333451D01*
X120829670Y-102806500D01*
X119950532Y-102806500D01*
X121936834Y-100820199D01*
X121998476Y-100969018D01*
X122284282Y-101254824D01*
X122657705Y-101409500D01*
X123061895Y-101409500D01*
X123435318Y-101254824D01*
X123547342Y-101142800D01*
X125134970Y-101142800D01*
X126566622Y-102574453D01*
X126566622Y-102754595D01*
X126721298Y-103128018D01*
X127007104Y-103413824D01*
X127380527Y-103568500D01*
X127784717Y-103568500D01*
X128158140Y-103413824D01*
X128443946Y-103128018D01*
X128598622Y-102754595D01*
X128598622Y-102350405D01*
X128508738Y-102133404D01*
X128528091Y-102133404D01*
X128901514Y-101978728D01*
X129187320Y-101692922D01*
X129341996Y-101319499D01*
X129341996Y-100915309D01*
X129187320Y-100541886D01*
X128901514Y-100256080D01*
X128804028Y-100215700D01*
X130932178Y-100215700D01*
X130922073Y-100266500D01*
X130937001Y-100341548D01*
X130937000Y-102014858D01*
X130837676Y-102114182D01*
X130683000Y-102487605D01*
X130683000Y-102891795D01*
X130837676Y-103265218D01*
X131123482Y-103551024D01*
X131496905Y-103705700D01*
X131901095Y-103705700D01*
X132274518Y-103551024D01*
X132560324Y-103265218D01*
X132715000Y-102891795D01*
X132715000Y-102487605D01*
X132560324Y-102114182D01*
X132461000Y-102014858D01*
X132461000Y-100582130D01*
X133232725Y-99810405D01*
X138811000Y-99810405D01*
X138811000Y-100214595D01*
X138965676Y-100588018D01*
X139251482Y-100873824D01*
X139624905Y-101028500D01*
X139675567Y-101028500D01*
X139947793Y-101300726D01*
X139993848Y-101369652D01*
X140062773Y-101415706D01*
X140266905Y-101552104D01*
X140589000Y-101616172D01*
X140670303Y-101600000D01*
X143025658Y-101600000D01*
X143061482Y-101635824D01*
X143434905Y-101790500D01*
X143839095Y-101790500D01*
X144212518Y-101635824D01*
X144498324Y-101350018D01*
X144653000Y-100976595D01*
X144653000Y-100572405D01*
X144498324Y-100198982D01*
X144212518Y-99913176D01*
X143839095Y-99758500D01*
X143434905Y-99758500D01*
X143061482Y-99913176D01*
X143025658Y-99949000D01*
X140930933Y-99949000D01*
X140843000Y-99861067D01*
X140843000Y-99810405D01*
X140688324Y-99436982D01*
X140402518Y-99151176D01*
X140029095Y-98996500D01*
X139624905Y-98996500D01*
X139251482Y-99151176D01*
X138965676Y-99436982D01*
X138811000Y-99810405D01*
X133232725Y-99810405D01*
X133610177Y-99432954D01*
X133782905Y-99504500D01*
X134187095Y-99504500D01*
X134560518Y-99349824D01*
X134846324Y-99064018D01*
X135001000Y-98690595D01*
X135001000Y-98286405D01*
X134846324Y-97912982D01*
X134569587Y-97636245D01*
X137501933Y-94703900D01*
X146063668Y-94703900D01*
X155613100Y-104253333D01*
X155613101Y-106068657D01*
X155577276Y-106104482D01*
X155422600Y-106477905D01*
X155422600Y-106882095D01*
X155577276Y-107255518D01*
X155863082Y-107541324D01*
X156236505Y-107696000D01*
X156640695Y-107696000D01*
X157014118Y-107541324D01*
X157299924Y-107255518D01*
X157454600Y-106882095D01*
X157454600Y-106477905D01*
X157299924Y-106104482D01*
X157264100Y-106068658D01*
X157264100Y-103992703D01*
X157280272Y-103911400D01*
X157259437Y-103806652D01*
X157216204Y-103589306D01*
X157033752Y-103316248D01*
X156964826Y-103270193D01*
X147046809Y-93352177D01*
X147000752Y-93283248D01*
X146727694Y-93100796D01*
X146486903Y-93052900D01*
X146486901Y-93052900D01*
X146405600Y-93036728D01*
X146324299Y-93052900D01*
X137241297Y-93052900D01*
X137159999Y-93036729D01*
X137078701Y-93052900D01*
X137078697Y-93052900D01*
X136837906Y-93100796D01*
X136564848Y-93283248D01*
X136518793Y-93352174D01*
X131306268Y-98564700D01*
X122280703Y-98564700D01*
X122199400Y-98548528D01*
X122118097Y-98564700D01*
X121877306Y-98612596D01*
X121604248Y-98795048D01*
X121558193Y-98863974D01*
X118629168Y-101793000D01*
X105071342Y-101793000D01*
X105035518Y-101757176D01*
X104662095Y-101602500D01*
X104257905Y-101602500D01*
X103884482Y-101757176D01*
X103598676Y-102042982D01*
X103444000Y-102416405D01*
X103444000Y-102706547D01*
X103072095Y-102552500D01*
X102667905Y-102552500D01*
X102294482Y-102707176D01*
X102008676Y-102992982D01*
X101881966Y-103298888D01*
X101576060Y-103425598D01*
X101290254Y-103711404D01*
X101135578Y-104084827D01*
X95543356Y-104084827D01*
X95490577Y-90995500D01*
X118744234Y-90995500D01*
X118826502Y-91409091D01*
X119060783Y-91759717D01*
X119411409Y-91993998D01*
X119720602Y-92055500D01*
X119929398Y-92055500D01*
X120238591Y-91993998D01*
X120325000Y-91936261D01*
X120411409Y-91993998D01*
X120720602Y-92055500D01*
X120929398Y-92055500D01*
X121238591Y-91993998D01*
X121325000Y-91936261D01*
X121411409Y-91993998D01*
X121720602Y-92055500D01*
X121929398Y-92055500D01*
X122238591Y-91993998D01*
X122332545Y-91931220D01*
X122534938Y-92015040D01*
X122698000Y-91887757D01*
X122698000Y-91596912D01*
X122767084Y-91493520D01*
X122801843Y-91668265D01*
X122942191Y-91878309D01*
X122952000Y-91884863D01*
X122952000Y-91887757D01*
X123063000Y-91974402D01*
X123063000Y-92571456D01*
X123048073Y-92646500D01*
X123063000Y-92721543D01*
X123063000Y-92721547D01*
X123107212Y-92943816D01*
X123275629Y-93195871D01*
X123339253Y-93238383D01*
X123825001Y-93724132D01*
X123825000Y-96289658D01*
X123725676Y-96388982D01*
X123571000Y-96762405D01*
X123571000Y-97166595D01*
X123725676Y-97540018D01*
X124011482Y-97825824D01*
X124384905Y-97980500D01*
X124789095Y-97980500D01*
X125162518Y-97825824D01*
X125448324Y-97540018D01*
X125603000Y-97166595D01*
X125603000Y-96762405D01*
X125448324Y-96388982D01*
X125349000Y-96289658D01*
X125349000Y-93483547D01*
X125363928Y-93408500D01*
X125321633Y-93195871D01*
X125304788Y-93111183D01*
X125136371Y-92859129D01*
X125072749Y-92816618D01*
X124587000Y-92330870D01*
X124587000Y-91959032D01*
X124707809Y-91878309D01*
X124848157Y-91668265D01*
X124897440Y-91420500D01*
X124897440Y-90570500D01*
X124848157Y-90322735D01*
X124707809Y-90112691D01*
X124497765Y-89972343D01*
X124250000Y-89923060D01*
X123400000Y-89923060D01*
X123152235Y-89972343D01*
X123134669Y-89984080D01*
X123115062Y-89975960D01*
X122952000Y-90103243D01*
X122952000Y-90106137D01*
X122942191Y-90112691D01*
X122801843Y-90322735D01*
X122767084Y-90497480D01*
X122698000Y-90394088D01*
X122698000Y-90103243D01*
X122534938Y-89975960D01*
X122332545Y-90059780D01*
X122238591Y-89997002D01*
X121929398Y-89935500D01*
X121720602Y-89935500D01*
X121411409Y-89997002D01*
X121325000Y-90054739D01*
X121238591Y-89997002D01*
X120929398Y-89935500D01*
X120720602Y-89935500D01*
X120411409Y-89997002D01*
X120325000Y-90054739D01*
X120238591Y-89997002D01*
X119929398Y-89935500D01*
X119720602Y-89935500D01*
X119411409Y-89997002D01*
X119060783Y-90231283D01*
X118826502Y-90581909D01*
X118744234Y-90995500D01*
X95490577Y-90995500D01*
X95479970Y-88365000D01*
X163603001Y-88365000D01*
X163603000Y-115050000D01*
X163603000Y-115050000D01*
G37*
X163603000Y-115050000D02*
X154977000Y-115050000D01*
X154977000Y-118391000D01*
X95601041Y-118391000D01*
X95543356Y-104084827D01*
X101135578Y-104084827D01*
X101135578Y-104489017D01*
X101290254Y-104862440D01*
X101576060Y-105148246D01*
X101949483Y-105302922D01*
X102353673Y-105302922D01*
X102727096Y-105148246D01*
X102826420Y-105048922D01*
X122052480Y-105048922D01*
X122157282Y-105153724D01*
X122530705Y-105308400D01*
X122697491Y-105308400D01*
X122555000Y-105652405D01*
X122555000Y-106056595D01*
X122709676Y-106430018D01*
X122745500Y-106465842D01*
X122745500Y-106758383D01*
X122729328Y-106839685D01*
X122745500Y-106920986D01*
X122745500Y-106920987D01*
X122793396Y-107161778D01*
X122975848Y-107434837D01*
X123044777Y-107480894D01*
X123625269Y-108061387D01*
X123571000Y-108192405D01*
X123571000Y-108596595D01*
X123725676Y-108970018D01*
X124011482Y-109255824D01*
X124384905Y-109410500D01*
X124789095Y-109410500D01*
X125162518Y-109255824D01*
X125448324Y-108970018D01*
X125603000Y-108596595D01*
X125603000Y-108192405D01*
X125448324Y-107818982D01*
X125414679Y-107785337D01*
X125381252Y-107617289D01*
X125364604Y-107533591D01*
X125182152Y-107260533D01*
X125113226Y-107214478D01*
X124396500Y-106497753D01*
X124396500Y-106465842D01*
X124432324Y-106430018D01*
X124587000Y-106056595D01*
X124587000Y-105652405D01*
X124432324Y-105278982D01*
X124146518Y-104993176D01*
X123773095Y-104838500D01*
X123606309Y-104838500D01*
X123748800Y-104494495D01*
X123748800Y-104090305D01*
X123643133Y-103835200D01*
X123874695Y-103835200D01*
X124248118Y-103680524D01*
X124533924Y-103394718D01*
X124688600Y-103021295D01*
X124688600Y-102617105D01*
X124533924Y-102243682D01*
X124248118Y-101957876D01*
X123874695Y-101803200D01*
X123470505Y-101803200D01*
X123097082Y-101957876D01*
X122997758Y-102057200D01*
X121969642Y-102057200D01*
X121894599Y-102042273D01*
X121819556Y-102057200D01*
X121819552Y-102057200D01*
X121597283Y-102101412D01*
X121597282Y-102101413D01*
X121597281Y-102101413D01*
X121426529Y-102215506D01*
X121345229Y-102269829D01*
X121302718Y-102333451D01*
X120829670Y-102806500D01*
X119950532Y-102806500D01*
X121936834Y-100820199D01*
X121998476Y-100969018D01*
X122284282Y-101254824D01*
X122657705Y-101409500D01*
X123061895Y-101409500D01*
X123435318Y-101254824D01*
X123547342Y-101142800D01*
X125134970Y-101142800D01*
X126566622Y-102574453D01*
X126566622Y-102754595D01*
X126721298Y-103128018D01*
X127007104Y-103413824D01*
X127380527Y-103568500D01*
X127784717Y-103568500D01*
X128158140Y-103413824D01*
X128443946Y-103128018D01*
X128598622Y-102754595D01*
X128598622Y-102350405D01*
X128508738Y-102133404D01*
X128528091Y-102133404D01*
X128901514Y-101978728D01*
X129187320Y-101692922D01*
X129341996Y-101319499D01*
X129341996Y-100915309D01*
X129187320Y-100541886D01*
X128901514Y-100256080D01*
X128804028Y-100215700D01*
X130932178Y-100215700D01*
X130922073Y-100266500D01*
X130937001Y-100341548D01*
X130937000Y-102014858D01*
X130837676Y-102114182D01*
X130683000Y-102487605D01*
X130683000Y-102891795D01*
X130837676Y-103265218D01*
X131123482Y-103551024D01*
X131496905Y-103705700D01*
X131901095Y-103705700D01*
X132274518Y-103551024D01*
X132560324Y-103265218D01*
X132715000Y-102891795D01*
X132715000Y-102487605D01*
X132560324Y-102114182D01*
X132461000Y-102014858D01*
X132461000Y-100582130D01*
X133232725Y-99810405D01*
X138811000Y-99810405D01*
X138811000Y-100214595D01*
X138965676Y-100588018D01*
X139251482Y-100873824D01*
X139624905Y-101028500D01*
X139675567Y-101028500D01*
X139947793Y-101300726D01*
X139993848Y-101369652D01*
X140062773Y-101415706D01*
X140266905Y-101552104D01*
X140589000Y-101616172D01*
X140670303Y-101600000D01*
X143025658Y-101600000D01*
X143061482Y-101635824D01*
X143434905Y-101790500D01*
X143839095Y-101790500D01*
X144212518Y-101635824D01*
X144498324Y-101350018D01*
X144653000Y-100976595D01*
X144653000Y-100572405D01*
X144498324Y-100198982D01*
X144212518Y-99913176D01*
X143839095Y-99758500D01*
X143434905Y-99758500D01*
X143061482Y-99913176D01*
X143025658Y-99949000D01*
X140930933Y-99949000D01*
X140843000Y-99861067D01*
X140843000Y-99810405D01*
X140688324Y-99436982D01*
X140402518Y-99151176D01*
X140029095Y-98996500D01*
X139624905Y-98996500D01*
X139251482Y-99151176D01*
X138965676Y-99436982D01*
X138811000Y-99810405D01*
X133232725Y-99810405D01*
X133610177Y-99432954D01*
X133782905Y-99504500D01*
X134187095Y-99504500D01*
X134560518Y-99349824D01*
X134846324Y-99064018D01*
X135001000Y-98690595D01*
X135001000Y-98286405D01*
X134846324Y-97912982D01*
X134569587Y-97636245D01*
X137501933Y-94703900D01*
X146063668Y-94703900D01*
X155613100Y-104253333D01*
X155613101Y-106068657D01*
X155577276Y-106104482D01*
X155422600Y-106477905D01*
X155422600Y-106882095D01*
X155577276Y-107255518D01*
X155863082Y-107541324D01*
X156236505Y-107696000D01*
X156640695Y-107696000D01*
X157014118Y-107541324D01*
X157299924Y-107255518D01*
X157454600Y-106882095D01*
X157454600Y-106477905D01*
X157299924Y-106104482D01*
X157264100Y-106068658D01*
X157264100Y-103992703D01*
X157280272Y-103911400D01*
X157259437Y-103806652D01*
X157216204Y-103589306D01*
X157033752Y-103316248D01*
X156964826Y-103270193D01*
X147046809Y-93352177D01*
X147000752Y-93283248D01*
X146727694Y-93100796D01*
X146486903Y-93052900D01*
X146486901Y-93052900D01*
X146405600Y-93036728D01*
X146324299Y-93052900D01*
X137241297Y-93052900D01*
X137159999Y-93036729D01*
X137078701Y-93052900D01*
X137078697Y-93052900D01*
X136837906Y-93100796D01*
X136564848Y-93283248D01*
X136518793Y-93352174D01*
X131306268Y-98564700D01*
X122280703Y-98564700D01*
X122199400Y-98548528D01*
X122118097Y-98564700D01*
X121877306Y-98612596D01*
X121604248Y-98795048D01*
X121558193Y-98863974D01*
X118629168Y-101793000D01*
X105071342Y-101793000D01*
X105035518Y-101757176D01*
X104662095Y-101602500D01*
X104257905Y-101602500D01*
X103884482Y-101757176D01*
X103598676Y-102042982D01*
X103444000Y-102416405D01*
X103444000Y-102706547D01*
X103072095Y-102552500D01*
X102667905Y-102552500D01*
X102294482Y-102707176D01*
X102008676Y-102992982D01*
X101881966Y-103298888D01*
X101576060Y-103425598D01*
X101290254Y-103711404D01*
X101135578Y-104084827D01*
X95543356Y-104084827D01*
X95490577Y-90995500D01*
X118744234Y-90995500D01*
X118826502Y-91409091D01*
X119060783Y-91759717D01*
X119411409Y-91993998D01*
X119720602Y-92055500D01*
X119929398Y-92055500D01*
X120238591Y-91993998D01*
X120325000Y-91936261D01*
X120411409Y-91993998D01*
X120720602Y-92055500D01*
X120929398Y-92055500D01*
X121238591Y-91993998D01*
X121325000Y-91936261D01*
X121411409Y-91993998D01*
X121720602Y-92055500D01*
X121929398Y-92055500D01*
X122238591Y-91993998D01*
X122332545Y-91931220D01*
X122534938Y-92015040D01*
X122698000Y-91887757D01*
X122698000Y-91596912D01*
X122767084Y-91493520D01*
X122801843Y-91668265D01*
X122942191Y-91878309D01*
X122952000Y-91884863D01*
X122952000Y-91887757D01*
X123063000Y-91974402D01*
X123063000Y-92571456D01*
X123048073Y-92646500D01*
X123063000Y-92721543D01*
X123063000Y-92721547D01*
X123107212Y-92943816D01*
X123275629Y-93195871D01*
X123339253Y-93238383D01*
X123825001Y-93724132D01*
X123825000Y-96289658D01*
X123725676Y-96388982D01*
X123571000Y-96762405D01*
X123571000Y-97166595D01*
X123725676Y-97540018D01*
X124011482Y-97825824D01*
X124384905Y-97980500D01*
X124789095Y-97980500D01*
X125162518Y-97825824D01*
X125448324Y-97540018D01*
X125603000Y-97166595D01*
X125603000Y-96762405D01*
X125448324Y-96388982D01*
X125349000Y-96289658D01*
X125349000Y-93483547D01*
X125363928Y-93408500D01*
X125321633Y-93195871D01*
X125304788Y-93111183D01*
X125136371Y-92859129D01*
X125072749Y-92816618D01*
X124587000Y-92330870D01*
X124587000Y-91959032D01*
X124707809Y-91878309D01*
X124848157Y-91668265D01*
X124897440Y-91420500D01*
X124897440Y-90570500D01*
X124848157Y-90322735D01*
X124707809Y-90112691D01*
X124497765Y-89972343D01*
X124250000Y-89923060D01*
X123400000Y-89923060D01*
X123152235Y-89972343D01*
X123134669Y-89984080D01*
X123115062Y-89975960D01*
X122952000Y-90103243D01*
X122952000Y-90106137D01*
X122942191Y-90112691D01*
X122801843Y-90322735D01*
X122767084Y-90497480D01*
X122698000Y-90394088D01*
X122698000Y-90103243D01*
X122534938Y-89975960D01*
X122332545Y-90059780D01*
X122238591Y-89997002D01*
X121929398Y-89935500D01*
X121720602Y-89935500D01*
X121411409Y-89997002D01*
X121325000Y-90054739D01*
X121238591Y-89997002D01*
X120929398Y-89935500D01*
X120720602Y-89935500D01*
X120411409Y-89997002D01*
X120325000Y-90054739D01*
X120238591Y-89997002D01*
X119929398Y-89935500D01*
X119720602Y-89935500D01*
X119411409Y-89997002D01*
X119060783Y-90231283D01*
X118826502Y-90581909D01*
X118744234Y-90995500D01*
X95490577Y-90995500D01*
X95479970Y-88365000D01*
X163603001Y-88365000D01*
X163603000Y-115050000D01*
G04 #@! TD*
M02*
